Perun-BoldItalic.ufo
<glyph name="exclam" format="2">
  <advance width="357"/>
  <unicode hex="0021"/>
  <outline>
    <contour>
      <point x="316.186" y="722" type="line"/>
      <point x="186.959" y="191" type="line"/>
      <point x="88.9591" y="191" type="line"/>
      <point x="166.186" y="722" type="line"/>
    </contour>
    <contour>
      <point x="170.829" y="0" type="line"/>
      <point x="40.8287" y="0" type="line"/>
      <point x="63.1847" y="115" type="line"/>
      <point x="193.185" y="115" type="line"/>
    </contour>
  </outline>
</glyph>
<glyph name="quotedbl" format="2">
  <advance width="492"/>
  <unicode hex="0022"/>
  <outline>
    <contour>
      <point x="40.801" y="432" type="line"/>
      <point x="138.801" y="432" type="line"/>
      <point x="221.171" y="722" type="line"/>
      <point x="71.1713" y="722" type="line"/>
    </contour>
    <contour>
      <point x="270.801" y="432" type="line"/>
      <point x="368.801" y="432" type="line"/>
      <point x="451.171" y="722" type="line"/>
      <point x="301.171" y="722" type="line"/>
    </contour>
  </outline>
</glyph>
<glyph name="numbersign" format="2">
  <advance width="716"/>
  <unicode hex="0023"/>
  <outline>
    <contour>
      <point x="17.8287" y="0" type="line"/>
      <point x="117.829" y="0" type="line"/>
      <point x="471.171" y="722" type="line"/>
      <point x="371.171" y="722" type="line"/>
    </contour>
    <contour>
      <point x="239.829" y="0" type="line"/>
      <point x="339.829" y="0" type="line"/>
      <point x="693.171" y="722" type="line"/>
      <point x="593.171" y="722" type="line"/>
    </contour>
    <contour>
      <point x="161.6" y="539" type="line"/>
      <point x="119.049" y="459" type="line"/>
      <point x="684.049" y="459" type="line"/>
      <point x="726.6" y="539" type="line"/>
    </contour>
    <contour>
      <point x="25.9702" y="284" type="line"/>
      <point x="-16.5802" y="204" type="line"/>
      <point x="548.42" y="204" type="line"/>
      <point x="590.97" y="284" type="line"/>
    </contour>
  </outline>
  <guideline angle="253.563" x="301" y="722"/>
  <guideline angle="73.5632" x="188" y="0"/>
  <guideline angle="0" x="0" y="284"/>
  <guideline angle="0" x="0" y="204"/>
  <guideline angle="251.35" x="147" y="539"/>
  <guideline angle="71.3505" x="645" y="459"/>
  <guideline angle="0" x="0" y="539"/>
  <guideline angle="0" x="0" y="493"/>
</glyph>
<glyph name="dollar" format="2">
  <advance width="890"/>
  <unicode hex="0024"/>
  <outline>
    <component base="S" xOffset="645"/>
    <contour>
      <point x="165.308" y="720" type="line"/>
      <point x="285.143" y="720" type="line"/>
      <point x="300.694" y="800" type="line"/>
      <point x="180.858" y="800" type="line"/>
    </contour>
    <contour>
      <point x="105.05" y="410" type="line"/>
      <point x="224.885" y="410" type="line"/>
      <point x="269.787" y="641" type="line"/>
      <point x="149.952" y="641" type="line"/>
    </contour>
    <contour>
      <point x="42.8484" y="90" type="line"/>
      <point x="162.684" y="90" type="line"/>
      <point x="209.335" y="330" type="line"/>
      <point x="89.4997" y="330" type="line"/>
    </contour>
    <contour>
      <point x="10.5813" y="-76" type="line"/>
      <point x="130.416" y="-76" type="line"/>
      <point x="147.133" y="10" type="line"/>
      <point x="27.298" y="10" type="line"/>
    </contour>
  </outline>
  <guideline angle="90" x="143" y="0"/>
</glyph>
<glyph name="percent" format="2">
  <advance width="905"/>
  <unicode hex="0025"/>
  <outline>
    <contour>
      <point x="120.746" y="-14" type="line"/>
      <point x="218.746" y="-14" type="line"/>
      <point x="791.546" y="736" type="line"/>
      <point x="691.546" y="736" type="line"/>
    </contour>
    <contour>
      <point x="478.704" y="148.551" type="curve" smooth="yes"/>
      <point x="478.704" y="56.1685"/>
      <point x="538.659" y="-7"/>
      <point x="642.107" y="-7" type="curve" smooth="yes"/>
      <point x="779.238" y="-7"/>
      <point x="886.224" y="107.955"/>
      <point x="886.224" y="242.444" type="curve" smooth="yes"/>
      <point x="886.224" y="335.527"/>
      <point x="826.067" y="401"/>
      <point x="723.422" y="401" type="curve" smooth="yes"/>
      <point x="585.954" y="401"/>
      <point x="478.704" y="282.889"/>
    </contour>
    <contour>
      <point x="708.398" y="334" type="curve" smooth="yes"/>
      <point x="761.115" y="334"/>
      <point x="781.113" y="297.809"/>
      <point x="781.113" y="247.279" type="curve" smooth="yes"/>
      <point x="781.113" y="171.493"/>
      <point x="745.086" y="60"/>
      <point x="655.132" y="60" type="curve" smooth="yes"/>
      <point x="602.056" y="60"/>
      <point x="581.555" y="96.685"/>
      <point x="581.555" y="147.753" type="curve" smooth="yes"/>
      <point x="581.555" y="223.73"/>
      <point x="618.552" y="334"/>
    </contour>
    <contour>
      <point x="17.4671" y="476.551" type="curve" smooth="yes"/>
      <point x="17.4671" y="384.169"/>
      <point x="77.4224" y="321"/>
      <point x="180.87" y="321" type="curve" smooth="yes"/>
      <point x="318.001" y="321"/>
      <point x="424.987" y="435.955"/>
      <point x="424.987" y="570.444" type="curve" smooth="yes"/>
      <point x="424.987" y="663.527"/>
      <point x="364.831" y="729"/>
      <point x="262.186" y="729" type="curve" smooth="yes"/>
      <point x="124.717" y="729"/>
      <point x="17.4671" y="610.889"/>
    </contour>
    <contour>
      <point x="247.161" y="662" type="curve" smooth="yes"/>
      <point x="299.878" y="662"/>
      <point x="319.876" y="625.809"/>
      <point x="319.876" y="575.279" type="curve" smooth="yes"/>
      <point x="319.876" y="499.493"/>
      <point x="283.849" y="388"/>
      <point x="193.895" y="388" type="curve" smooth="yes"/>
      <point x="140.819" y="388"/>
      <point x="120.318" y="424.685"/>
      <point x="120.318" y="475.753" type="curve" smooth="yes"/>
      <point x="120.318" y="551.73"/>
      <point x="157.315" y="662"/>
    </contour>
  </outline>
</glyph>
<glyph name="ampersand" format="2">
  <advance width="789"/>
  <unicode hex="0026"/>
  <outline>
    <contour>
      <point x="508.89" y="0" type="line"/>
      <point x="677.371" y="0" type="line"/>
      <point x="360.177" y="409.565" type="line" smooth="yes"/>
      <point x="297.227" y="490.847"/>
      <point x="278.034" y="518.93"/>
      <point x="278.034" y="549.645" type="curve" smooth="yes"/>
      <point x="278.034" y="598.422"/>
      <point x="326.682" y="635"/>
      <point x="375.972" y="635" type="curve" smooth="yes"/>
      <point x="414.652" y="635"/>
      <point x="437.208" y="611.445"/>
      <point x="437.208" y="575.582" type="curve" smooth="yes"/>
      <point x="437.208" y="536.613"/>
      <point x="410.578" y="504.605"/>
      <point x="376.241" y="485.354" type="curve" smooth="yes"/>
      <point x="305.464" y="445.674" type="line"/>
      <point x="352.419" y="374.802" type="line"/>
      <point x="393.796" y="398.45" type="line" smooth="yes"/>
      <point x="471.836" y="443.053"/>
      <point x="564.984" y="501.644"/>
      <point x="564.984" y="597.994" type="curve" smooth="yes"/>
      <point x="564.984" y="692.496"/>
      <point x="475.373" y="735"/>
      <point x="387.57" y="735" type="curve" smooth="yes"/>
      <point x="272.112" y="735"/>
      <point x="142.638" y="661.503"/>
      <point x="142.638" y="530.779" type="curve" smooth="yes"/>
      <point x="142.638" y="489.418"/>
      <point x="155.693" y="458.386"/>
      <point x="184.427" y="421.095" type="curve" smooth="yes"/>
    </contour>
    <contour>
      <point x="17.2525" y="163.618" type="curve" smooth="yes"/>
      <point x="17.2525" y="49.5612"/>
      <point x="105.577" y="-15"/>
      <point x="258.974" y="-15" type="curve" smooth="yes"/>
      <point x="354.445" y="-15"/>
      <point x="433.315" y="9.99643"/>
      <point x="501.667" y="61.9166" type="curve"/>
      <point x="440.771" y="144.267" type="line"/>
      <point x="400.776" y="108.782"/>
      <point x="334.595" y="85"/>
      <point x="275.841" y="85" type="curve" smooth="yes"/>
      <point x="203.107" y="85"/>
      <point x="158.94" y="119.917"/>
      <point x="158.94" y="175.939" type="curve" smooth="yes"/>
      <point x="158.94" y="232.706"/>
      <point x="203.441" y="299.248"/>
      <point x="251.871" y="325.757" type="curve" smooth="yes"/>
      <point x="285.651" y="344.247" type="line"/>
      <point x="226.161" y="420.828" type="line"/>
      <point x="172.807" y="391.309" type="line" smooth="yes"/>
      <point x="83.6998" y="342.01"/>
      <point x="17.2525" y="262.546"/>
    </contour>
    <contour>
      <point x="558.069" y="112.303" type="line"/>
      <point x="625.17" y="166.308"/>
      <point x="671.474" y="256.757"/>
      <point x="695.624" y="381" type="curve"/>
      <point x="557.465" y="380.739" type="line"/>
      <point x="555.868" y="379.261" type="line"/>
      <point x="556" y="317.11"/>
      <point x="525.547" y="252.418"/>
      <point x="488.812" y="204.505" type="curve"/>
    </contour>
  </outline>
  <guideline angle="211.675" x="215" y="420"/>
  <guideline angle="211.675" x="215" y="400"/>
  <guideline angle="211.675" x="215" y="298"/>
  <guideline angle="211.675" x="215" y="291"/>
  <guideline angle="134.007" x="719" y="-1"/>
  <guideline angle="314.104" x="215.955" y="421"/>
</glyph>
<glyph name="parenleft" format="2">
  <advance width="372"/>
  <unicode hex="0028"/>
  <outline>
    <contour>
      <point x="59.7127" y="-132" type="curve"/>
      <point x="169.713" y="-132" type="line"/>
      <point x="157.926" y="-56.4157"/>
      <point x="152.089" y="16.3874"/>
      <point x="152.089" y="86.4091" type="curve" smooth="yes"/>
      <point x="152.089" y="323.443"/>
      <point x="224.415" y="529.912"/>
      <point x="338.629" y="737" type="curve"/>
      <point x="228.629" y="737" type="line"/>
      <point x="105.93" y="549.454"/>
      <point x="30.2749" y="326.744"/>
      <point x="30.2749" y="101.461" type="curve" smooth="yes"/>
      <point x="30.2749" y="21.8458"/>
      <point x="40.0329" y="-55.9745"/>
    </contour>
  </outline>
</glyph>
<glyph name="parenright" format="2">
  <advance width="385"/>
  <unicode hex="0029"/>
  <outline>
    <contour>
      <point x="-6.38453" y="-133" type="curve"/>
      <point x="103.615" y="-133" type="line"/>
      <point x="225.823" y="55.7025"/>
      <point x="302.291" y="277.943"/>
      <point x="302.291" y="504.046" type="curve" smooth="yes"/>
      <point x="302.291" y="583.651"/>
      <point x="292.436" y="661.023"/>
      <point x="272.532" y="736" type="curve"/>
      <point x="162.532" y="736" type="line"/>
      <point x="174.99" y="662.655"/>
      <point x="181.118" y="590.725"/>
      <point x="181.118" y="520.669" type="curve" smooth="yes"/>
      <point x="181.118" y="282.874"/>
      <point x="106.948" y="75.0648"/>
    </contour>
  </outline>
</glyph>
<glyph name="asterisk" format="2">
  <advance width="640"/>
  <unicode hex="002A"/>
  <outline>
    <contour>
      <point x="177.985" y="388" type="line"/>
      <point x="261.266" y="338" type="line"/>
      <point x="342.868" y="480" type="line"/>
      <point x="369.266" y="338" type="line"/>
      <point x="470.985" y="388" type="line"/>
      <point x="394.088" y="512" type="line"/>
      <point x="544.034" y="486" type="line"/>
      <point x="563.861" y="588" type="line"/>
      <point x="403.807" y="562" type="line"/>
      <point x="528.91" y="686" type="line"/>
      <point x="446.435" y="735" type="line"/>
      <point x="365.027" y="594" type="line"/>
      <point x="338.435" y="735" type="line"/>
      <point x="235.91" y="686" type="line"/>
      <point x="312.807" y="562" type="line"/>
      <point x="162.861" y="588" type="line"/>
      <point x="143.034" y="486" type="line"/>
      <point x="303.088" y="512" type="line"/>
    </contour>
  </outline>
  <guideline angle="331.96" x="375" y="735"/>
  <guideline angle="331.96" x="375" y="735"/>
  <guideline angle="290.956" x="267" y="735"/>
  <guideline angle="129.163" x="275" y="562"/>
  <guideline angle="90" x="329" y="0"/>
  <guideline angle="0" x="0" y="527"/>
</glyph>
<glyph name="plus" format="2">
  <advance width="665"/>
  <unicode hex="002B"/>
  <outline>
    <contour>
      <point x="20.7259" y="244" type="line"/>
      <point x="260.726" y="244" type="line"/>
      <point x="214.075" y="4" type="line"/>
      <point x="334.075" y="4" type="line"/>
      <point x="380.726" y="244" type="line"/>
      <point x="620.726" y="244" type="line"/>
      <point x="644.052" y="364" type="line"/>
      <point x="404.052" y="364" type="line"/>
      <point x="450.703" y="604" type="line"/>
      <point x="330.703" y="604" type="line"/>
      <point x="284.052" y="364" type="line"/>
      <point x="44.0516" y="364" type="line"/>
    </contour>
  </outline>
  <guideline angle="0" x="0" y="304"/>
  <guideline angle="90" x="332" y="0"/>
</glyph>
<glyph name="comma" format="2">
  <advance width="310"/>
  <unicode hex="002C"/>
  <outline>
    <contour>
      <point x="10.9706" y="-129" type="line"/>
      <point x="105.971" y="-129" type="line"/>
      <point x="274.954" y="123" type="line"/>
      <point x="138.954" y="123" type="line"/>
    </contour>
  </outline>
</glyph>
<glyph name="slash" format="2">
  <advance width="426"/>
  <unicode hex="002F"/>
  <outline>
    <contour>
      <point x="-35.6397" y="-52" type="line"/>
      <point x="63.3603" y="-52" type="line"/>
      <point x="452.532" y="736" type="line"/>
      <point x="353.532" y="736" type="line"/>
    </contour>
  </outline>
</glyph>
<glyph name="zero" format="2">
  <advance width="573"/>
  <unicode hex="0030"/>
  <outline>
    <contour>
      <point x="17.2512" y="211.199" type="curve" smooth="yes"/>
      <point x="17.2512" y="61.0664"/>
      <point x="81.8817" y="-14"/>
      <point x="209.747" y="-14" type="curve" smooth="yes"/>
      <point x="459.887" y="-14"/>
      <point x="554.47" y="293.042"/>
      <point x="554.47" y="500.287" type="curve" smooth="yes"/>
      <point x="554.47" y="625.688"/>
      <point x="509.668" y="736"/>
      <point x="354.532" y="736" type="curve" smooth="yes"/>
      <point x="104.549" y="736"/>
      <point x="17.2512" y="416.326"/>
    </contour>
    <contour>
      <point x="164.195" y="217.6" type="curve" smooth="yes"/>
      <point x="164.195" y="328.977"/>
      <point x="216.478" y="636"/>
      <point x="343.094" y="636" type="curve" smooth="yes"/>
      <point x="397.522" y="636"/>
      <point x="412.667" y="580.432"/>
      <point x="412.667" y="516.809" type="curve" smooth="yes"/>
      <point x="412.667" y="407.785"/>
      <point x="354.899" y="86"/>
      <point x="233.185" y="86" type="curve" smooth="yes"/>
      <point x="179.072" y="86"/>
      <point x="164.195" y="148.911"/>
    </contour>
  </outline>
</glyph>
<glyph name="one" format="2">
  <advance width="573"/>
  <unicode hex="0031"/>
  <outline>
    <contour>
      <point x="200.829" y="0" type="line"/>
      <point x="335.829" y="0" type="line"/>
      <point x="476.171" y="722" type="line"/>
      <point x="351.171" y="722" type="line"/>
      <point x="291.452" y="672"/>
      <point x="218.26" y="635"/>
      <point x="148.401" y="610" type="curve"/>
      <point x="124.492" y="487" type="line"/>
      <point x="190.574" y="508"/>
      <point x="254.211" y="537"/>
      <point x="313.375" y="579" type="curve"/>
    </contour>
  </outline>
</glyph>
<glyph name="two" format="2">
  <advance width="573"/>
  <unicode hex="0032"/>
  <outline>
    <contour>
      <point x="-40.4348" y="0" type="line"/>
      <point x="469.565" y="0" type="line"/>
      <point x="491.725" y="114" type="line"/>
      <point x="124.725" y="114" type="line"/>
      <point x="123.351" y="106.723" type="line"/>
      <point x="284.141" y="193.811"/>
      <point x="575.411" y="358.366"/>
      <point x="575.411" y="570.792" type="curve" smooth="yes"/>
      <point x="575.411" y="671.013"/>
      <point x="500.602" y="735"/>
      <point x="379.435" y="735" type="curve" smooth="yes"/>
      <point x="235.435" y="735"/>
      <point x="111.941" y="645"/>
      <point x="88.2261" y="523" type="curve"/>
      <point x="233.226" y="523" type="line"/>
      <point x="244.889" y="583"/>
      <point x="296.247" y="626"/>
      <point x="352.247" y="626" type="curve" smooth="yes"/>
      <point x="401.829" y="626"/>
      <point x="434.668" y="592.292"/>
      <point x="434.798" y="549.862" type="curve" smooth="yes"/>
      <point x="435.303" y="385.754"/>
      <point x="100.188" y="189.517"/>
      <point x="-15.5542" y="128" type="curve"/>
    </contour>
  </outline>
</glyph>
<glyph name="three" format="2">
  <advance width="573"/>
  <unicode hex="0033"/>
  <outline>
    <contour>
      <point x="13.9272" y="203" type="line"/>
      <point x="9.73255" y="181.42"/>
      <point x="7.62905" y="161.479"/>
      <point x="7.62905" y="143.163" type="curve" smooth="yes"/>
      <point x="7.62905" y="37.5625"/>
      <point x="77.5523" y="-14"/>
      <point x="219.747" y="-14" type="curve" smooth="yes"/>
      <point x="381.569" y="-14"/>
      <point x="502.79" y="107.222"/>
      <point x="502.79" y="267.727" type="curve" smooth="yes"/>
      <point x="502.79" y="336.811"/>
      <point x="469.616" y="381.882"/>
      <point x="404.682" y="400.124" type="curve"/>
      <point x="403.904" y="396.124" type="line"/>
      <point x="490.798" y="421.283"/>
      <point x="546.689" y="495.726"/>
      <point x="546.689" y="585.424" type="curve" smooth="yes"/>
      <point x="546.689" y="675.91"/>
      <point x="477.376" y="736"/>
      <point x="366.532" y="736" type="curve" smooth="yes"/>
      <point x="213.081" y="736"/>
      <point x="103.414" y="658.226"/>
      <point x="78.8784" y="532" type="curve"/>
      <point x="218.878" y="532" type="line"/>
      <point x="230.298" y="590.751"/>
      <point x="272.61" y="626"/>
      <point x="331.714" y="626" type="curve" smooth="yes"/>
      <point x="378.632" y="626"/>
      <point x="403.541" y="603.55"/>
      <point x="403.541" y="562.356" type="curve" smooth="yes"/>
      <point x="403.541" y="472.782"/>
      <point x="331.22" y="431"/>
      <point x="248.246" y="431" type="curve" smooth="yes"/>
      <point x="231.246" y="431" type="line"/>
      <point x="209.864" y="321" type="line"/>
      <point x="227.864" y="321" type="line" smooth="yes"/>
      <point x="319.366" y="321"/>
      <point x="357.792" y="300.251"/>
      <point x="357.792" y="246.649" type="curve" smooth="yes"/>
      <point x="357.792" y="173.392"/>
      <point x="310.067" y="96"/>
      <point x="230.17" y="96" type="curve" smooth="yes"/>
      <point x="180.678" y="96"/>
      <point x="153.672" y="123.435"/>
      <point x="153.672" y="171.703" type="curve" smooth="yes"/>
      <point x="153.672" y="181.325"/>
      <point x="154.745" y="191.775"/>
      <point x="156.927" y="203" type="curve"/>
    </contour>
  </outline>
</glyph>
<glyph name="four" format="2">
  <advance width="573"/>
  <unicode hex="0034"/>
  <outline>
    <contour>
      <point x="115.895" y="273" type="line"/>
      <point x="119.897" y="262.593" type="line"/>
      <point x="379.511" y="600.407" type="line"/>
      <point x="373.846" y="602" type="line"/>
      <point x="256.829" y="0" type="line"/>
      <point x="391.829" y="0" type="line"/>
      <point x="532.171" y="722" type="line"/>
      <point x="357.171" y="722" type="line"/>
      <point x="7.81025" y="288" type="line"/>
      <point x="-17.4592" y="158" type="line"/>
      <point x="302.541" y="158" type="line"/>
      <point x="324.895" y="273" type="line"/>
    </contour>
    <contour>
      <point x="407.541" y="158" type="line"/>
      <point x="512.541" y="158" type="line"/>
      <point x="534.895" y="273" type="line"/>
      <point x="429.895" y="273" type="line"/>
    </contour>
  </outline>
  <guideline angle="300.964" x="133" y="273"/>
  <guideline angle="0" x="0" y="705"/>
</glyph>
<glyph name="five" format="2">
  <advance width="573"/>
  <unicode hex="0035"/>
  <outline>
    <contour>
      <point x="1.8628" y="146.813" type="curve" smooth="yes"/>
      <point x="1.8628" y="40.3347"/>
      <point x="75.2594" y="-14"/>
      <point x="188.107" y="-14" type="curve" smooth="yes"/>
      <point x="369.591" y="-14"/>
      <point x="521.945" y="135.11"/>
      <point x="521.945" y="316.392" type="curve" smooth="yes"/>
      <point x="521.945" y="417.245"/>
      <point x="463.948" y="491"/>
      <point x="352.13" y="491" type="curve" smooth="yes"/>
      <point x="289.416" y="491"/>
      <point x="233.293" y="467.8"/>
      <point x="196.501" y="432.644" type="curve"/>
      <point x="201.323" y="428.021" type="line"/>
      <point x="237.698" y="618.083" type="line"/>
      <point x="223.552" y="606" type="line"/>
      <point x="522.623" y="606" type="line"/>
      <point x="545.171" y="722" type="line"/>
      <point x="119.171" y="722" type="line"/>
      <point x="39.4753" y="312" type="line"/>
      <point x="168.261" y="312" type="line"/>
      <point x="197.222" y="357"/>
      <point x="242.443" y="389"/>
      <point x="294.529" y="389" type="curve" smooth="yes"/>
      <point x="352.241" y="389"/>
      <point x="378.543" y="349.714"/>
      <point x="378.543" y="292.333" type="curve" smooth="yes"/>
      <point x="378.543" y="199.27"/>
      <point x="325.138" y="96"/>
      <point x="220.489" y="96" type="curve" smooth="yes"/>
      <point x="169.272" y="96"/>
      <point x="138.421" y="119.361"/>
      <point x="138.421" y="162.812" type="curve" smooth="yes"/>
      <point x="138.421" y="169.415"/>
      <point x="139.133" y="176.481"/>
      <point x="140.595" y="184" type="curve"/>
      <point x="4.59464" y="184" type="line"/>
      <point x="2.75814" y="170.97"/>
      <point x="1.86274" y="158.574"/>
    </contour>
  </outline>
</glyph>
<glyph name="six" format="2">
  <advance width="573"/>
  <unicode hex="0036"/>
  <outline>
    <contour>
      <point x="12.9795" y="207.873" type="curve" smooth="yes"/>
      <point x="12.9795" y="84.2938"/>
      <point x="61.077" y="-15"/>
      <point x="210.65" y="-15" type="curve" smooth="yes"/>
      <point x="379.498" y="-15"/>
      <point x="519.468" y="119.229"/>
      <point x="519.468" y="288.265" type="curve" smooth="yes"/>
      <point x="519.468" y="386.663"/>
      <point x="462.367" y="461"/>
      <point x="356.175" y="461" type="curve" smooth="yes"/>
      <point x="291.175" y="461"/>
      <point x="222.732" y="433"/>
      <point x="174.263" y="374" type="curve"/>
      <point x="189.62" y="453"/>
      <point x="247.859" y="624"/>
      <point x="354.859" y="624" type="curve" smooth="yes"/>
      <point x="395.962" y="624"/>
      <point x="422.685" y="597.231"/>
      <point x="422.632" y="559.076" type="curve" smooth="yes"/>
      <point x="422.624" y="553.603"/>
      <point x="422.065" y="547.896"/>
      <point x="420.919" y="542" type="curve"/>
      <point x="560.919" y="542" type="line"/>
      <point x="563.683" y="556.219"/>
      <point x="565.045" y="569.939"/>
      <point x="565.045" y="583.057" type="curve" smooth="yes"/>
      <point x="565.045" y="673.262"/>
      <point x="500.676" y="735"/>
      <point x="385.435" y="735" type="curve" smooth="yes"/>
      <point x="133.378" y="735"/>
      <point x="12.9795" y="424.992"/>
    </contour>
    <contour>
      <point x="293.542" y="360" type="curve" smooth="yes"/>
      <point x="349.699" y="360"/>
      <point x="371.386" y="323.5"/>
      <point x="371.386" y="272.325" type="curve" smooth="yes"/>
      <point x="371.386" y="194.18"/>
      <point x="332.93" y="93"/>
      <point x="241.643" y="93" type="curve" smooth="yes"/>
      <point x="185.144" y="93"/>
      <point x="162.92" y="129.946"/>
      <point x="162.92" y="181.611" type="curve" smooth="yes"/>
      <point x="162.92" y="259.711"/>
      <point x="202.768" y="360"/>
    </contour>
  </outline>
</glyph>
<glyph name="seven" format="2">
  <advance width="573"/>
  <unicode hex="0037"/>
  <outline>
    <contour>
      <point x="47.8287" y="0" type="line"/>
      <point x="213.829" y="0" type="line"/>
      <point x="571.958" y="582" type="line"/>
      <point x="599.171" y="722" type="line"/>
      <point x="115.171" y="722" type="line"/>
      <point x="92.8176" y="607" type="line"/>
      <point x="454.818" y="607" type="line"/>
      <point x="449.922" y="617.917" type="line"/>
    </contour>
  </outline>
</glyph>
<glyph name="eight" format="2">
  <advance width="573"/>
  <unicode hex="0038"/>
  <outline>
    <contour>
      <point x="279.03" y="327" type="curve" smooth="yes"/>
      <point x="334.071" y="327"/>
      <point x="365.63" y="294.734"/>
      <point x="365.63" y="241.738" type="curve" smooth="yes"/>
      <point x="365.63" y="166.676"/>
      <point x="314.08" y="95"/>
      <point x="233.934" y="95" type="curve" smooth="yes"/>
      <point x="179.951" y="95"/>
      <point x="149.266" y="127.017"/>
      <point x="149.266" y="179.648" type="curve" smooth="yes"/>
      <point x="149.266" y="254.506"/>
      <point x="198.281" y="327"/>
    </contour>
    <contour>
      <point x="300.801" y="439" type="curve" smooth="yes"/>
      <point x="252.619" y="439"/>
      <point x="224.422" y="465.65"/>
      <point x="224.422" y="508.76" type="curve" smooth="yes"/>
      <point x="224.422" y="572.155"/>
      <point x="271.791" y="624"/>
      <point x="336.761" y="624" type="curve" smooth="yes"/>
      <point x="384.035" y="624"/>
      <point x="411.959" y="596.665"/>
      <point x="411.959" y="553.425" type="curve" smooth="yes"/>
      <point x="411.959" y="489.706"/>
      <point x="366.327" y="439"/>
    </contour>
    <contour>
      <point x="510.763" y="238.915" type="curve" smooth="yes"/>
      <point x="510.763" y="314.417"/>
      <point x="467.534" y="366.103"/>
      <point x="385.888" y="388" type="curve"/>
      <point x="484.961" y="410.114"/>
      <point x="564.543" y="483.153"/>
      <point x="564.543" y="588.586" type="curve" smooth="yes"/>
      <point x="564.543" y="679.143"/>
      <point x="489.385" y="736"/>
      <point x="360.532" y="736" type="curve" smooth="yes"/>
      <point x="228.766" y="736"/>
      <point x="79.9001" y="664.837"/>
      <point x="79.9001" y="515.689" type="curve" smooth="yes"/>
      <point x="79.9001" y="453.671"/>
      <point x="117.178" y="409.262"/>
      <point x="187.888" y="388" type="curve"/>
      <point x="74.4302" y="353.495"/>
      <point x="-1.97981" y="271.159"/>
      <point x="-1.97981" y="150.438" type="curve" smooth="yes"/>
      <point x="-1.97981" y="46.6411"/>
      <point x="76.1939" y="-14"/>
      <point x="213.747" y="-14" type="curve" smooth="yes"/>
      <point x="367.535" y="-14"/>
      <point x="510.763" y="73.1398"/>
    </contour>
  </outline>
  <guideline angle="0" x="0" y="383"/>
</glyph>
<glyph name="nine" format="2">
  <advance width="573"/>
  <unicode hex="0039"/>
  <outline>
    <contour>
      <point x="6.56134" y="141.076" type="curve" smooth="yes"/>
      <point x="6.56134" y="48.8575"/>
      <point x="76.5845" y="-14"/>
      <point x="193.747" y="-14" type="curve" smooth="yes"/>
      <point x="444.769" y="-14"/>
      <point x="557.638" y="302.297"/>
      <point x="557.638" y="514.023" type="curve" smooth="yes"/>
      <point x="557.638" y="635.332"/>
      <point x="510.765" y="736"/>
      <point x="362.532" y="736" type="curve" smooth="yes"/>
      <point x="193.82" y="736"/>
      <point x="51.3765" y="600.118"/>
      <point x="51.3765" y="430.951" type="curve" smooth="yes"/>
      <point x="51.3765" y="333.854"/>
      <point x="106.333" y="257"/>
      <point x="211.424" y="257" type="curve" smooth="yes"/>
      <point x="282.424" y="257"/>
      <point x="352.227" y="292"/>
      <point x="395.14" y="343" type="curve"/>
      <point x="375.508" y="242"/>
      <point x="329.545" y="93"/>
      <point x="221.545" y="93" type="curve" smooth="yes"/>
      <point x="173.697" y="93"/>
      <point x="148.568" y="122.516"/>
      <point x="148.568" y="161.799" type="curve" smooth="yes"/>
      <point x="148.568" y="167.67"/>
      <point x="149.243" y="173.759"/>
      <point x="150.457" y="180" type="curve"/>
      <point x="10.4565" y="180" type="line"/>
      <point x="7.84093" y="166.544"/>
      <point x="6.56143" y="153.541"/>
    </contour>
    <contour>
      <point x="275.862" y="357" type="curve" smooth="yes"/>
      <point x="220.193" y="357"/>
      <point x="198.129" y="393.885"/>
      <point x="198.129" y="445.483" type="curve" smooth="yes"/>
      <point x="198.129" y="523.11"/>
      <point x="237.317" y="624"/>
      <point x="327.761" y="624" type="curve" smooth="yes"/>
      <point x="383.495" y="624"/>
      <point x="405.665" y="587.645"/>
      <point x="405.665" y="536.217" type="curve" smooth="yes"/>
      <point x="405.665" y="458.769"/>
      <point x="366.038" y="357"/>
    </contour>
  </outline>
</glyph>
<glyph name="colon" format="2">
  <advance width="316"/>
  <unicode hex="003A"/>
  <outline>
    <contour>
      <point x="40.3867" y="0" type="line"/>
      <point x="176.387" y="0" type="line"/>
      <point x="204.081" y="142.476" type="line"/>
      <point x="68.0813" y="142.476" type="line"/>
    </contour>
    <contour>
      <point x="111.919" y="368" type="line"/>
      <point x="247.919" y="368" type="line"/>
      <point x="275.613" y="510.476" type="line"/>
      <point x="139.613" y="510.476" type="line"/>
    </contour>
  </outline>
</glyph>
<glyph name="semicolon" format="2">
  <advance width="310"/>
  <unicode hex="003B"/>
  <outline>
    <contour>
      <point x="-65.0558" y="-129" type="line"/>
      <point x="29.9442" y="-129" type="line"/>
      <point x="198.928" y="123" type="line"/>
      <point x="62.928" y="123" type="line"/>
    </contour>
    <contour>
      <point x="109.419" y="368" type="line"/>
      <point x="245.419" y="368" type="line"/>
      <point x="273.113" y="510.476" type="line"/>
      <point x="137.113" y="510.476" type="line"/>
    </contour>
  </outline>
  <guideline angle="90" x="92" y="0"/>
  <guideline angle="90" x="218" y="0"/>
</glyph>
<glyph name="less" format="2">
  <advance width="801"/>
  <unicode hex="003C"/>
  <outline>
    <contour>
      <point x="30.2704" y="209" type="line"/>
      <point x="645.563" y="-21" type="line"/>
      <point x="669.277" y="101" type="line"/>
      <point x="161.521" y="304.177" type="line"/>
      <point x="159.897" y="295.823" type="line"/>
      <point x="746.641" y="499" type="line"/>
      <point x="770.355" y="621" type="line"/>
      <point x="65.6476" y="391" type="line"/>
    </contour>
  </outline>
  <guideline angle="19.2127" x="50" y="391"/>
  <guideline angle="200.361" x="710" y="499"/>
  <guideline angle="339.639" x="163" y="304"/>
  <guideline angle="160.787" x="710" y="-21"/>
  <guideline angle="90" x="710" y="0"/>
  <guideline angle="90" x="50" y="0"/>
  <guideline angle="90" x="-20" y="0"/>
</glyph>
<glyph name="equal" format="2">
  <advance width="1000"/>
  <unicode hex="003D"/>
  <outline>
    <contour>
      <point x="223.131" y="360" type="line"/>
      <point x="823.131" y="360" type="line"/>
      <point x="846.846" y="482" type="line"/>
      <point x="246.846" y="482" type="line"/>
    </contour>
    <contour>
      <point x="176.091" y="118" type="line"/>
      <point x="776.091" y="118" type="line"/>
      <point x="799.806" y="240" type="line"/>
      <point x="199.806" y="240" type="line"/>
    </contour>
  </outline>
</glyph>
<glyph name="greater" format="2">
  <advance width="720"/>
  <unicode hex="003E"/>
  <outline>
    <contour>
      <point x="670.27" y="209" type="line"/>
      <point x="705.648" y="391" type="line"/>
      <point x="90.3551" y="621" type="line"/>
      <point x="66.6407" y="499" type="line"/>
      <point x="574.397" y="295.823" type="line"/>
      <point x="576.021" y="304.177" type="line"/>
      <point x="-10.7227" y="101" type="line"/>
      <point x="-34.4371" y="-21" type="line"/>
    </contour>
  </outline>
</glyph>
<glyph name="question" format="2">
  <advance width="539"/>
  <unicode hex="003F"/>
  <outline>
    <contour>
      <point x="91.6624" y="0" type="line"/>
      <point x="227.662" y="0" type="line"/>
      <point x="255.36" y="142.476" type="line"/>
      <point x="119.36" y="142.476" type="line"/>
    </contour>
    <contour>
      <point x="146.317" y="276" type="curve" smooth="yes"/>
      <point x="133.681" y="211" type="line"/>
      <point x="269.681" y="211" type="line"/>
      <point x="279.401" y="261" type="line" smooth="yes"/>
      <point x="311.433" y="425.774"/>
      <point x="523.075" y="369.638"/>
      <point x="523.075" y="595.087" type="curve" smooth="yes"/>
      <point x="523.075" y="686.277"/>
      <point x="444.806" y="734"/>
      <point x="341.352" y="734" type="curve" smooth="yes"/>
      <point x="239.352" y="734"/>
      <point x="134.021" y="686"/>
      <point x="66.9416" y="593" type="curve"/>
      <point x="148.083" y="532" type="line"/>
      <point x="196.525" y="596"/>
      <point x="237.523" y="632"/>
      <point x="298.523" y="632" type="curve" smooth="yes"/>
      <point x="347.523" y="632"/>
      <point x="378.128" y="608.266"/>
      <point x="378.111" y="566.826" type="curve" smooth="yes"/>
      <point x="378.044" y="401.681"/>
      <point x="177.639" y="437.124"/>
    </contour>
  </outline>
  <guideline angle="146.739" x="116" y="532"/>
  <guideline angle="0" x="0" y="734"/>
  <guideline angle="0" x="0" y="734"/>
  <guideline angle="62.2161" x="23" y="593"/>
  <guideline angle="60.6422" x="116" y="532"/>
  <guideline angle="90" x="209" y="0"/>
  <guideline angle="90" x="300" y="0"/>
</glyph>
<glyph name="at" format="2">
  <advance width="1039"/>
  <unicode hex="0040"/>
  <outline>
    <contour>
      <point x="9.71804" y="152.689" type="curve" smooth="yes"/>
      <point x="9.71804" y="-74.4454"/>
      <point x="178.808" y="-213"/>
      <point x="440.259" y="-213" type="curve" smooth="yes"/>
      <point x="490.259" y="-213"/>
      <point x="585.231" y="-208"/>
      <point x="653.564" y="-196" type="curve"/>
      <point x="679.416" y="-63" type="line"/>
      <point x="607.946" y="-86"/>
      <point x="535.391" y="-94"/>
      <point x="464.391" y="-94" type="curve" smooth="yes"/>
      <point x="275.767" y="-94"/>
      <point x="150.786" y="3.75047"/>
      <point x="150.786" y="170.89" type="curve" smooth="yes"/>
      <point x="150.786" y="401.132"/>
      <point x="352.464" y="618"/>
      <point x="585.789" y="618" type="curve" smooth="yes"/>
      <point x="766.892" y="618"/>
      <point x="854.854" y="518.881"/>
      <point x="854.914" y="364.847" type="curve" smooth="yes"/>
      <point x="854.94" y="300.162"/>
      <point x="817.098" y="105"/>
      <point x="745.072" y="105" type="curve" smooth="yes"/>
      <point x="722.931" y="105"/>
      <point x="716.049" y="131.017"/>
      <point x="716.049" y="156.818" type="curve" smooth="yes"/>
      <point x="716.049" y="167.14"/>
      <point x="717.151" y="177.427"/>
      <point x="718.817" y="186" type="curve" smooth="yes"/>
      <point x="778.103" y="491" type="line"/>
      <point x="642.103" y="491" type="line"/>
      <point x="632.19" y="440" type="line"/>
      <point x="606.771" y="479"/>
      <point x="565.213" y="507"/>
      <point x="502.213" y="507" type="curve" smooth="yes"/>
      <point x="350.922" y="507"/>
      <point x="248.695" y="341.647"/>
      <point x="248.695" y="202.596" type="curve" smooth="yes"/>
      <point x="248.695" y="94.4269"/>
      <point x="310.627" y="10"/>
      <point x="423.606" y="10" type="curve" smooth="yes"/>
      <point x="477.606" y="10"/>
      <point x="544.41" y="45"/>
      <point x="584.574" y="87" type="curve"/>
      <point x="603.688" y="31"/>
      <point x="646.829" y="6"/>
      <point x="713.829" y="6" type="curve" smooth="yes"/>
      <point x="906.752" y="6"/>
      <point x="996.563" y="228.391"/>
      <point x="996.563" y="394.907" type="curve" smooth="yes"/>
      <point x="996.563" y="609.257"/>
      <point x="836.979" y="734"/>
      <point x="612.338" y="734" type="curve" smooth="yes"/>
      <point x="291.534" y="734"/>
      <point x="9.71808" y="477.604"/>
    </contour>
    <contour>
      <point x="463.016" y="115" type="curve" smooth="yes"/>
      <point x="409.764" y="115"/>
      <point x="388.604" y="159.853"/>
      <point x="388.604" y="211.398" type="curve" smooth="yes"/>
      <point x="388.604" y="289.848"/>
      <point x="440.104" y="402"/>
      <point x="528.803" y="402" type="curve" smooth="yes"/>
      <point x="582.771" y="402"/>
      <point x="599.66" y="361.549"/>
      <point x="599.66" y="315.178" type="curve" smooth="yes"/>
      <point x="599.66" y="237.057"/>
      <point x="553.442" y="115"/>
    </contour>
  </outline>
</glyph>
<glyph name="A" format="2">
  <advance width="731"/>
  <unicode hex="0041"/>
  <anchor x="509.944" y="797" name="top"/>
  <anchor x="340.445" y="-75" name="bottom"/>
  <anchor x="586.967" y="10" name="ogonekUC"/>
  <anchor x="292.366" y="722" name="tonos"/>
  <outline>
    <contour>
      <point x="10.0231" y="0" type="line"/>
      <point x="155.023" y="0" type="line"/>
      <point x="464.575" y="563.554" type="line"/>
      <point x="555.023" y="0" type="line"/>
      <point x="700.023" y="0" type="line"/>
      <point x="569.991" y="720" type="line"/>
      <point x="420.991" y="720" type="line"/>
    </contour>
    <contour>
      <point x="540.317" y="269" type="line"/>
      <point x="279.317" y="269" type="line"/>
      <point x="214.961" y="154" type="line"/>
      <point x="559.961" y="154" type="line"/>
    </contour>
  </outline>
  <guideline angle="289.531" x="426" y="561"/>
  <guideline angle="70.4692" x="225" y="0"/>
  <guideline angle="90" x="404" y="0"/>
  <guideline angle="0" x="0" y="231"/>
  <guideline angle="0" x="0" y="255"/>
  <guideline angle="289.525" x="425" y="564"/>
  <guideline angle="70.475" x="225" y="0"/>
</glyph>
<glyph name="B" format="2">
  <advance width="668"/>
  <unicode hex="0042"/>
  <anchor x="313.75" y="797" name="top"/>
  <outline>
    <contour>
      <point x="136.829" y="0" type="line"/>
      <point x="308.829" y="0" type="line" smooth="yes"/>
      <point x="459.17" y="0"/>
      <point x="593.085" y="79.9402"/>
      <point x="593.085" y="240.753" type="curve" smooth="yes"/>
      <point x="593.085" y="331.728"/>
      <point x="524.011" y="406.87"/>
      <point x="400.469" y="413.979" type="curve"/>
      <point x="525.532" y="347.93" type="line"/>
      <point x="526.31" y="406.87" type="line"/>
      <point x="380.245" y="329.077" type="line"/>
      <point x="548.06" y="342.314"/>
      <point x="627.96" y="463.175"/>
      <point x="627.96" y="572.734" type="curve" smooth="yes"/>
      <point x="627.96" y="669.769"/>
      <point x="567.135" y="722"/>
      <point x="439.186" y="722" type="curve" smooth="yes"/>
      <point x="277.186" y="722" type="line"/>
      <point x="254.83" y="607" type="line"/>
      <point x="375.83" y="607" type="line" smooth="yes"/>
      <point x="435.066" y="607"/>
      <point x="469.024" y="580.69"/>
      <point x="469.024" y="531.638" type="curve" smooth="yes"/>
      <point x="469.024" y="460.077"/>
      <point x="396.751" y="427"/>
      <point x="329.838" y="427" type="curve" smooth="yes"/>
      <point x="219.838" y="427" type="line"/>
      <point x="197.676" y="313" type="line"/>
      <point x="338.676" y="313" type="line" smooth="yes"/>
      <point x="404.713" y="313"/>
      <point x="443.639" y="281.214"/>
      <point x="443.639" y="230.611" type="curve" smooth="yes"/>
      <point x="443.639" y="137.833"/>
      <point x="356.955" y="115"/>
      <point x="279.185" y="115" type="curve" smooth="yes"/>
      <point x="159.185" y="115" type="line"/>
    </contour>
    <contour>
      <point x="20" y="0" type="line"/>
      <point x="170" y="0" type="line"/>
      <point x="310" y="722" type="line"/>
      <point x="160" y="722" type="line"/>
    </contour>
  </outline>
  <guideline angle="90" x="20" y="0"/>
  <guideline angle="90" x="628" y="0"/>
</glyph>
<glyph name="C" format="2">
  <advance width="734"/>
  <unicode hex="0043"/>
  <anchor x="451.389" y="797" name="top"/>
  <anchor x="313.412" y="10" name="bottom"/>
  <anchor x="291" y="0" name="b.cedilla"/>
  <outline>
    <contour>
      <point x="30.89" y="255.94" type="curve" smooth="yes"/>
      <point x="30.89" y="93.7537"/>
      <point x="119.438" y="-14.0236"/>
      <point x="302.145" y="-14.0236" type="curve" smooth="yes"/>
      <point x="492.94" y="-14.0236"/>
      <point x="623.07" y="105.463"/>
      <point x="649.9" y="244" type="curve"/>
      <point x="498.9" y="244" type="line"/>
      <point x="482.51" y="159.75"/>
      <point x="423.935" y="99.9636"/>
      <point x="321.915" y="100.035" type="curve" smooth="yes"/>
      <point x="224.494" y="100.104"/>
      <point x="180.86" y="154.69"/>
      <point x="180.86" y="255.35" type="curve" smooth="yes"/>
      <point x="180.86" y="414.62"/>
      <point x="242.21" y="621.66"/>
      <point x="433.92" y="621.99" type="curve" smooth="yes"/>
      <point x="508" y="621.66"/>
      <point x="552.73" y="574.88"/>
      <point x="552.73" y="517.67" type="curve" smooth="yes"/>
      <point x="552.73" y="509.62"/>
      <point x="551.92" y="501.36"/>
      <point x="550.29" y="493" type="curve"/>
      <point x="695.3" y="493" type="line"/>
      <point x="698.53" y="509.59"/>
      <point x="700.11" y="525.62"/>
      <point x="700.11" y="540.98" type="curve" smooth="yes"/>
      <point x="700.11" y="657.01"/>
      <point x="613.3" y="736"/>
      <point x="455.976" y="736" type="curve" smooth="yes"/>
      <point x="187.66" y="736"/>
      <point x="30.89" y="505.933"/>
    </contour>
  </outline>
</glyph>
<glyph name="D" format="2">
  <advance width="733"/>
  <unicode hex="0044"/>
  <anchor x="376.75" y="797" name="top"/>
  <anchor x="290" y="0" name="b.cedilla"/>
  <anchor x="251" y="-50" name="b.commabelow"/>
  <outline>
    <contour>
      <point x="20" y="0" type="line"/>
      <point x="170" y="0" type="line"/>
      <point x="310" y="722" type="line"/>
      <point x="160" y="722" type="line"/>
    </contour>
    <contour>
      <point x="130.244" y="0" type="line"/>
      <point x="238.829" y="0" type="line" smooth="yes"/>
      <point x="504.411" y="0"/>
      <point x="702.517" y="178.835"/>
      <point x="702.517" y="445.829" type="curve" smooth="yes"/>
      <point x="702.517" y="628.169"/>
      <point x="570.454" y="722"/>
      <point x="378.797" y="722" type="curve" smooth="yes"/>
      <point x="216.119" y="722" type="line"/>
      <point x="216.119" y="607" type="line"/>
      <point x="356.441" y="607" type="line" smooth="yes"/>
      <point x="486.201" y="607"/>
      <point x="551.657" y="548.265"/>
      <point x="551.657" y="434.795" type="curve" smooth="yes"/>
      <point x="551.657" y="255.555"/>
      <point x="453.941" y="114"/>
      <point x="260.99" y="114" type="curve" smooth="yes"/>
      <point x="130.244" y="114" type="line"/>
    </contour>
  </outline>
  <guideline angle="258.996" x="160" y="720"/>
</glyph>
<glyph name="E" format="2">
  <advance width="576"/>
  <unicode hex="0045"/>
  <anchor x="336.75" y="797" name="top"/>
  <anchor x="17.1713" y="722" name="tonos"/>
  <anchor x="221" y="0" name="b.cedilla"/>
  <outline>
    <contour>
      <point x="122.185" y="115" type="line"/>
      <point x="99.8287" y="0" type="line"/>
      <point x="436.829" y="0" type="line"/>
      <point x="459.185" y="115" type="line"/>
    </contour>
    <contour>
      <point x="20" y="0" type="line"/>
      <point x="170" y="0" type="line"/>
      <point x="310" y="722" type="line"/>
      <point x="160" y="722" type="line"/>
    </contour>
    <contour>
      <point x="183.226" y="429" type="line"/>
      <point x="161.454" y="317" type="line"/>
      <point x="468.454" y="317" type="line"/>
      <point x="490.226" y="429" type="line"/>
    </contour>
    <contour>
      <point x="240.186" y="722" type="line"/>
      <point x="217.83" y="607" type="line"/>
      <point x="544.83" y="607" type="line"/>
      <point x="567.186" y="722" type="line"/>
    </contour>
  </outline>
  <guideline angle="90" x="400" y="0"/>
  <guideline angle="90" x="30" y="0"/>
  <guideline angle="90" x="251" y="0"/>
  <guideline angle="90" x="181" y="0"/>
  <guideline angle="90" x="216" y="0"/>
</glyph>
<glyph name="F" format="2">
  <advance width="576"/>
  <unicode hex="0046"/>
  <anchor x="336.75" y="797" name="top"/>
  <outline>
    <contour>
      <point x="20" y="0" type="line"/>
      <point x="170" y="0" type="line"/>
      <point x="310" y="722" type="line"/>
      <point x="160" y="722" type="line"/>
    </contour>
    <contour>
      <point x="183.226" y="429" type="line"/>
      <point x="161.454" y="317" type="line"/>
      <point x="468.454" y="317" type="line"/>
      <point x="490.226" y="429" type="line"/>
    </contour>
    <contour>
      <point x="240.186" y="722" type="line"/>
      <point x="217.83" y="607" type="line"/>
      <point x="544.83" y="607" type="line"/>
      <point x="567.186" y="722" type="line"/>
    </contour>
  </outline>
</glyph>
<glyph name="G" format="2">
  <advance width="733"/>
  <unicode hex="0047"/>
  <anchor x="468.389" y="797" name="top"/>
  <anchor x="312" y="-50" name="b.commabelow"/>
  <outline>
    <contour>
      <point x="30.89" y="259.427" type="curve" smooth="yes"/>
      <point x="30.89" y="94.61"/>
      <point x="119.44" y="-14"/>
      <point x="315.776" y="-14" type="curve" smooth="yes"/>
      <point x="388.74" y="-14"/>
      <point x="507.66" y="1"/>
      <point x="618.49" y="31" type="curve"/>
      <point x="687.11" y="384" type="line"/>
      <point x="407.11" y="384" type="line"/>
      <point x="383.98" y="268" type="line"/>
      <point x="513.98" y="268" type="line"/>
      <point x="485.01" y="116.291" type="line"/>
      <point x="445.88" y="105.091"/>
      <point x="363.9" y="100"/>
      <point x="331.508" y="100" type="curve" smooth="yes"/>
      <point x="225.46" y="100"/>
      <point x="180.86" y="154.564"/>
      <point x="180.86" y="258.175" type="curve" smooth="yes"/>
      <point x="180.86" y="414.75"/>
      <point x="242.3" y="622"/>
      <point x="434.38" y="622" type="curve" smooth="yes"/>
      <point x="505.56" y="622"/>
      <point x="558.83" y="593.41"/>
      <point x="558.83" y="525.42" type="curve" smooth="yes"/>
      <point x="558.83" y="516.04"/>
      <point x="557.8" y="505.91"/>
      <point x="555.69" y="495" type="curve"/>
      <point x="706.69" y="495" type="line"/>
      <point x="710.53" y="514.72"/>
      <point x="712.38" y="533.15"/>
      <point x="712.38" y="550.3" type="curve" smooth="yes"/>
      <point x="712.38" y="678.44"/>
      <point x="609.11" y="736"/>
      <point x="456.54" y="736" type="curve" smooth="yes"/>
      <point x="186.03" y="736"/>
      <point x="30.89" y="505.32"/>
    </contour>
  </outline>
  <guideline angle="90" x="378" y="0"/>
</glyph>
<glyph name="H" format="2">
  <advance width="767"/>
  <unicode hex="0048"/>
  <anchor x="397.75" y="797" name="top"/>
  <anchor x="228.25" y="-75" name="bottom"/>
  <anchor x="22.1713" y="722" name="tonos"/>
  <anchor x="78" y="0" name="b.cedilla"/>
  <outline>
    <contour>
      <point x="224.587" y="436" type="line"/>
      <point x="202.037" y="320" type="line"/>
      <point x="547.037" y="320" type="line"/>
      <point x="569.587" y="436" type="line"/>
    </contour>
    <contour>
      <point x="20.8287" y="0" type="line"/>
      <point x="170.829" y="0" type="line"/>
      <point x="311.185" y="722" type="line"/>
      <point x="161.185" y="722" type="line"/>
    </contour>
    <contour>
      <point x="455.829" y="0" type="line"/>
      <point x="605.829" y="0" type="line"/>
      <point x="746.186" y="722" type="line"/>
      <point x="596.186" y="722" type="line"/>
    </contour>
  </outline>
  <guideline angle="90" x="30" y="0"/>
  <guideline angle="90" x="510" y="0"/>
  <guideline angle="90" x="233" y="0"/>
  <guideline angle="90" x="194" y="0"/>
  <guideline angle="90" x="273" y="0"/>
</glyph>
<glyph name="I" format="2">
  <advance width="330"/>
  <unicode hex="0049"/>
  <anchor x="248" y="797" name="top"/>
  <anchor x="84.1713" y="722" name="tonos"/>
  <anchor x="170" y="0" name="ogonekUC"/>
  <anchor x="77" y="-80" name="bottom"/>
  <outline>
    <contour>
      <point x="20" y="0" type="line"/>
      <point x="170" y="0" type="line"/>
      <point x="310" y="722" type="line"/>
      <point x="160" y="722" type="line"/>
    </contour>
  </outline>
  <guideline angle="90" x="20" y="0"/>
  <guideline angle="90" x="310" y="0"/>
  <guideline angle="79.0262" x="93.0554" y="0"/>
</glyph>
<glyph name="J" format="2">
  <advance width="615"/>
  <unicode hex="004A"/>
  <anchor x="542.653" y="797" name="top"/>
  <outline>
    <contour>
      <point x="17.8603" y="227" type="line"/>
      <point x="12.9884" y="201.939"/>
      <point x="10.542" y="178.738"/>
      <point x="10.542" y="157.441" type="curve" smooth="yes"/>
      <point x="10.542" y="45.3233"/>
      <point x="78.3481" y="-14"/>
      <point x="217.01" y="-14" type="curve" smooth="yes"/>
      <point x="361.01" y="-14"/>
      <point x="489.34" y="70"/>
      <point x="517.139" y="213" type="curve" smooth="yes"/>
      <point x="616.283" y="723" type="line"/>
      <point x="466.283" y="723" type="line"/>
      <point x="368.888" y="222" type="line" smooth="yes"/>
      <point x="352.364" y="137"/>
      <point x="318.172" y="100"/>
      <point x="235.172" y="100" type="curve" smooth="yes"/>
      <point x="186.973" y="100"/>
      <point x="162.723" y="126.846"/>
      <point x="162.723" y="179.551" type="curve" smooth="yes"/>
      <point x="162.723" y="193.549"/>
      <point x="164.433" y="209.372"/>
      <point x="167.86" y="227" type="curve"/>
    </contour>
  </outline>
</glyph>
<glyph name="K" format="2">
  <advance width="701"/>
  <unicode hex="004B"/>
  <anchor x="470" y="797" name="top"/>
  <anchor x="304" y="-50" name="b.commabelow"/>
  <anchor x="299" y="-80" name="bottom"/>
  <outline>
    <contour>
      <point x="20" y="0" type="line"/>
      <point x="170" y="0" type="line"/>
      <point x="310" y="722" type="line"/>
      <point x="160" y="722" type="line"/>
    </contour>
    <contour>
      <point x="236.303" y="388.467" type="line"/>
      <point x="439.829" y="0" type="line"/>
      <point x="608.829" y="0" type="line"/>
      <point x="377.21" y="428.906" type="line"/>
      <point x="387.203" y="372.295" type="line"/>
      <point x="730.185" y="722" type="line"/>
      <point x="560.185" y="722" type="line"/>
    </contour>
  </outline>
  <guideline angle="225.857" x="560" y="722"/>
  <guideline angle="297.671" x="214" y="431"/>
  <guideline angle="79.0262" x="315.139" y="0"/>
</glyph>
<glyph name="L" format="2">
  <advance width="520"/>
  <unicode hex="004C"/>
  <anchor x="172.75" y="797" name="top"/>
  <anchor x="205" y="-50" name="b.commabelow"/>
  <outline>
    <contour>
      <point x="122.185" y="115" type="line"/>
      <point x="99.8287" y="0" type="line"/>
      <point x="436.829" y="0" type="line"/>
      <point x="459.185" y="115" type="line"/>
    </contour>
    <contour>
      <point x="20" y="0" type="line"/>
      <point x="170" y="0" type="line"/>
      <point x="310" y="722" type="line"/>
      <point x="160" y="722" type="line"/>
    </contour>
  </outline>
</glyph>
<glyph name="M" format="2">
  <advance width="952"/>
  <unicode hex="004D"/>
  <outline>
    <contour>
      <point x="20.8287" y="0" type="line"/>
      <point x="170.829" y="0" type="line"/>
      <point x="311.185" y="722" type="line"/>
      <point x="161.185" y="722" type="line"/>
    </contour>
    <contour>
      <point x="640.829" y="0" type="line"/>
      <point x="790.829" y="0" type="line"/>
      <point x="931.185" y="722" type="line"/>
      <point x="781.185" y="722" type="line"/>
    </contour>
    <contour>
      <point x="343.829" y="0" type="line"/>
      <point x="487.829" y="0" type="line"/>
      <point x="841.186" y="722" type="line"/>
      <point x="703.186" y="722" type="line"/>
      <point x="447.644" y="185.621" type="line"/>
      <point x="456.183" y="185.621" type="line"/>
      <point x="388.186" y="722" type="line"/>
      <point x="251.186" y="722" type="line"/>
    </contour>
  </outline>
  <guideline angle="90" x="486" y="0"/>
</glyph>
<glyph name="N" format="2">
  <advance width="810"/>
  <unicode hex="004E"/>
  <anchor x="490" y="797" name="top"/>
  <anchor x="295" y="-50" name="b.commabelow"/>
  <anchor x="317" y="-80" name="bottom"/>
  <outline>
    <contour>
      <point x="231.193" y="722" type="line"/>
      <point x="438.829" y="0" type="line"/>
      <point x="579.241" y="0" type="line"/>
      <point x="371.186" y="722" type="line"/>
    </contour>
    <contour>
      <point x="20.8287" y="0" type="line"/>
      <point x="160.829" y="0" type="line"/>
      <point x="301.185" y="722" type="line"/>
      <point x="161.185" y="722" type="line"/>
    </contour>
    <contour>
      <point x="508.829" y="0" type="line"/>
      <point x="648.829" y="0" type="line"/>
      <point x="789.186" y="722" type="line"/>
      <point x="649.186" y="722" type="line"/>
    </contour>
  </outline>
  <guideline angle="295.725" x="301" y="722"/>
  <guideline angle="115.725" x="509" y="0"/>
  <guideline angle="259.026" x="474.382" y="722"/>
</glyph>
<glyph name="O" format="2">
  <advance width="767"/>
  <unicode hex="004F"/>
  <anchor x="462" y="797" name="top"/>
  <anchor x="147.811" y="722" name="tonos"/>
  <anchor x="290" y="0" name="b.cedilla"/>
  <anchor x="350" y="0" name="ogonekUC"/>
  <anchor x="298" y="-80" name="bottom"/>
  <outline>
    <contour>
      <point x="30.89" y="256.58" type="curve" smooth="yes"/>
      <point x="30.89" y="83.6423"/>
      <point x="130.645" y="-14"/>
      <point x="307.325" y="-14" type="curve" smooth="yes"/>
      <point x="555.672" y="-14"/>
      <point x="736.4" y="187.925"/>
      <point x="736.4" y="465.4" type="curve" smooth="yes"/>
      <point x="736.4" y="638.285"/>
      <point x="636.716" y="736"/>
      <point x="460.348" y="736" type="curve" smooth="yes"/>
      <point x="212.183" y="736"/>
      <point x="30.89" y="533.616"/>
    </contour>
    <contour>
      <point x="180.86" y="256.755" type="curve" smooth="yes"/>
      <point x="180.86" y="475.615"/>
      <point x="285.06" y="622"/>
      <point x="440.848" y="622" type="curve" smooth="yes"/>
      <point x="539.005" y="622"/>
      <point x="586.41" y="571.598"/>
      <point x="586.41" y="467.235" type="curve" smooth="yes"/>
      <point x="586.41" y="248.373"/>
      <point x="482.219" y="102"/>
      <point x="326.427" y="102" type="curve" smooth="yes"/>
      <point x="228.268" y="102"/>
      <point x="180.86" y="152.4"/>
    </contour>
  </outline>
  <guideline angle="90" x="67" y="0"/>
  <guideline angle="90" x="87" y="0"/>
  <guideline angle="0" x="0" y="704"/>
</glyph>
<glyph name="P" format="2">
  <advance width="676"/>
  <unicode hex="0050"/>
  <anchor x="399.847" y="797" name="top"/>
  <outline>
    <contour>
      <point x="203.997" y="273" type="line"/>
      <point x="324.803" y="273" type="line" smooth="yes"/>
      <point x="517.506" y="273"/>
      <point x="645.975" y="382.77"/>
      <point x="645.975" y="542.176" type="curve" smooth="yes"/>
      <point x="645.975" y="650.07"/>
      <point x="562.686" y="722"/>
      <point x="437.751" y="722" type="curve" smooth="yes"/>
      <point x="161.088" y="722" type="line"/>
      <point x="158.776" y="710.103" type="line"/>
      <point x="268.732" y="607" type="line"/>
      <point x="407.397" y="607" type="line" smooth="yes"/>
      <point x="460.821" y="607"/>
      <point x="496.437" y="574.27"/>
      <point x="496.437" y="525.176" type="curve" smooth="yes"/>
      <point x="496.437" y="456.514"/>
      <point x="444.687" y="388"/>
      <point x="367.061" y="388" type="curve" smooth="yes"/>
      <point x="226.353" y="388" type="line"/>
    </contour>
    <contour>
      <point x="20.9259" y="0" type="line"/>
      <point x="165.926" y="0" type="line"/>
      <point x="286.648" y="622" type="line"/>
      <point x="180.001" y="722" type="line"/>
      <point x="161.088" y="722" type="line"/>
    </contour>
  </outline>
</glyph>
<glyph name="Q" format="2">
  <advance width="768"/>
  <unicode hex="0051"/>
  <anchor x="462.333" y="807" name="top"/>
  <outline>
    <component base="O"/>
    <contour>
      <point x="547.851" y="86.2256" type="curve"/>
      <point x="377.763" y="-9.8" type="line"/>
      <point x="395.107" y="-7" type="line" smooth="yes"/>
      <point x="411.691" y="-4"/>
      <point x="467.468" y="0"/>
      <point x="514.468" y="0" type="curve" smooth="yes"/>
      <point x="715.468" y="0" type="line"/>
      <point x="737.822" y="115" type="line"/>
      <point x="670.903" y="111.74"/>
      <point x="606.38" y="102.576"/>
    </contour>
  </outline>
</glyph>
<glyph name="R" format="2">
  <advance width="726"/>
  <unicode hex="0052"/>
  <anchor x="341.653" y="797" name="top"/>
  <anchor x="285" y="-50" name="b.commabelow"/>
  <outline>
    <contour>
      <point x="147.927" y="608" type="line"/>
      <point x="427.927" y="608" type="line" smooth="yes"/>
      <point x="502.483" y="608"/>
      <point x="538.857" y="581.695"/>
      <point x="538.857" y="527.474" type="curve" smooth="yes"/>
      <point x="538.857" y="445.392"/>
      <point x="455.499" y="410"/>
      <point x="379.436" y="410" type="curve" smooth="yes"/>
      <point x="244.436" y="410" type="line"/>
      <point x="222.08" y="295" type="line"/>
      <point x="367.08" y="295" type="line" smooth="yes"/>
      <point x="419.375" y="295"/>
      <point x="454.239" y="259.665"/>
      <point x="454.239" y="206.662" type="curve" smooth="yes"/>
      <point x="454.239" y="128" type="line" smooth="yes"/>
      <point x="454.239" y="92.111"/>
      <point x="454.239" y="31.5501"/>
      <point x="456.732" y="0" type="curve"/>
      <point x="610.732" y="0" type="line"/>
      <point x="605.941" y="34.9981"/>
      <point x="602.64" y="77.0558"/>
      <point x="602.64" y="121" type="curve" smooth="yes"/>
      <point x="602.64" y="233" type="line" smooth="yes"/>
      <point x="602.64" y="294.479"/>
      <point x="562.748" y="345.679"/>
      <point x="502.91" y="361" type="curve"/>
      <point x="502.132" y="357" type="line"/>
      <point x="612.323" y="380.592"/>
      <point x="695.14" y="457.128"/>
      <point x="695.14" y="565.202" type="curve" smooth="yes"/>
      <point x="695.14" y="696.992"/>
      <point x="571.988" y="723"/>
      <point x="450.283" y="723" type="curve" smooth="yes"/>
      <point x="170.283" y="723" type="line"/>
    </contour>
    <contour>
      <point x="20" y="0" type="line"/>
      <point x="170" y="0" type="line"/>
      <point x="310" y="722" type="line"/>
      <point x="160" y="722" type="line"/>
    </contour>
  </outline>
  <guideline angle="0" x="0" y="328"/>
</glyph>
<glyph name="S" format="2">
  <advance width="657"/>
  <unicode hex="0053"/>
  <anchor x="411" y="797" name="top"/>
  <anchor x="258" y="0" name="b.cedilla"/>
  <anchor x="232" y="-50" name="b.commabelow"/>
  <anchor x="278" y="-80" name="bottom"/>
  <outline>
    <contour>
      <point x="10.1409" y="180.884" type="curve" smooth="yes"/>
      <point x="10.1409" y="62.6401"/>
      <point x="124.143" y="-12"/>
      <point x="270.877" y="-12" type="curve" smooth="yes"/>
      <point x="461.893" y="-12"/>
      <point x="589.236" y="87.4449"/>
      <point x="589.236" y="236.612" type="curve" smooth="yes"/>
      <point x="589.236" y="336.626"/>
      <point x="522.027" y="392.922"/>
      <point x="360.748" y="428" type="curve" smooth="yes"/>
      <point x="283.844" y="444.727"/>
      <point x="244.761" y="480.035"/>
      <point x="244.761" y="532.785" type="curve" smooth="yes"/>
      <point x="244.761" y="589.501"/>
      <point x="296.492" y="628"/>
      <point x="372.701" y="628" type="curve" smooth="yes"/>
      <point x="436.596" y="628"/>
      <point x="473.897" y="597.14"/>
      <point x="473.897" y="544.279" type="curve" smooth="yes"/>
      <point x="473.897" y="536.496"/>
      <point x="473.079" y="528.379"/>
      <point x="471.45" y="520" type="curve"/>
      <point x="621.459" y="520" type="line"/>
      <point x="624.806" y="537.216"/>
      <point x="626.483" y="553.648"/>
      <point x="626.483" y="569.212" type="curve" smooth="yes"/>
      <point x="626.483" y="676.237"/>
      <point x="530.003" y="737"/>
      <point x="390.606" y="737" type="curve" smooth="yes"/>
      <point x="210.621" y="737"/>
      <point x="90.6316" y="641.813"/>
      <point x="90.6316" y="499.033" type="curve" smooth="yes"/>
      <point x="90.6316" y="405.71"/>
      <point x="167.994" y="336.484"/>
      <point x="306.112" y="306.215" type="curve" smooth="yes"/>
      <point x="395.644" y="286.594"/>
      <point x="435.503" y="256.496"/>
      <point x="435.503" y="208.512" type="curve" smooth="yes"/>
      <point x="435.503" y="145.205"/>
      <point x="373.873" y="103"/>
      <point x="281.429" y="103" type="curve" smooth="yes"/>
      <point x="196.798" y="103"/>
      <point x="160.562" y="128.643"/>
      <point x="160.562" y="188.532" type="curve" smooth="yes"/>
      <point x="160.562" y="200.706"/>
      <point x="162.061" y="214.457"/>
      <point x="165.083" y="230" type="curve"/>
      <point x="15.0828" y="230" type="line"/>
      <point x="11.7916" y="213.07"/>
      <point x="10.1408" y="196.663"/>
    </contour>
  </outline>
  <guideline angle="346.485" x="25" y="448.094"/>
</glyph>
<glyph name="T" format="2">
  <advance width="530"/>
  <unicode hex="0054"/>
  <anchor x="335.75" y="797" name="top"/>
  <anchor x="170" y="0" name="b.cedilla"/>
  <anchor x="132" y="-50" name="b.commabelow"/>
  <outline>
    <contour>
      <point x="586.83" y="607" type="line"/>
      <point x="609.186" y="722" type="line"/>
      <point x="33.1855" y="722" type="line"/>
      <point x="10.8295" y="607" type="line"/>
      <point x="223.83" y="607" type="line"/>
      <point x="105.829" y="0" type="line"/>
      <point x="255.829" y="0" type="line"/>
      <point x="373.83" y="607" type="line"/>
    </contour>
  </outline>
  <guideline angle="90" x="283" y="0"/>
</glyph>
<glyph name="U" format="2">
  <advance width="744"/>
  <unicode hex="0055"/>
  <anchor x="431.75" y="797" name="top"/>
  <anchor x="259.723" y="-88" name="bottom"/>
  <outline>
    <contour>
      <point x="28.9543" y="299" type="line" smooth="yes"/>
      <point x="23.196" y="269.379"/>
      <point x="20.295" y="241.28"/>
      <point x="20.295" y="214.969" type="curve" smooth="yes"/>
      <point x="20.295" y="76.0642"/>
      <point x="101.152" y="-13"/>
      <point x="269.302" y="-13" type="curve" smooth="yes"/>
      <point x="467.302" y="-13"/>
      <point x="603.435" y="106"/>
      <point x="640.954" y="299" type="curve" smooth="yes"/>
      <point x="723.186" y="722" type="line"/>
      <point x="578.186" y="722" type="line"/>
      <point x="495.954" y="299" type="line" smooth="yes"/>
      <point x="470.294" y="167"/>
      <point x="403.463" y="101"/>
      <point x="296.463" y="101" type="curve" smooth="yes"/>
      <point x="211.83" y="101"/>
      <point x="166.819" y="144.708"/>
      <point x="166.819" y="232.123" type="curve" smooth="yes"/>
      <point x="166.819" y="252.127"/>
      <point x="169.176" y="274.419"/>
      <point x="173.954" y="299" type="curve" smooth="yes"/>
      <point x="256.186" y="722" type="line"/>
      <point x="111.186" y="722" type="line"/>
    </contour>
  </outline>
  <guideline angle="90" x="347" y="0"/>
</glyph>
<glyph name="V" format="2">
  <advance width="779"/>
  <unicode hex="0056"/>
  <anchor x="413.75" y="797" name="top"/>
  <outline>
    <contour>
      <point x="758.185" y="722" type="line"/>
      <point x="598.185" y="722" type="line"/>
      <point x="285.047" y="155.704" type="line"/>
      <point x="293.148" y="155.704" type="line"/>
      <point x="200.185" y="722" type="line"/>
      <point x="40.1855" y="722" type="line"/>
      <point x="164.829" y="0" type="line"/>
      <point x="342.829" y="0" type="line"/>
    </contour>
  </outline>
  <guideline angle="90" x="329" y="0"/>
  <guideline angle="110.155" x="235" y="0"/>
  <guideline angle="249.149" x="688" y="722"/>
  <guideline angle="70.2693" x="325" y="156"/>
  <guideline angle="289.731" x="130" y="722"/>
</glyph>
<glyph name="W" format="2">
  <advance width="1041"/>
  <unicode hex="0057"/>
  <anchor x="544.75" y="797" name="top"/>
  <outline>
    <contour>
      <point x="1020.19" y="722" type="line"/>
      <point x="860.185" y="722" type="line"/>
      <point x="640.148" y="168.24" type="line"/>
      <point x="645.584" y="168.387" type="line"/>
      <point x="609.185" y="722" type="line"/>
      <point x="451.185" y="722" type="line"/>
      <point x="199.542" y="168.387" type="line"/>
      <point x="204.921" y="168.24" type="line"/>
      <point x="200.185" y="722" type="line"/>
      <point x="40.1855" y="722" type="line"/>
      <point x="79.8287" y="0" type="line"/>
      <point x="249.829" y="0" type="line"/>
      <point x="500.264" y="552.617" type="line"/>
      <point x="494.251" y="552.617" type="line"/>
      <point x="529.829" y="0" type="line"/>
      <point x="699.829" y="0" type="line"/>
    </contour>
  </outline>
  <guideline angle="103.999" x="150" y="0"/>
  <guideline angle="281.472" x="130" y="722"/>
  <guideline angle="75.4179" x="240" y="180"/>
  <guideline angle="255.491" x="460" y="541"/>
  <guideline angle="104.509" x="600" y="0"/>
  <guideline angle="284.582" x="539" y="722"/>
  <guideline angle="78.5275" x="680" y="180"/>
  <guideline angle="256.001" x="950" y="722"/>
  <guideline angle="104.498" x="600" y="0"/>
  <guideline angle="78.5708" x="678" y="168"/>
  <guideline angle="90" x="460" y="0"/>
</glyph>
<glyph name="X" format="2">
  <advance width="692"/>
  <unicode hex="0058"/>
  <anchor x="430.75" y="797" name="top"/>
  <outline>
    <contour>
      <point x="442.829" y="0" type="line"/>
      <point x="612.829" y="0" type="line"/>
      <point x="265.192" y="722" type="line"/>
      <point x="94.7234" y="722" type="line"/>
    </contour>
    <contour>
      <point x="275.696" y="388.46" type="line"/>
      <point x="-60.1713" y="0" type="line"/>
      <point x="89.8287" y="0" type="line"/>
      <point x="327.597" y="286.663" type="line"/>
    </contour>
    <contour>
      <point x="420.083" y="363.591" type="line"/>
      <point x="733.185" y="722" type="line"/>
      <point x="578.185" y="722" type="line"/>
      <point x="367.486" y="466.307" type="line"/>
    </contour>
  </outline>
  <guideline angle="90" x="346" y="0"/>
  <guideline angle="0" x="0" y="353"/>
</glyph>
<glyph name="Y" format="2">
  <advance width="697"/>
  <unicode hex="0059"/>
  <anchor x="372.75" y="797" name="top"/>
  <outline>
    <contour>
      <point x="676.185" y="722" type="line"/>
      <point x="510.185" y="722" type="line"/>
      <point x="299.284" y="419" type="line"/>
      <point x="206.185" y="722" type="line"/>
      <point x="40.1855" y="722" type="line"/>
      <point x="243.849" y="133.847" type="line"/>
    </contour>
    <contour>
      <point x="197.816" y="288" type="line"/>
      <point x="141.829" y="0" type="line"/>
      <point x="291.829" y="0" type="line"/>
      <point x="347.816" y="288" type="line"/>
    </contour>
  </outline>
  <guideline angle="90" x="288" y="0"/>
  <guideline angle="298.405" x="-30" y="722"/>
  <guideline angle="61.5948" x="288" y="134"/>
</glyph>
<glyph name="Z" format="2">
  <advance width="591"/>
  <unicode hex="005A"/>
  <anchor x="363" y="797" name="top"/>
  <anchor x="253" y="0" name="b.cedilla"/>
  <anchor x="197" y="-80" name="bottom"/>
  <outline>
    <contour>
      <point x="-62.1713" y="0" type="line"/>
      <point x="480.829" y="0" type="line"/>
      <point x="503.185" y="115" type="line"/>
      <point x="133.185" y="115" type="line"/>
      <point x="588.886" y="597" type="line"/>
      <point x="613.186" y="722" type="line"/>
      <point x="100.186" y="722" type="line"/>
      <point x="77.8295" y="607" type="line"/>
      <point x="417.83" y="607" type="line"/>
      <point x="-37.8713" y="125" type="line"/>
    </contour>
  </outline>
  <guideline angle="233.092" x="543" y="597"/>
  <guideline angle="53.0921" x="8" y="125"/>
  <guideline angle="90" x="279" y="0"/>
</glyph>
<glyph name="bracketleft" format="2">
  <advance width="390"/>
  <unicode hex="005B"/>
  <outline>
    <contour>
      <point x="199.341" y="-198" type="line"/>
      <point x="216.836" y="-108" type="line"/>
      <point x="111.836" y="-108" type="line"/>
      <point x="255.677" y="632" type="line"/>
      <point x="360.677" y="632" type="line"/>
      <point x="378.171" y="722" type="line"/>
      <point x="153.171" y="722" type="line"/>
      <point x="-25.6586" y="-198" type="line"/>
    </contour>
  </outline>
</glyph>
<glyph name="backslash" format="2">
  <advance width="263"/>
  <unicode hex="005C"/>
  <outline>
    <contour>
      <point x="232.36" y="-52" type="line"/>
      <point x="149.532" y="736" type="line"/>
      <point x="10.532" y="736" type="line"/>
      <point x="93.3603" y="-52" type="line"/>
    </contour>
  </outline>
</glyph>
<glyph name="bracketright" format="2">
  <advance width="390"/>
  <unicode hex="005D"/>
  <outline>
    <contour>
      <point x="199.341" y="-198" type="line"/>
      <point x="378.171" y="722" type="line"/>
      <point x="153.171" y="722" type="line"/>
      <point x="135.677" y="632" type="line"/>
      <point x="240.677" y="632" type="line"/>
      <point x="96.8356" y="-108" type="line"/>
      <point x="-8.16438" y="-108" type="line"/>
      <point x="-25.6586" y="-198" type="line"/>
    </contour>
  </outline>
</glyph>
<glyph name="asciicircum" format="2">
  <advance width="697"/>
  <unicode hex="005E"/>
  <outline>
    <contour>
      <point x="666.977" y="10" type="line"/>
      <point x="560.539" y="610" type="line"/>
      <point x="347.402" y="610" type="line"/>
      <point x="10.486" y="10" type="line"/>
      <point x="169.267" y="10" type="line"/>
      <point x="428.92" y="479.504" type="line"/>
      <point x="505.548" y="10" type="line"/>
    </contour>
  </outline>
  <guideline angle="90" x="395" y="0"/>
  <guideline angle="249.528" x="235" y="460"/>
  <guideline angle="110.472" x="723" y="10"/>
</glyph>
<glyph name="underscore" format="2">
  <advance width="500"/>
  <unicode hex="005F"/>
  <outline>
    <contour>
      <point x="471.232" y="-180" type="line"/>
      <point x="493.78" y="-64" type="line"/>
      <point x="-6.22016" y="-64" type="line"/>
      <point x="-28.7683" y="-180" type="line"/>
    </contour>
  </outline>
</glyph>
<glyph name="grave" format="2">
  <advance width="227"/>
  <unicode hex="0060"/>
  <outline>
    <contour>
      <point x="20.8083" y="760" type="line"/>
      <point x="136.82" y="580" type="line"/>
      <point x="206.82" y="580" type="line"/>
      <point x="150.808" y="760" type="line"/>
    </contour>
  </outline>
</glyph>
<glyph name="a" format="2">
  <advance width="545"/>
  <unicode hex="0061"/>
  <anchor x="333.672" y="600" name="top"/>
  <anchor x="207.325" y="-50" name="bottom"/>
  <anchor x="354.988" y="10" name="ogonekLC"/>
  <outline>
    <contour>
      <point x="10.1855" y="110.061" type="curve" smooth="yes"/>
      <point x="10.1855" y="37.0169"/>
      <point x="68.267" y="-14"/>
      <point x="158.777" y="-14" type="curve" smooth="yes"/>
      <point x="222.428" y="-14"/>
      <point x="272.725" y="11.2314"/>
      <point x="331.23" y="71.5201" type="curve"/>
      <point x="320.4" y="75.6258" type="line"/>
      <point x="319.448" y="65.3138"/>
      <point x="319.054" y="56.5197"/>
      <point x="319.035" y="46.8805" type="curve" smooth="yes"/>
      <point x="319.002" y="29.6969"/>
      <point x="320.174" y="16.1967"/>
      <point x="323.044" y="0" type="curve"/>
      <point x="450.044" y="0" type="line"/>
      <point x="448.373" y="10.9227"/>
      <point x="446.929" y="23.5254"/>
      <point x="446.986" y="44.4526" type="curve" smooth="yes"/>
      <point x="447.082" y="79.423"/>
      <point x="451.363" y="134.888"/>
      <point x="466.313" y="202" type="curve" smooth="yes"/>
      <point x="497.796" y="343.375" type="line" smooth="yes"/>
      <point x="502.67" y="365.242"/>
      <point x="505.191" y="384.704"/>
      <point x="505.191" y="401.929" type="curve" smooth="yes"/>
      <point x="505.191" y="482.354"/>
      <point x="450.211" y="514"/>
      <point x="322.915" y="514" type="curve" smooth="yes"/>
      <point x="190.496" y="514"/>
      <point x="95.2848" y="454"/>
      <point x="77.7888" y="364" type="curve"/>
      <point x="213.793" y="364" type="line"/>
      <point x="222.93" y="411"/>
      <point x="254.249" y="435"/>
      <point x="304.595" y="435" type="curve" smooth="yes"/>
      <point x="348.045" y="435"/>
      <point x="369.089" y="417.759"/>
      <point x="369.089" y="381.63" type="curve" smooth="yes"/>
      <point x="369.089" y="374.253"/>
      <point x="368.212" y="366.09"/>
      <point x="366.469" y="357.125" type="curve" smooth="yes"/>
      <point x="335.341" y="197" type="line" smooth="yes"/>
      <point x="320.761" y="122"/>
      <point x="279.229" y="76"/>
      <point x="224.934" y="76" type="curve" smooth="yes"/>
      <point x="183.053" y="76"/>
      <point x="149.826" y="102.14"/>
      <point x="149.826" y="136.139" type="curve" smooth="yes"/>
      <point x="149.826" y="219.046"/>
      <point x="234.799" y="230"/>
      <point x="295.649" y="230" type="curve" smooth="yes"/>
      <point x="324.632" y="230"/>
      <point x="348.595" y="227.515"/>
      <point x="381.213" y="222.544" type="curve"/>
      <point x="392.45" y="300.81" type="line"/>
      <point x="347.38" y="307.122"/>
      <point x="323.305" y="309"/>
      <point x="285.037" y="309" type="curve" smooth="yes"/>
      <point x="156.48" y="309"/>
      <point x="10.1855" y="263.312"/>
    </contour>
  </outline>
  <guideline angle="90" x="267" y="0"/>
</glyph>
<glyph name="b" format="2">
  <advance width="621"/>
  <unicode hex="0062"/>
  <anchor x="427.75" y="797" name="top"/>
  <outline>
    <contour>
      <point x="20.8287" y="-0.4719" type="line"/>
      <point x="155.829" y="-0.4719" type="line"/>
      <point x="177.407" y="108.305" type="line"/>
      <point x="162.276" y="109.116" type="line"/>
      <point x="223.003" y="422.923" type="line"/>
      <point x="238.06" y="422.949" type="line"/>
      <point x="296.185" y="722" type="line"/>
      <point x="161.185" y="722" type="line"/>
    </contour>
    <contour>
      <point x="146.261" y="75.1935" type="line"/>
      <point x="179.584" y="14.8041"/>
      <point x="227.019" y="-14"/>
      <point x="299.335" y="-14" type="curve" smooth="yes"/>
      <point x="478.243" y="-14"/>
      <point x="581.507" y="162.187"/>
      <point x="581.507" y="319.094" type="curve" smooth="yes"/>
      <point x="581.507" y="443.54"/>
      <point x="516.422" y="514"/>
      <point x="398.161" y="514" type="curve" smooth="yes"/>
      <point x="333.24" y="514"/>
      <point x="286.644" y="492.766"/>
      <point x="214.619" y="429.893" type="curve"/>
    </contour>
    <contour>
      <point x="349.226" y="429" type="curve" smooth="yes"/>
      <point x="406.976" y="429"/>
      <point x="442.914" y="377.626"/>
      <point x="442.914" y="300.899" type="curve" smooth="yes"/>
      <point x="442.914" y="211.572"/>
      <point x="394.203" y="72"/>
      <point x="294.186" y="72" type="curve" smooth="yes"/>
      <point x="233.32" y="72"/>
      <point x="195.97" y="123.688"/>
      <point x="195.97" y="195.875" type="curve" smooth="yes"/>
      <point x="195.97" y="283.289"/>
      <point x="250.738" y="429"/>
    </contour>
  </outline>
  <guideline angle="79.0221" x="238" y="423"/>
</glyph>
<glyph name="c" format="2">
  <advance width="541"/>
  <unicode hex="0063"/>
  <anchor x="335.672" y="600" name="top"/>
  <anchor x="206" y="0" name="b.cedilla"/>
  <outline>
    <contour>
      <point x="36.9368" y="163.864" type="curve" smooth="yes"/>
      <point x="36.9368" y="335.406"/>
      <point x="136.252" y="514"/>
      <point x="326.966" y="514" type="curve" smooth="yes"/>
      <point x="438.468" y="514"/>
      <point x="501.935" y="475.603"/>
      <point x="501.935" y="379.693" type="curve" smooth="yes"/>
      <point x="501.935" y="362.922"/>
      <point x="499.994" y="344.391"/>
      <point x="496.03" y="324" type="curve"/>
      <point x="364.03" y="324" type="line"/>
      <point x="365.26" y="335.882"/>
      <point x="366.108" y="347.484"/>
      <point x="366.108" y="358.372" type="curve" smooth="yes"/>
      <point x="366.108" y="397.884"/>
      <point x="354.934" y="428"/>
      <point x="312.449" y="428" type="curve" smooth="yes"/>
      <point x="205.279" y="428"/>
      <point x="167.929" y="236.359"/>
      <point x="167.929" y="156.125" type="curve" smooth="yes"/>
      <point x="167.929" y="104.313"/>
      <point x="183.504" y="72"/>
      <point x="238.041" y="72" type="curve" smooth="yes"/>
      <point x="302.041" y="72"/>
      <point x="320.4" y="115"/>
      <point x="333.814" y="184" type="curve"/>
      <point x="468.814" y="184" type="line"/>
      <point x="443.736" y="55"/>
      <point x="361.323" y="-14"/>
      <point x="227.323" y="-14" type="curve" smooth="yes"/>
      <point x="102.12" y="-14"/>
      <point x="36.9368" y="47.188"/>
    </contour>
  </outline>
</glyph>
<glyph name="d" format="2">
  <advance width="618"/>
  <unicode hex="0064"/>
  <anchor x="383.225" y="748" name="top"/>
  <anchor x="701.171" y="722" name="caron_TR"/>
  <anchor x="252" y="-50" name="b.commabelow"/>
  <outline>
    <contour>
      <point x="36.2311" y="184.642" type="curve" smooth="yes"/>
      <point x="36.2311" y="66.4572"/>
      <point x="93.9946" y="-14"/>
      <point x="223.521" y="-14" type="curve" smooth="yes"/>
      <point x="279.505" y="-14"/>
      <point x="354.094" y="29.2976"/>
      <point x="390.528" y="84.0467" type="curve"/>
      <point x="458.26" y="434.032" type="line"/>
      <point x="441.156" y="487.111"/>
      <point x="393.602" y="514"/>
      <point x="321.211" y="514" type="curve" smooth="yes"/>
      <point x="137.771" y="514"/>
      <point x="36.231" y="341.336"/>
    </contour>
    <contour>
      <point x="171.761" y="187.66" type="curve" smooth="yes"/>
      <point x="171.761" y="280.663"/>
      <point x="226.316" y="428"/>
      <point x="332.545" y="428" type="curve" smooth="yes"/>
      <point x="400.471" y="428"/>
      <point x="418.13" y="370.016"/>
      <point x="418.13" y="315.127" type="curve" smooth="yes"/>
      <point x="418.13" y="220.623"/>
      <point x="365.785" y="76"/>
      <point x="258.448" y="76" type="curve" smooth="yes"/>
      <point x="193.495" y="76"/>
      <point x="171.761" y="128.959"/>
    </contour>
    <contour>
      <point x="361.829" y="0" type="line"/>
      <point x="496.829" y="0" type="line"/>
      <point x="637.186" y="722" type="line"/>
      <point x="502.186" y="722" type="line"/>
    </contour>
  </outline>
</glyph>
<glyph name="e" format="2">
  <advance width="558"/>
  <unicode hex="0065"/>
  <anchor x="345.672" y="600" name="top"/>
  <anchor x="211.744" y="-89" name="bottom"/>
  <anchor x="220" y="0" name="b.cedilla"/>
  <outline>
    <contour>
      <point x="36.908" y="164.962" type="curve" smooth="yes"/>
      <point x="36.9079" y="339.634"/>
      <point x="143.457" y="514"/>
      <point x="334.966" y="514" type="curve" smooth="yes"/>
      <point x="465.195" y="514"/>
      <point x="518.299" y="438.194"/>
      <point x="518.299" y="333.836" type="curve" smooth="yes"/>
      <point x="518.299" y="310.781"/>
      <point x="515.707" y="286.333"/>
      <point x="510.783" y="261" type="curve" smooth="yes"/>
      <point x="503.395" y="223" type="line"/>
      <point x="146.395" y="223" type="line"/>
      <point x="162.919" y="308" type="line"/>
      <point x="379.919" y="308" type="line"/>
      <point x="382.794" y="322.789"/>
      <point x="384.377" y="336.945"/>
      <point x="384.377" y="350.026" type="curve" smooth="yes"/>
      <point x="384.377" y="396.208"/>
      <point x="364.653" y="429"/>
      <point x="312.442" y="429" type="curve" smooth="yes"/>
      <point x="245.442" y="429"/>
      <point x="210.944" y="375"/>
      <point x="197.919" y="308" type="curve" smooth="yes"/>
      <point x="181.395" y="223" type="line" smooth="yes"/>
      <point x="176.741" y="199.057"/>
      <point x="172.797" y="174.091"/>
      <point x="172.797" y="151.514" type="curve" smooth="yes"/>
      <point x="172.797" y="107.142"/>
      <point x="188.031" y="72"/>
      <point x="243.041" y="72" type="curve" smooth="yes"/>
      <point x="299.041" y="72"/>
      <point x="332.039" y="108"/>
      <point x="347.371" y="156" type="curve"/>
      <point x="483.371" y="156" type="line"/>
      <point x="450.403" y="43"/>
      <point x="363.323" y="-14"/>
      <point x="236.203" y="-14" type="curve" smooth="yes"/>
      <point x="95.6673" y="-14"/>
      <point x="36.908" y="55.6669"/>
    </contour>
  </outline>
  <guideline angle="90" x="279" y="0"/>
</glyph>
<glyph name="f" format="2">
  <advance width="354"/>
  <unicode hex="0066"/>
  <anchor x="269.013" y="810" name="top"/>
  <anchor x="98.9867" y="-75" name="bottom"/>
  <outline>
    <contour>
      <point x="140.345" y="575" type="curve" smooth="yes"/>
      <point x="28.5652" y="0" type="line"/>
      <point x="163.565" y="0" type="line"/>
      <point x="274.762" y="572" type="line" smooth="yes"/>
      <point x="284.676" y="623"/>
      <point x="302.153" y="646"/>
      <point x="350.861" y="646" type="curve" smooth="yes"/>
      <point x="371.173" y="646"/>
      <point x="389.37" y="642"/>
      <point x="406.426" y="632" type="curve"/>
      <point x="422.95" y="717" type="line"/>
      <point x="388.283" y="729"/>
      <point x="356.449" y="735"/>
      <point x="319.568" y="735" type="curve" smooth="yes"/>
      <point x="217.449" y="735"/>
      <point x="162.507" y="689"/>
    </contour>
    <contour>
      <point x="140.765" y="500" type="line"/>
      <point x="35.7652" y="500" type="line"/>
      <point x="19.2412" y="415" type="line"/>
      <point x="124.241" y="415" type="line"/>
    </contour>
    <contour>
      <point x="350.765" y="500" type="line"/>
      <point x="245.765" y="500" type="line"/>
      <point x="229.241" y="415" type="line"/>
      <point x="334.241" y="415" type="line"/>
    </contour>
  </outline>
</glyph>
<glyph name="g" format="2">
  <advance width="624"/>
  <unicode hex="0067"/>
  <anchor x="368" y="590" name="t.cedilla"/>
  <anchor x="360" y="590" name="top"/>
  <outline>
    <contour>
      <point x="37.5956" y="196.229" type="curve" smooth="yes"/>
      <point x="37.5956" y="80.4889"/>
      <point x="94.0299" y="0"/>
      <point x="222.044" y="0" type="curve" smooth="yes"/>
      <point x="288.044" y="0"/>
      <point x="342.181" y="47"/>
      <point x="376.791" y="81" type="curve"/>
      <point x="370.57" y="49" type="line" smooth="yes"/>
      <point x="348.797" y="-63"/>
      <point x="319.077" y="-113"/>
      <point x="228.077" y="-113" type="curve" smooth="yes"/>
      <point x="182.579" y="-113"/>
      <point x="142.808" y="-100.58"/>
      <point x="142.752" y="-63.6841" type="curve" smooth="yes"/>
      <point x="142.747" y="-60.033"/>
      <point x="143.13" y="-56.1422"/>
      <point x="143.936" y="-52" type="curve"/>
      <point x="8.9355" y="-52" type="line"/>
      <point x="6.9853" y="-62.0321"/>
      <point x="6.0619" y="-71.4083"/>
      <point x="6.0619" y="-80.1687" type="curve" smooth="yes"/>
      <point x="6.0619" y="-177.942"/>
      <point x="121.088" y="-199"/>
      <point x="207.359" y="-199" type="curve" smooth="yes"/>
      <point x="355.359" y="-199"/>
      <point x="469.412" y="-137"/>
      <point x="497.016" y="5" type="curve" smooth="yes"/>
      <point x="593.244" y="500" type="line"/>
      <point x="458.244" y="500" type="line"/>
      <point x="449.302" y="454" type="line"/>
      <point x="427.272" y="495"/>
      <point x="393.966" y="514"/>
      <point x="314.966" y="514" type="curve" smooth="yes"/>
      <point x="138.396" y="514"/>
      <point x="37.5956" y="350.911"/>
    </contour>
    <contour>
      <point x="263.763" y="86" type="curve" smooth="yes"/>
      <point x="197.601" y="86"/>
      <point x="173.309" y="139.317"/>
      <point x="173.309" y="201.62" type="curve" smooth="yes"/>
      <point x="173.309" y="292.679"/>
      <point x="225.828" y="428"/>
      <point x="331.247" y="428" type="curve" smooth="yes"/>
      <point x="399.229" y="428"/>
      <point x="416.482" y="370.834"/>
      <point x="416.482" y="315.448" type="curve" smooth="yes"/>
      <point x="416.482" y="224.712"/>
      <point x="371.019" y="86"/>
    </contour>
  </outline>
</glyph>
<glyph name="h" format="2">
  <advance width="589"/>
  <unicode hex="0068"/>
  <anchor x="399" y="796" name="top"/>
  <anchor x="198.056" y="-76" name="bottom"/>
  <anchor x="72" y="0" name="b.cedilla"/>
  <outline>
    <contour>
      <point x="191.136" y="279.357" type="line"/>
      <point x="211.066" y="279" type="line"/>
      <point x="229.923" y="376"/>
      <point x="278.809" y="432"/>
      <point x="346.809" y="432" type="curve" smooth="yes"/>
      <point x="393.134" y="432"/>
      <point x="415.88" y="405.772"/>
      <point x="415.88" y="352.856" type="curve" smooth="yes"/>
      <point x="415.88" y="337.234"/>
      <point x="413.898" y="319.286"/>
      <point x="409.954" y="299" type="curve" smooth="yes"/>
      <point x="351.829" y="0" type="line"/>
      <point x="487.829" y="0" type="line"/>
      <point x="553.73" y="339" type="line" smooth="yes"/>
      <point x="557.089" y="356.275"/>
      <point x="558.745" y="372.385"/>
      <point x="558.745" y="387.278" type="curve" smooth="yes"/>
      <point x="558.745" y="468.936"/>
      <point x="508.938" y="514"/>
      <point x="416.75" y="514" type="curve" smooth="yes"/>
      <point x="346.75" y="514"/>
      <point x="290.926" y="487.81"/>
      <point x="241.004" y="433" type="curve" smooth="yes"/>
      <point x="215.577" y="405.083" type="line"/>
    </contour>
    <contour>
      <point x="20.8287" y="0" type="line"/>
      <point x="156.829" y="0" type="line"/>
      <point x="297.185" y="722" type="line"/>
      <point x="161.185" y="722" type="line"/>
    </contour>
  </outline>
  <guideline angle="90" x="160" y="0"/>
  <guideline angle="90" x="186" y="0"/>
</glyph>
<glyph name="k" format="2">
  <advance width="546"/>
  <unicode hex="006B"/>
  <anchor x="339.75" y="797" name="top"/>
  <anchor x="245" y="-50" name="b.commabelow"/>
  <outline>
    <contour>
      <point x="20.8287" y="0" type="line"/>
      <point x="156.829" y="0" type="line"/>
      <point x="297.185" y="722" type="line"/>
      <point x="161.185" y="722" type="line"/>
    </contour>
    <contour>
      <point x="503.829" y="0" type="line"/>
      <point x="358.142" y="293.876" type="line"/>
      <point x="353.564" y="274.781" type="line"/>
      <point x="585.029" y="500" type="line"/>
      <point x="423.029" y="500" type="line"/>
      <point x="209.498" y="282.853" type="line"/>
      <point x="339.829" y="0" type="line"/>
    </contour>
  </outline>
  <guideline angle="231.761" x="312" y="500"/>
  <guideline angle="50.1944" x="294" y="284"/>
  <guideline angle="124.611" x="490" y="0"/>
  <guideline angle="303.173" x="141" y="283"/>
  <guideline angle="90" x="155" y="0"/>
  <guideline angle="90" x="20" y="0"/>
</glyph>
<glyph name="l" format="2">
  <advance width="278"/>
  <unicode hex="006C"/>
  <anchor x="243.75" y="797" name="top"/>
  <anchor x="291.171" y="722" name="lcaron"/>
  <anchor x="42" y="-50" name="b.commabelow"/>
  <outline>
    <contour>
      <point x="20.8287" y="0" type="line"/>
      <point x="156.829" y="0" type="line"/>
      <point x="297.185" y="722" type="line"/>
      <point x="161.185" y="722" type="line"/>
    </contour>
  </outline>
  <guideline angle="90" x="159" y="0"/>
</glyph>
<glyph name="m" format="2">
  <advance width="906"/>
  <unicode hex="006D"/>
  <outline>
    <contour>
      <point x="536.531" y="280.28" type="line"/>
      <point x="538.42" y="290" type="line" smooth="yes"/>
      <point x="553.166" y="365.853"/>
      <point x="612.178" y="429"/>
      <point x="667.442" y="429" type="curve" smooth="yes"/>
      <point x="708.415" y="429"/>
      <point x="735.022" y="395.481"/>
      <point x="735.022" y="347.673" type="curve" smooth="yes"/>
      <point x="735.022" y="338.891"/>
      <point x="734.124" y="329.627"/>
      <point x="732.252" y="320" type="curve" smooth="yes"/>
      <point x="670.044" y="0" type="line"/>
      <point x="806.044" y="0" type="line"/>
      <point x="870.002" y="329" type="line" smooth="yes"/>
      <point x="873.495" y="346.969"/>
      <point x="875.204" y="363.829"/>
      <point x="875.204" y="379.49" type="curve" smooth="yes"/>
      <point x="875.204" y="464.358"/>
      <point x="825.005" y="514"/>
      <point x="736.474" y="514" type="curve" smooth="yes"/>
      <point x="661.181" y="514"/>
      <point x="591.094" y="478.094"/>
      <point x="538.747" y="416.191" type="curve"/>
      <point x="512.526" y="279.887" type="line"/>
    </contour>
    <contour>
      <point x="239.053" y="427" type="curve" smooth="yes"/>
      <point x="213.608" y="398.99" type="line"/>
      <point x="192.188" y="288.805" type="line"/>
      <point x="212.226" y="289" type="line"/>
      <point x="226.806" y="364"/>
      <point x="288.192" y="429"/>
      <point x="344.442" y="429" type="curve" smooth="yes"/>
      <point x="385.435" y="429"/>
      <point x="411.148" y="396.322"/>
      <point x="411.148" y="348.786" type="curve" smooth="yes"/>
      <point x="411.148" y="339.693"/>
      <point x="410.207" y="330.056"/>
      <point x="408.252" y="320" type="curve" smooth="yes"/>
      <point x="346.044" y="0" type="line"/>
      <point x="482.044" y="0" type="line"/>
      <point x="558.137" y="391.422" type="line"/>
      <point x="552.127" y="462.822"/>
      <point x="491.759" y="514"/>
      <point x="417.414" y="514" type="curve" smooth="yes"/>
      <point x="355.876" y="514"/>
      <point x="286.528" y="478.936"/>
    </contour>
    <contour>
      <point x="20.0443" y="0" type="line"/>
      <point x="156.044" y="0" type="line"/>
      <point x="253.212" y="499.833" type="line"/>
      <point x="117.212" y="499.833" type="line"/>
    </contour>
  </outline>
</glyph>
<glyph name="n" format="2">
  <advance width="588"/>
  <unicode hex="006E"/>
  <anchor x="366" y="580" name="top"/>
  <anchor x="238" y="-50" name="b.commabelow"/>
  <anchor x="238" y="-80" name="bottom"/>
  <outline>
    <contour>
      <point x="20.4049" y="0" type="line"/>
      <point x="156.405" y="0" type="line"/>
      <point x="253.605" y="500" type="line"/>
      <point x="117.605" y="500" type="line"/>
    </contour>
    <contour>
      <point x="190.351" y="279.357" type="line"/>
      <point x="210.282" y="279" type="line"/>
      <point x="229.139" y="376"/>
      <point x="278.025" y="432"/>
      <point x="346.025" y="432" type="curve" smooth="yes"/>
      <point x="392.349" y="432"/>
      <point x="415.096" y="405.772"/>
      <point x="415.096" y="352.856" type="curve" smooth="yes"/>
      <point x="415.096" y="337.234"/>
      <point x="413.113" y="319.286"/>
      <point x="409.17" y="299" type="curve" smooth="yes"/>
      <point x="351.044" y="0" type="line"/>
      <point x="487.044" y="0" type="line"/>
      <point x="552.946" y="339" type="line" smooth="yes"/>
      <point x="556.304" y="356.275"/>
      <point x="557.961" y="372.385"/>
      <point x="557.961" y="387.278" type="curve" smooth="yes"/>
      <point x="557.961" y="468.936"/>
      <point x="508.153" y="514"/>
      <point x="415.966" y="514" type="curve" smooth="yes"/>
      <point x="345.966" y="514"/>
      <point x="290.141" y="487.81"/>
      <point x="240.219" y="433" type="curve" smooth="yes"/>
      <point x="214.792" y="405.083" type="line"/>
    </contour>
  </outline>
  <guideline angle="78.9106" x="252.392" y="0"/>
</glyph>
<glyph name="o" format="2">
  <advance width="604"/>
  <unicode hex="006F"/>
  <anchor x="368.672" y="600" name="top"/>
  <anchor x="237.466" y="-75" name="bottom"/>
  <anchor x="368.672" y="600" name="tonos.top"/>
  <anchor x="220" y="0" name="b.cedilla"/>
  <outline>
    <contour>
      <point x="36.5513" y="196.142" type="curve" smooth="yes"/>
      <point x="36.5513" y="66.7657"/>
      <point x="118.013" y="-14"/>
      <point x="250.323" y="-14" type="curve" smooth="yes"/>
      <point x="429.597" y="-14"/>
      <point x="564.839" y="136.802"/>
      <point x="564.839" y="304.639" type="curve" smooth="yes"/>
      <point x="564.839" y="433.64"/>
      <point x="484.943" y="514"/>
      <point x="352.966" y="514" type="curve" smooth="yes"/>
      <point x="174.31" y="514"/>
      <point x="36.5513" y="364.384"/>
    </contour>
    <contour>
      <point x="335.247" y="428" type="curve" smooth="yes"/>
      <point x="397.708" y="428"/>
      <point x="430.634" y="388.618"/>
      <point x="430.634" y="310.009" type="curve" smooth="yes"/>
      <point x="430.634" y="216.119"/>
      <point x="383.662" y="72"/>
      <point x="266.041" y="72" type="curve" smooth="yes"/>
      <point x="203.581" y="72"/>
      <point x="170.655" y="111.382"/>
      <point x="170.655" y="189.991" type="curve" smooth="yes"/>
      <point x="170.655" y="283.881"/>
      <point x="217.626" y="428"/>
    </contour>
  </outline>
  <guideline angle="90" x="302" y="0"/>
</glyph>
<glyph name="p" format="2">
  <advance width="602"/>
  <unicode hex="0070"/>
  <outline>
    <contour>
      <point x="-39.4469" y="-198" type="line"/>
      <point x="95.5531" y="-198" type="line"/>
      <point x="218.025" y="432" type="line" smooth="yes"/>
      <point x="222.355" y="454.275"/>
      <point x="225.872" y="477.56"/>
      <point x="228.244" y="500" type="curve"/>
      <point x="92.2442" y="500" type="line"/>
      <point x="88.0849" y="466.586"/>
      <point x="83.0643" y="431.934"/>
      <point x="76.6098" y="398.746" type="curve" smooth="yes"/>
    </contour>
    <contour>
      <point x="127.477" y="75.1935" type="line"/>
      <point x="160.799" y="14.8041"/>
      <point x="208.235" y="-14"/>
      <point x="280.551" y="-14" type="curve" smooth="yes"/>
      <point x="459.459" y="-14"/>
      <point x="562.723" y="162.187"/>
      <point x="562.723" y="319.094" type="curve" smooth="yes"/>
      <point x="562.723" y="443.54"/>
      <point x="497.637" y="514"/>
      <point x="379.376" y="514" type="curve" smooth="yes"/>
      <point x="314.455" y="514"/>
      <point x="267.86" y="492.766"/>
      <point x="195.834" y="429.893" type="curve"/>
    </contour>
    <contour>
      <point x="177.185" y="195.875" type="curve" smooth="yes"/>
      <point x="177.185" y="283.289"/>
      <point x="231.954" y="429"/>
      <point x="330.442" y="429" type="curve" smooth="yes"/>
      <point x="388.192" y="429"/>
      <point x="424.13" y="377.626"/>
      <point x="424.13" y="300.899" type="curve" smooth="yes"/>
      <point x="424.13" y="211.572"/>
      <point x="375.419" y="72"/>
      <point x="275.401" y="72" type="curve" smooth="yes"/>
      <point x="214.536" y="72"/>
      <point x="177.185" y="123.688"/>
    </contour>
  </outline>
</glyph>
<glyph name="q" format="2">
  <advance width="626"/>
  <unicode hex="0071"/>
  <anchor x="340.672" y="600" name="top"/>
  <outline>
    <contour>
      <point x="36.4466" y="184.642" type="curve" smooth="yes"/>
      <point x="36.4466" y="66.4572"/>
      <point x="94.2102" y="-14"/>
      <point x="223.736" y="-14" type="curve" smooth="yes"/>
      <point x="279.72" y="-14"/>
      <point x="354.309" y="29.2976"/>
      <point x="390.744" y="84.0467" type="curve"/>
      <point x="458.476" y="434.032" type="line"/>
      <point x="441.372" y="487.111"/>
      <point x="393.817" y="514"/>
      <point x="321.427" y="514" type="curve" smooth="yes"/>
      <point x="137.986" y="514"/>
      <point x="36.4466" y="341.336"/>
    </contour>
    <contour>
      <point x="171.977" y="187.66" type="curve" smooth="yes"/>
      <point x="171.977" y="280.663"/>
      <point x="226.531" y="428"/>
      <point x="332.76" y="428" type="curve" smooth="yes"/>
      <point x="400.687" y="428"/>
      <point x="418.346" y="370.016"/>
      <point x="418.346" y="315.127" type="curve" smooth="yes"/>
      <point x="418.346" y="220.623"/>
      <point x="366.001" y="76"/>
      <point x="258.664" y="76" type="curve" smooth="yes"/>
      <point x="193.711" y="76"/>
      <point x="171.977" y="128.959"/>
    </contour>
    <contour>
      <point x="460.234" y="500" type="line"/>
      <point x="324.168" y="-200" type="line"/>
      <point x="459.168" y="-200" type="line"/>
      <point x="595.234" y="500" type="line"/>
    </contour>
  </outline>
</glyph>
<glyph name="r" format="2">
  <advance width="405"/>
  <unicode hex="0072"/>
  <anchor x="236.785" y="580" name="top"/>
  <anchor x="45" y="-50" name="b.commabelow"/>
  <outline>
    <component base="dotlessi" xOffset="-10"/>
    <contour>
      <point x="237.122" y="422.209" type="curve" smooth="yes"/>
      <point x="209.929" y="385.21" type="line"/>
      <point x="184.611" y="254.974" type="line"/>
      <point x="204.616" y="255" type="line"/>
      <point x="223.667" y="353"/>
      <point x="301.415" y="398"/>
      <point x="403.415" y="398" type="curve"/>
      <point x="425.966" y="514" type="line"/>
      <point x="343.375" y="514"/>
      <point x="282.739" y="484.413"/>
    </contour>
  </outline>
  <guideline angle="90" x="155" y="0"/>
</glyph>
<glyph name="s" format="2">
  <advance width="523"/>
  <unicode hex="0073"/>
  <anchor x="200" y="0" name="b.cedilla"/>
  <anchor x="165" y="-50" name="b.commabelow"/>
  <outline>
    <contour>
      <point x="20.9819" y="154" type="line"/>
      <point x="18.2616" y="140.007"/>
      <point x="16.9692" y="127.041"/>
      <point x="16.9692" y="115.049" type="curve" smooth="yes"/>
      <point x="16.9692" y="19.9115"/>
      <point x="98.3008" y="-14"/>
      <point x="189.67" y="-14" type="curve" smooth="yes"/>
      <point x="312.5" y="-14"/>
      <point x="451.998" y="47.2841"/>
      <point x="451.998" y="184.185" type="curve" smooth="yes"/>
      <point x="451.998" y="268.804"/>
      <point x="372.018" y="293.935"/>
      <point x="294.503" y="311" type="curve" smooth="yes"/>
      <point x="278.896" y="314.632" type="line" smooth="yes"/>
      <point x="230.931" y="326.615"/>
      <point x="205.742" y="341.577"/>
      <point x="205.742" y="371.955" type="curve" smooth="yes"/>
      <point x="205.742" y="406.884"/>
      <point x="239.045" y="428"/>
      <point x="274.247" y="428" type="curve" smooth="yes"/>
      <point x="325.417" y="428"/>
      <point x="345.561" y="413.992"/>
      <point x="345.561" y="375.916" type="curve" smooth="yes"/>
      <point x="345.561" y="369.345"/>
      <point x="344.986" y="362.057"/>
      <point x="343.862" y="354" type="curve"/>
      <point x="478.862" y="354" type="line"/>
      <point x="481.761" y="368.914"/>
      <point x="483.142" y="382.537"/>
      <point x="483.142" y="394.965" type="curve" smooth="yes"/>
      <point x="483.142" y="487.855"/>
      <point x="405.986" y="514"/>
      <point x="308.966" y="514" type="curve" smooth="yes"/>
      <point x="202.841" y="514"/>
      <point x="72.3012" y="455.215"/>
      <point x="72.3012" y="342.12" type="curve" smooth="yes"/>
      <point x="72.3012" y="249.809"/>
      <point x="159.269" y="222.789"/>
      <point x="235.527" y="206.171" type="curve" smooth="yes"/>
      <point x="255.313" y="202" type="line" smooth="yes"/>
      <point x="285.782" y="195.66"/>
      <point x="318.28" y="178.654"/>
      <point x="318.28" y="143.238" type="curve" smooth="yes"/>
      <point x="318.28" y="99.3056"/>
      <point x="268.272" y="72"/>
      <point x="227.041" y="72" type="curve" smooth="yes"/>
      <point x="174.696" y="72"/>
      <point x="152.824" y="87.6727"/>
      <point x="152.824" y="125.427" type="curve" smooth="yes"/>
      <point x="152.824" y="133.833"/>
      <point x="153.908" y="143.334"/>
      <point x="155.982" y="154" type="curve"/>
    </contour>
  </outline>
  <guideline angle="0" x="0" y="259"/>
</glyph>
<glyph name="t" format="2">
  <advance width="372"/>
  <unicode hex="0074"/>
  <anchor x="242.461" y="722" name="top"/>
  <anchor x="130" y="0" name="b.cedilla"/>
  <anchor x="92" y="-50" name="b.commabelow"/>
  <outline>
    <contour>
      <point x="43.2516" y="119" type="line" smooth="yes"/>
      <point x="41.5889" y="110.447"/>
      <point x="40.7907" y="102.244"/>
      <point x="40.7907" y="94.4104" type="curve" smooth="yes"/>
      <point x="40.7907" y="26.2259"/>
      <point x="101.259" y="-14"/>
      <point x="178.396" y="-14" type="curve" smooth="yes"/>
      <point x="215.396" y="-14"/>
      <point x="250.563" y="-8"/>
      <point x="283.701" y="3" type="curve"/>
      <point x="300.225" y="88" type="line"/>
      <point x="284.059" y="82"/>
      <point x="266.476" y="79"/>
      <point x="248.476" y="79" type="curve" smooth="yes"/>
      <point x="207.441" y="79"/>
      <point x="183.54" y="99.4632"/>
      <point x="183.54" y="136.641" type="curve" smooth="yes"/>
      <point x="183.54" y="142.952"/>
      <point x="184.228" y="149.744"/>
      <point x="185.639" y="157" type="curve" smooth="yes"/>
      <point x="280.895" y="647" type="line"/>
      <point x="132.287" y="577" type="line"/>
    </contour>
    <contour>
      <point x="220.794" y="415" type="line"/>
      <point x="354.794" y="415" type="line"/>
      <point x="371.318" y="500" type="line"/>
      <point x="237.318" y="500" type="line"/>
    </contour>
    <contour>
      <point x="0.793972" y="415" type="line"/>
      <point x="115.794" y="415" type="line"/>
      <point x="132.318" y="500" type="line"/>
      <point x="17.318" y="500" type="line"/>
    </contour>
  </outline>
  <guideline angle="207.408" x="218" y="647"/>
</glyph>
<glyph name="u" format="2">
  <advance width="589"/>
  <unicode hex="0075"/>
  <anchor x="354.033" y="600" name="top"/>
  <anchor x="220.494" y="-87" name="bottom"/>
  <outline>
    <contour>
      <point x="35.3145" y="159" type="line" smooth="yes"/>
      <point x="32.0714" y="142.317"/>
      <point x="30.4645" y="126.716"/>
      <point x="30.4645" y="112.251" type="curve" smooth="yes"/>
      <point x="30.4645" y="31.3399"/>
      <point x="80.7433" y="-14"/>
      <point x="176.171" y="-14" type="curve" smooth="yes"/>
      <point x="246.828" y="-14"/>
      <point x="297.712" y="10.8562"/>
      <point x="348.624" y="68" type="curve" smooth="yes"/>
      <point x="374.206" y="96.7129" type="line"/>
      <point x="398.393" y="221.131" type="line"/>
      <point x="378.367" y="221" type="line"/>
      <point x="359.511" y="124"/>
      <point x="310.43" y="67"/>
      <point x="242.43" y="67" type="curve" smooth="yes"/>
      <point x="196.557" y="67"/>
      <point x="173.386" y="93.598"/>
      <point x="173.386" y="146.794" type="curve" smooth="yes"/>
      <point x="173.386" y="162.018"/>
      <point x="175.284" y="179.42"/>
      <point x="179.091" y="199" type="curve" smooth="yes"/>
      <point x="237.605" y="500" type="line"/>
      <point x="101.605" y="500" type="line"/>
    </contour>
    <contour>
      <point x="471.405" y="0" type="line"/>
      <point x="568.605" y="500" type="line"/>
      <point x="432.605" y="500" type="line"/>
      <point x="335.405" y="0" type="line"/>
    </contour>
  </outline>
  <guideline angle="90" x="286" y="0"/>
</glyph>
<glyph name="v" format="2">
  <advance width="515"/>
  <unicode hex="0076"/>
  <anchor x="318.146" y="580" name="top"/>
  <outline>
    <contour>
      <point x="564.605" y="500" type="line"/>
      <point x="420.605" y="500" type="line"/>
      <point x="228.706" y="139.632" type="line"/>
      <point x="236.393" y="139.632" type="line"/>
      <point x="184.605" y="500" type="line"/>
      <point x="40.6049" y="500" type="line"/>
      <point x="130.405" y="0" type="line"/>
      <point x="280.405" y="0" type="line"/>
    </contour>
  </outline>
  <guideline angle="90" x="254" y="0"/>
  <guideline angle="110.506" x="179" y="0"/>
  <guideline angle="288.721" x="136" y="500"/>
  <guideline angle="71.2791" x="250" y="140"/>
  <guideline angle="249.494" x="516" y="500"/>
  <guideline angle="0" x="0" y="21"/>
</glyph>
<glyph name="w" format="2">
  <advance width="827"/>
  <unicode hex="0077"/>
  <anchor x="474.146" y="580" name="top"/>
  <outline>
    <contour>
      <point x="876.605" y="500" type="line"/>
      <point x="737.605" y="500" type="line"/>
      <point x="570.861" y="158.478" type="line"/>
      <point x="578.674" y="157.565" type="line"/>
      <point x="536.605" y="500" type="line"/>
      <point x="380.605" y="500" type="line"/>
      <point x="205.591" y="158.565" type="line"/>
      <point x="212.565" y="158.478" type="line"/>
      <point x="179.605" y="500" type="line"/>
      <point x="40.6049" y="500" type="line"/>
      <point x="96.4049" y="0" type="line"/>
      <point x="256.405" y="0" type="line"/>
      <point x="435.128" y="361.494" type="line"/>
      <point x="428.231" y="361.494" type="line"/>
      <point x="466.405" y="0" type="line"/>
      <point x="626.405" y="0" type="line"/>
    </contour>
  </outline>
  <guideline angle="107.014" x="145" y="0"/>
  <guideline angle="286.22" x="131" y="500"/>
  <guideline angle="72.3499" x="227" y="170"/>
  <guideline angle="253.301" x="410" y="350"/>
  <guideline angle="106.699" x="515" y="0"/>
  <guideline angle="287.65" x="488" y="500"/>
  <guideline angle="73.7798" x="593" y="170"/>
  <guideline angle="252.986" x="828" y="500"/>
  <guideline angle="90" x="206" y="0"/>
  <guideline angle="90" x="410" y="0"/>
  <guideline angle="90" x="593" y="0"/>
  <guideline angle="0" x="0" y="19"/>
  <guideline angle="0" x="0" y="485"/>
</glyph>
<glyph name="x" format="2">
  <advance width="558"/>
  <unicode hex="0078"/>
  <outline>
    <contour>
      <point x="487.405" y="0" type="line"/>
      <point x="234.605" y="500" type="line"/>
      <point x="74.6049" y="500" type="line"/>
      <point x="327.405" y="0" type="line"/>
    </contour>
    <contour>
      <point x="201.232" y="280.495" type="line"/>
      <point x="-39.5951" y="0" type="line"/>
      <point x="110.405" y="0" type="line"/>
      <point x="260.307" y="191.938" type="line"/>
    </contour>
    <contour>
      <point x="353.651" y="255.602" type="line"/>
      <point x="567.605" y="500" type="line"/>
      <point x="417.605" y="500" type="line"/>
      <point x="293.995" y="340.015" type="line"/>
    </contour>
  </outline>
  <guideline angle="124.992" x="536" y="0"/>
  <guideline angle="59.5214" x="159" y="0"/>
  <guideline angle="236.404" x="195" y="280"/>
  <guideline angle="55.7715" x="353" y="256"/>
  <guideline angle="239.833" x="369" y="500"/>
  <guideline angle="90" x="213" y="0"/>
</glyph>
<glyph name="y" format="2">
  <advance width="495"/>
  <unicode hex="0079"/>
  <outline>
    <contour>
      <point x="20.5249" y="-200" type="line"/>
      <point x="168.525" y="-200" type="line"/>
      <point x="554.605" y="500" type="line"/>
      <point x="411.605" y="500" type="line"/>
    </contour>
    <contour>
      <point x="241.809" y="165.912" type="line"/>
      <point x="184.605" y="500" type="line"/>
      <point x="31.6049" y="500" type="line"/>
      <point x="137.268" y="-13.9271" type="line"/>
    </contour>
  </outline>
  <guideline angle="249.984" x="363" y="500"/>
  <guideline angle="70.3462" x="256" y="-200"/>
  <guideline angle="110.066" x="258" y="166"/>
  <guideline angle="291.84" x="-17" y="500"/>
  <guideline angle="69.0265" x="189" y="-14"/>
</glyph>
<glyph name="z" format="2">
  <advance width="473"/>
  <unicode hex="007A"/>
  <anchor x="290" y="0" name="b.cedilla"/>
  <outline>
    <contour>
      <point x="408.405" y="0" type="line"/>
      <point x="424.929" y="85" type="line"/>
      <point x="134.929" y="85" type="line"/>
      <point x="137.358" y="75.8785" type="line"/>
      <point x="472.193" y="395" type="line"/>
      <point x="492.605" y="500" type="line"/>
      <point x="92.6049" y="500" type="line"/>
      <point x="76.0809" y="415" type="line"/>
      <point x="348.081" y="415" type="line"/>
      <point x="345.651" y="424.121" type="line"/>
      <point x="10.8169" y="105" type="line"/>
      <point x="-9.59509" y="0" type="line"/>
    </contour>
  </outline>
  <guideline angle="49.4431" x="39" y="105"/>
  <guideline angle="229.443" x="444" y="395"/>
  <guideline angle="49.4431" x="39" y="105"/>
</glyph>
<glyph name="braceleft" format="2">
  <advance width="512"/>
  <unicode hex="007B"/>
  <outline>
    <contour>
      <point x="109.597" y="-65" type="curve" smooth="yes"/>
      <point x="138.119" y="56" type="line" smooth="yes"/>
      <point x="140.974" y="68.1124"/>
      <point x="141.62" y="79.9228"/>
      <point x="141.62" y="88.6435" type="curve" smooth="yes"/>
      <point x="141.62" y="161.021"/>
      <point x="97.1057" y="208.235"/>
      <point x="38.2231" y="216" type="curve"/>
      <point x="54.5527" y="302" type="line"/>
      <point x="149.274" y="315.923"/>
      <point x="200.228" y="353.957"/>
      <point x="216.268" y="459.134" type="curve" smooth="yes"/>
      <point x="234.013" y="575.493" type="line" smooth="yes"/>
      <point x="259.523" y="743.203"/>
      <point x="368.782" y="759"/>
      <point x="514.782" y="759" type="curve"/>
      <point x="496.509" y="665" type="line"/>
      <point x="431.509" y="665"/>
      <point x="373.641" y="664.782"/>
      <point x="361.207" y="576.488" type="curve" smooth="yes"/>
      <point x="348.322" y="484.992" type="line" smooth="yes"/>
      <point x="331.508" y="365.594"/>
      <point x="310.469" y="316.918"/>
      <point x="183.777" y="261.048" type="curve"/>
      <point x="258.45" y="219.59"/>
      <point x="275.009" y="160.82"/>
      <point x="275.009" y="117.942" type="curve" smooth="yes"/>
      <point x="275.009" y="105.758"/>
      <point x="273.83" y="94.8188"/>
      <point x="271.951" y="86" type="curve" smooth="yes"/>
      <point x="237.653" y="-75" type="line" smooth="yes"/>
      <point x="236.013" y="-82.6985"/>
      <point x="235.433" y="-89.6125"/>
      <point x="235.433" y="-95.7491" type="curve" smooth="yes"/>
      <point x="235.433" y="-145.209"/>
      <point x="282.025" y="-146"/>
      <point x="339.85" y="-146" type="curve"/>
      <point x="321.577" y="-240" type="line"/>
      <point x="194.009" y="-240"/>
      <point x="103.786" y="-228.548"/>
      <point x="103.786" y="-115.509" type="curve" smooth="yes"/>
      <point x="103.786" y="-103.089"/>
      <point x="104.875" y="-85.0292"/>
    </contour>
  </outline>
  <guideline angle="0" x="0" y="260"/>
</glyph>
<glyph name="bar" format="2">
  <advance width="381"/>
  <unicode hex="007C"/>
  <outline>
    <contour>
      <point x="155.487" y="-258" type="line"/>
      <point x="360.363" y="796" type="line"/>
      <point x="225.363" y="796" type="line"/>
      <point x="20.4865" y="-258" type="line"/>
    </contour>
  </outline>
</glyph>
<glyph name="asciitilde" format="2">
  <advance width="533"/>
  <unicode hex="007E"/>
  <outline>
    <contour>
      <point x="561.615" y="315" type="curve"/>
      <point x="473.615" y="315" type="line"/>
      <point x="456.784" y="285"/>
      <point x="434.451" y="273"/>
      <point x="395.451" y="273" type="curve" smooth="yes"/>
      <point x="331.69" y="273"/>
      <point x="264.234" y="313"/>
      <point x="183.226" y="313" type="curve" smooth="yes"/>
      <point x="108.226" y="313"/>
      <point x="41.6734" y="269"/>
      <point x="5.28929" y="195" type="curve"/>
      <point x="96.2893" y="195" type="line"/>
      <point x="111.315" y="226"/>
      <point x="132.648" y="238"/>
      <point x="175.648" y="238" type="curve" smooth="yes"/>
      <point x="237.694" y="238"/>
      <point x="303.437" y="198"/>
      <point x="382.872" y="198" type="curve" smooth="yes"/>
      <point x="456.872" y="198"/>
      <point x="526.814" y="244"/>
    </contour>
  </outline>
</glyph>
<glyph name="sterling" format="2">
  <advance width="573"/>
  <unicode hex="00A3"/>
  <outline>
    <contour>
      <point x="71.0747" y="70.8235" type="line"/>
      <point x="206.075" y="70.8235" type="line"/>
      <point x="300.155" y="554" type="line" smooth="yes"/>
      <point x="312.789" y="618.364"/>
      <point x="345.01" y="650"/>
      <point x="397.01" y="650" type="curve" smooth="yes"/>
      <point x="436.863" y="650"/>
      <point x="457.111" y="631.034"/>
      <point x="457.111" y="592.57" type="curve" smooth="yes"/>
      <point x="457.111" y="583.742"/>
      <point x="456.045" y="573.888"/>
      <point x="453.904" y="563" type="curve"/>
      <point x="588.904" y="563" type="line"/>
      <point x="592.558" y="581.582"/>
      <point x="594.32" y="598.266"/>
      <point x="594.32" y="613.225" type="curve" smooth="yes"/>
      <point x="594.32" y="710.274"/>
      <point x="522.224" y="736"/>
      <point x="411.532" y="736" type="curve" smooth="yes"/>
      <point x="278.532" y="736"/>
      <point x="190.035" y="681.365"/>
      <point x="165.932" y="558" type="curve" smooth="yes"/>
    </contour>
    <contour>
      <point x="494.99" y="86" type="line"/>
      <point x="0.990387" y="86" type="line"/>
      <point x="-15.5319" y="0" type="line"/>
      <point x="478.468" y="0" type="line"/>
    </contour>
    <contour>
      <point x="72.1336" y="451" type="line"/>
      <point x="55.8056" y="365" type="line"/>
      <point x="398.806" y="365" type="line"/>
      <point x="415.134" y="451" type="line"/>
    </contour>
  </outline>
</glyph>
<glyph name="currency" format="2">
  <advance width="609"/>
  <unicode hex="00A4"/>
  <outline>
    <contour>
      <point x="39.2626" y="374.43" type="curve" smooth="yes"/>
      <point x="39.2626" y="247.887"/>
      <point x="133.619" y="151.8"/>
      <point x="266.627" y="151.8" type="curve" smooth="yes"/>
      <point x="434.979" y="151.8"/>
      <point x="598.606" y="310.158"/>
      <point x="598.606" y="479.893" type="curve" smooth="yes"/>
      <point x="598.606" y="604.338"/>
      <point x="505.156" y="701.7"/>
      <point x="374.817" y="701.7" type="curve" smooth="yes"/>
      <point x="201.61" y="701.7"/>
      <point x="39.2627" y="549.873"/>
    </contour>
    <contour>
      <point x="346.747" y="566.55" type="curve" smooth="yes"/>
      <point x="412.748" y="566.55"/>
      <point x="459.08" y="515.962"/>
      <point x="459.08" y="453.276" type="curve" smooth="yes"/>
      <point x="459.08" y="369.051"/>
      <point x="376.219" y="288.45"/>
      <point x="292.689" y="288.45" type="curve" smooth="yes"/>
      <point x="225.04" y="288.45"/>
      <point x="176.683" y="337.013"/>
      <point x="176.683" y="401.152" type="curve" smooth="yes"/>
      <point x="176.683" y="488.595"/>
      <point x="260.561" y="566.55"/>
    </contour>
    <contour>
      <point x="262.188" y="637.219" type="line"/>
      <point x="155.771" y="763.2" type="line"/>
      <point x="29.406" y="657.4" type="line"/>
      <point x="135.823" y="531.419" type="line"/>
    </contour>
    <contour>
      <point x="544.242" y="533.725" type="line"/>
      <point x="686.244" y="657.297" type="line"/>
      <point x="600.379" y="763.242" type="line"/>
      <point x="455.244" y="636.328" type="line"/>
    </contour>
    <contour>
      <point x="386.946" y="203.048" type="line"/>
      <point x="475.891" y="92.6429" type="line"/>
      <point x="600.509" y="201.069" type="line"/>
      <point x="511.564" y="311.475" type="line"/>
    </contour>
    <contour>
      <point x="90.5867" y="328.106" type="line"/>
      <point x="-72.6915" y="195.13" type="line"/>
      <point x="19.3206" y="93.33" type="line"/>
      <point x="182.599" y="226.306" type="line"/>
    </contour>
  </outline>
  <guideline angle="136.115" x="213" y="637"/>
  <guideline angle="226.623" x="526" y="763"/>
  <guideline angle="46.1885" x="515" y="534"/>
  <guideline angle="316.115" x="-24" y="657"/>
  <guideline angle="225" x="82" y="763"/>
  <guideline angle="135.269" x="633" y="657"/>
  <guideline angle="46.0809" x="532" y="93"/>
  <guideline angle="317.42" x="-36" y="195"/>
  <guideline angle="90" x="312" y="0"/>
  <guideline angle="0" x="0" y="431"/>
</glyph>
<glyph name="yen" format="2">
  <advance width="573"/>
  <unicode hex="00A5"/>
  <outline>
    <contour>
      <point x="642.171" y="722" type="line"/>
      <point x="493.171" y="722" type="line"/>
      <point x="291.232" y="408.052" type="line"/>
      <point x="301.06" y="408.052" type="line"/>
      <point x="221.171" y="722" type="line"/>
      <point x="72.1713" y="722" type="line"/>
      <point x="200.7" y="272" type="line"/>
      <point x="202.7" y="272" type="line"/>
      <point x="149.829" y="0" type="line"/>
      <point x="283.829" y="0" type="line"/>
      <point x="336.7" y="272" type="line"/>
      <point x="338.7" y="272" type="line"/>
    </contour>
    <contour>
      <point x="198.529" y="338" type="line"/>
      <point x="8.52925" y="338" type="line"/>
      <point x="-4.29985" y="272" type="line"/>
      <point x="217.7" y="272" type="line"/>
    </contour>
    <contour>
      <point x="321.7" y="272" type="line"/>
      <point x="543.7" y="272" type="line"/>
      <point x="556.529" y="338" type="line"/>
      <point x="366.529" y="338" type="line"/>
    </contour>
    <contour>
      <point x="144.49" y="523" type="line"/>
      <point x="44.4896" y="523" type="line"/>
      <point x="31.6605" y="457" type="line"/>
      <point x="163.661" y="457" type="line"/>
    </contour>
    <contour>
      <point x="447.661" y="457" type="line"/>
      <point x="579.661" y="457" type="line"/>
      <point x="592.49" y="523" type="line"/>
      <point x="491.49" y="523" type="line"/>
    </contour>
  </outline>
  <guideline angle="90" x="276" y="0"/>
  <guideline angle="90" x="267" y="0"/>
  <guideline angle="90" x="289" y="0"/>
  <guideline angle="114.182" x="292" y="408"/>
  <guideline angle="245.818" x="423" y="722"/>
</glyph>
<glyph name="brokenbar" format="2">
  <advance width="353"/>
  <unicode hex="00A6"/>
  <outline>
    <contour>
      <point x="254.78" y="336" type="line"/>
      <point x="332.532" y="736" type="line"/>
      <point x="202.532" y="736" type="line"/>
      <point x="124.78" y="336" type="line"/>
    </contour>
    <contour>
      <point x="150.981" y="-198" type="line"/>
      <point x="228.733" y="202" type="line"/>
      <point x="98.7329" y="202" type="line"/>
      <point x="20.9807" y="-198" type="line"/>
    </contour>
  </outline>
</glyph>
<glyph name="section" format="2">
  <advance width="467"/>
  <unicode hex="00A7"/>
  <outline>
    <contour>
      <point x="-16.7014" y="270.704" type="curve" smooth="yes"/>
      <point x="-16.7014" y="218.942"/>
      <point x="22.6958" y="185.397"/>
      <point x="56.126" y="161.831" type="curve" smooth="yes"/>
      <point x="216.187" y="49" type="line" smooth="yes"/>
      <point x="230.313" y="39.0421"/>
      <point x="235.657" y="25.1295"/>
      <point x="235.657" y="8.72359" type="curve" smooth="yes"/>
      <point x="235.657" y="-56.8588"/>
      <point x="150.26" y="-81"/>
      <point x="102.845" y="-81" type="curve" smooth="yes"/>
      <point x="61.9029" y="-81"/>
      <point x="20.4165" y="-63"/>
      <point x="-28.169" y="-30" type="curve"/>
      <point x="-48.9677" y="-137" type="line"/>
      <point x="-17.2222" y="-162.053"/>
      <point x="62.6185" y="-177"/>
      <point x="110.488" y="-177" type="curve" smooth="yes"/>
      <point x="224.648" y="-177"/>
      <point x="365.301" y="-91.9871"/>
      <point x="365.301" y="39.2129" type="curve" smooth="yes"/>
      <point x="365.301" y="82.012"/>
      <point x="337.772" y="123.148"/>
      <point x="282.569" y="159" type="curve" smooth="yes"/>
      <point x="116.536" y="266.831" type="line" smooth="yes"/>
      <point x="102.7" y="275.817"/>
      <point x="97.3996" y="288.671"/>
      <point x="97.3996" y="305.144" type="curve" smooth="yes"/>
      <point x="97.3996" y="372.041"/>
      <point x="184.821" y="414.275"/>
      <point x="238.748" y="438.303" type="curve"/>
      <point x="166.331" y="487.028" type="line"/>
      <point x="70.7258" y="455.242"/>
      <point x="-16.7013" y="379.069"/>
    </contour>
    <contour>
      <point x="83.895" y="541.115" type="curve" smooth="yes"/>
      <point x="83.895" y="488.131"/>
      <point x="109.502" y="445.908"/>
      <point x="162.843" y="413.313" type="curve" smooth="yes"/>
      <point x="321.278" y="316.5" type="line" smooth="yes"/>
      <point x="336.476" y="307.213"/>
      <point x="341.955" y="291.949"/>
      <point x="341.955" y="277.055" type="curve" smooth="yes"/>
      <point x="341.955" y="216.652"/>
      <point x="251.853" y="148.095"/>
      <point x="198.006" y="143.595" type="curve"/>
      <point x="290.252" y="88.9906" type="line"/>
      <point x="373.401" y="127.481"/>
      <point x="466.156" y="200.436"/>
      <point x="466.156" y="294.796" type="curve" smooth="yes"/>
      <point x="466.156" y="352.24"/>
      <point x="431.78" y="388.38"/>
      <point x="399.55" y="410.5" type="curve" smooth="yes"/>
      <point x="232.712" y="525" type="line" smooth="yes"/>
      <point x="219.002" y="534.409"/>
      <point x="214.263" y="548.399"/>
      <point x="214.263" y="562.43" type="curve" smooth="yes"/>
      <point x="214.263" y="606.614"/>
      <point x="266.678" y="642"/>
      <point x="315.575" y="642" type="curve" smooth="yes"/>
      <point x="348.455" y="642"/>
      <point x="394.344" y="626"/>
      <point x="443.93" y="593" type="curve"/>
      <point x="463.174" y="692" type="line"/>
      <point x="425.505" y="722"/>
      <point x="388.702" y="734"/>
      <point x="316.337" y="734" type="curve" smooth="yes"/>
      <point x="206.195" y="734"/>
      <point x="83.895" y="656.906"/>
    </contour>
  </outline>
  <guideline angle="148.903" x="391" y="411"/>
  <guideline angle="331.526" x="154" y="413"/>
  <guideline angle="149.992" x="323" y="159"/>
  <guideline angle="328.165" x="96" y="162"/>
</glyph>
<glyph name="dieresis" format="2">
  <advance width="394"/>
  <unicode hex="00A8"/>
  <outline>
    <contour>
      <point x="130.579" y="630" type="line"/>
      <point x="153.907" y="750" type="line"/>
      <point x="43.9074" y="750" type="line"/>
      <point x="20.5794" y="630" type="line"/>
    </contour>
    <contour>
      <point x="340.579" y="630" type="line"/>
      <point x="363.907" y="750" type="line"/>
      <point x="253.907" y="750" type="line"/>
      <point x="230.579" y="630" type="line"/>
    </contour>
  </outline>
  <guideline angle="90" x="181" y="0"/>
  <guideline angle="90" x="95" y="0"/>
</glyph>
<glyph name="copyright" format="2">
  <advance width="867"/>
  <unicode hex="00A9"/>
  <outline>
    <contour>
      <point x="224.136" y="298.811" type="curve" smooth="yes"/>
      <point x="224.136" y="199.575"/>
      <point x="275.494" y="130"/>
      <point x="385.835" y="130" type="curve" smooth="yes"/>
      <point x="493.467" y="130"/>
      <point x="584.98" y="198.517"/>
      <point x="606.434" y="308.514" type="curve"/>
      <point x="489.434" y="308.514" type="line"/>
      <point x="477.383" y="246.81"/>
      <point x="456.608" y="207"/>
      <point x="401.924" y="207" type="curve" smooth="yes"/>
      <point x="351.079" y="207"/>
      <point x="338.736" y="241.418"/>
      <point x="338.736" y="281.916" type="curve" smooth="yes"/>
      <point x="338.736" y="306.585"/>
      <point x="343.316" y="333.511"/>
      <point x="347.765" y="356.286" type="curve" smooth="yes"/>
      <point x="354.179" y="389.129" type="line" smooth="yes"/>
      <point x="366.396" y="451.853"/>
      <point x="387.595" y="509"/>
      <point x="457.084" y="509" type="curve" smooth="yes"/>
      <point x="500.209" y="509"/>
      <point x="516.855" y="486.991"/>
      <point x="517.042" y="442.973" type="curve" smooth="yes"/>
      <point x="517.077" y="434.75"/>
      <point x="516.537" y="425.759"/>
      <point x="515.427" y="416" type="curve"/>
      <point x="629.427" y="416" type="line"/>
      <point x="632.065" y="429.569"/>
      <point x="633.332" y="442.359"/>
      <point x="633.332" y="454.36" type="curve" smooth="yes"/>
      <point x="633.332" y="540.584"/>
      <point x="567.918" y="586"/>
      <point x="480.596" y="586" type="curve" smooth="yes"/>
      <point x="321.595" y="586"/>
      <point x="224.136" y="435.424"/>
    </contour>
    <contour>
      <point x="50.1981" y="289.581" type="curve" smooth="yes"/>
      <point x="50.1981" y="113.366"/>
      <point x="174.308" y="-16"/>
      <point x="358.455" y="-16" type="curve" smooth="yes"/>
      <point x="594.049" y="-16"/>
      <point x="813.977" y="198.245"/>
      <point x="813.977" y="430.675" type="curve" smooth="yes"/>
      <point x="813.977" y="607.282"/>
      <point x="687.967" y="735"/>
      <point x="504.435" y="735" type="curve" smooth="yes"/>
      <point x="268.467" y="735"/>
      <point x="50.1981" y="522.72"/>
    </contour>
    <contour>
      <point x="490.023" y="666" type="curve" smooth="yes"/>
      <point x="640.844" y="666"/>
      <point x="742.739" y="558.528"/>
      <point x="742.739" y="413.479" type="curve" smooth="yes"/>
      <point x="742.739" y="222.801"/>
      <point x="564.992" y="53"/>
      <point x="371.284" y="53" type="curve" smooth="yes"/>
      <point x="220.271" y="53"/>
      <point x="117.178" y="155.667"/>
      <point x="117.178" y="300.819" type="curve" smooth="yes"/>
      <point x="117.178" y="491.652"/>
      <point x="296.941" y="666"/>
    </contour>
  </outline>
  <guideline angle="90" x="432" y="0"/>
  <guideline angle="0" x="0" y="355"/>
</glyph>
<glyph name="ordfeminine" format="2">
  <advance width="388"/>
  <unicode hex="00AA"/>
  <outline>
    <component base="a" xScale="0.7014" yScale="0.7014" xOffset="394.253" yOffset="352.438"/>
    <contour>
      <point x="342.804" y="232" type="line"/>
      <point x="351.94" y="279" type="line"/>
      <point x="2.93968" y="279" type="line"/>
      <point x="-6.1962" y="232" type="line"/>
    </contour>
  </outline>
</glyph>
<glyph name="guillemotleft" format="2">
  <advance width="577"/>
  <unicode hex="00AB"/>
  <outline>
    <contour>
      <point x="242.636" y="57" type="line"/>
      <point x="187.629" y="262.896" type="line"/>
      <point x="183.393" y="241.104" type="line"/>
      <point x="318.444" y="447" type="line"/>
      <point x="188.444" y="447" type="line"/>
      <point x="40.5398" y="252" type="line"/>
      <point x="112.636" y="57" type="line"/>
    </contour>
    <contour>
      <point x="460.636" y="57" type="line"/>
      <point x="405.629" y="262.896" type="line"/>
      <point x="401.393" y="241.104" type="line"/>
      <point x="536.444" y="447" type="line"/>
      <point x="406.444" y="447" type="line"/>
      <point x="258.54" y="252" type="line"/>
      <point x="330.636" y="57" type="line"/>
    </contour>
  </outline>
  <guideline angle="294.758" x="438" y="263"/>
  <guideline angle="245.242" x="533" y="447"/>
  <guideline angle="60.5725" x="293" y="252"/>
  <guideline angle="119.427" x="403" y="57"/>
</glyph>
<glyph name="logicalnot" format="2">
  <advance width="619"/>
  <unicode hex="00AC"/>
  <outline>
    <contour>
      <point x="593.974" y="189" type="line"/>
      <point x="642.764" y="440" type="line"/>
      <point x="82.7636" y="440" type="line"/>
      <point x="63.3256" y="340" type="line"/>
      <point x="523.326" y="340" type="line"/>
      <point x="493.974" y="189" type="line"/>
    </contour>
  </outline>
</glyph>
<glyph name="uni00AD" format="2">
  <advance width="370"/>
  <unicode hex="00AD"/>
  <outline>
    <contour>
      <point x="344.481" y="249" type="line"/>
      <point x="363.919" y="349" type="line"/>
      <point x="73.9194" y="349" type="line"/>
      <point x="54.4813" y="249" type="line"/>
    </contour>
  </outline>
</glyph>
<glyph name="registered" format="2">
  <advance width="867"/>
  <unicode hex="00AE"/>
  <outline>
    <contour>
      <point x="50.1433" y="285.178" type="curve" smooth="yes"/>
      <point x="50.1433" y="111.849"/>
      <point x="174.378" y="-16"/>
      <point x="358.455" y="-16" type="curve" smooth="yes"/>
      <point x="595.104" y="-16"/>
      <point x="814.07" y="197.432"/>
      <point x="814.07" y="435.12" type="curve" smooth="yes"/>
      <point x="814.07" y="608.328"/>
      <point x="688.649" y="735"/>
      <point x="504.435" y="735" type="curve" smooth="yes"/>
      <point x="267.276" y="735"/>
      <point x="50.1433" y="523.214"/>
    </contour>
    <contour>
      <point x="490.023" y="666" type="curve" smooth="yes"/>
      <point x="639.409" y="666"/>
      <point x="742.608" y="557.287"/>
      <point x="742.608" y="415.405" type="curve" smooth="yes"/>
      <point x="742.608" y="222.802"/>
      <point x="562.397" y="50"/>
      <point x="371.284" y="50" type="curve" smooth="yes"/>
      <point x="221.641" y="50"/>
      <point x="117.362" y="157.437"/>
      <point x="117.362" y="299.181" type="curve" smooth="yes"/>
      <point x="117.362" y="491.705"/>
      <point x="299.082" y="666"/>
    </contour>
    <contour>
      <point x="308.498" y="509" type="line"/>
      <point x="476.505" y="509" type="line" smooth="yes"/>
      <point x="512.586" y="509"/>
      <point x="542.746" y="491.1"/>
      <point x="542.746" y="458.969" type="curve" smooth="yes"/>
      <point x="542.746" y="415.24"/>
      <point x="484.742" y="390"/>
      <point x="447.374" y="390" type="curve" smooth="yes"/>
      <point x="360.374" y="390" type="line"/>
      <point x="346.961" y="321" type="line"/>
      <point x="439.961" y="321" type="line" smooth="yes"/>
      <point x="485.296" y="321"/>
      <point x="495.068" y="292.233"/>
      <point x="495.068" y="255.972" type="curve" smooth="yes"/>
      <point x="495.068" y="228.491"/>
      <point x="489.455" y="196.705"/>
      <point x="489.455" y="169.874" type="curve" smooth="yes"/>
      <point x="489.455" y="160.915"/>
      <point x="490.081" y="152.509"/>
      <point x="491.75" y="145" type="curve"/>
      <point x="581.75" y="145" type="line"/>
      <point x="580.709" y="151.859"/>
      <point x="580.328" y="159.761"/>
      <point x="580.351" y="168.398" type="curve" smooth="yes"/>
      <point x="580.425" y="196.035"/>
      <point x="584.64" y="231.195"/>
      <point x="584.64" y="263.771" type="curve" smooth="yes"/>
      <point x="584.64" y="314.521"/>
      <point x="574.409" y="359"/>
      <point x="522.348" y="359" type="curve"/>
      <point x="587.307" y="359"/>
      <point x="636.888" y="425.815"/>
      <point x="636.888" y="487.26" type="curve" smooth="yes"/>
      <point x="636.888" y="547.674"/>
      <point x="587.799" y="578"/>
      <point x="489.917" y="578" type="curve" smooth="yes"/>
      <point x="321.917" y="578" type="line"/>
    </contour>
    <contour>
      <point x="231.75" y="145" type="line"/>
      <point x="321.75" y="145" type="line"/>
      <point x="405.917" y="578.001" type="line"/>
      <point x="315.917" y="578" type="line"/>
    </contour>
  </outline>
</glyph>
<glyph name="macron" format="2">
  <advance width="460"/>
  <unicode hex="00AF"/>
  <outline>
    <contour>
      <point x="30.4818" y="620" type="line"/>
      <point x="410.482" y="620" type="line"/>
      <point x="429.922" y="720" type="line"/>
      <point x="49.9218" y="720" type="line"/>
    </contour>
  </outline>
  <guideline angle="0" x="0" y="620"/>
  <guideline angle="90" x="230" y="0"/>
</glyph>
<glyph name="degree" format="2">
  <advance width="320"/>
  <unicode hex="00B0"/>
  <outline>
    <contour>
      <point x="230.949" y="730" type="curve" smooth="yes"/>
      <point x="157.226" y="730"/>
      <point x="85.4326" y="662.31"/>
      <point x="85.4326" y="587.669" type="curve" smooth="yes"/>
      <point x="85.4326" y="532.884"/>
      <point x="126.019" y="490"/>
      <point x="184.298" y="490" type="curve" smooth="yes"/>
      <point x="257.284" y="490"/>
      <point x="329.831" y="558.523"/>
      <point x="329.831" y="632.46" type="curve" smooth="yes"/>
      <point x="329.831" y="687.823"/>
      <point x="288.394" y="730"/>
    </contour>
    <contour>
      <point x="195.96" y="550" type="curve" smooth="yes"/>
      <point x="166.856" y="550"/>
      <point x="146.501" y="571.001"/>
      <point x="146.501" y="598.598" type="curve" smooth="yes"/>
      <point x="146.501" y="635.272"/>
      <point x="183.078" y="670"/>
      <point x="219.286" y="670" type="curve" smooth="yes"/>
      <point x="248.39" y="670"/>
      <point x="268.745" y="648.999"/>
      <point x="268.745" y="621.402" type="curve" smooth="yes"/>
      <point x="268.745" y="584.728"/>
      <point x="232.168" y="550"/>
    </contour>
  </outline>
</glyph>
<glyph name="plusminus" format="2">
  <advance width="1000"/>
  <unicode hex="00B1"/>
  <outline>
    <contour>
      <point x="865.443" y="358" type="line"/>
      <point x="889.157" y="480" type="line"/>
      <point x="620.157" y="480" type="line"/>
      <point x="655.145" y="660" type="line"/>
      <point x="533.145" y="660" type="line"/>
      <point x="498.157" y="480" type="line"/>
      <point x="229.157" y="480" type="line"/>
      <point x="205.443" y="358" type="line"/>
      <point x="474.443" y="358" type="line"/>
      <point x="439.454" y="178" type="line"/>
      <point x="561.454" y="178" type="line"/>
      <point x="596.443" y="358" type="line"/>
    </contour>
    <contour>
      <point x="795.854" y="0" type="line"/>
      <point x="819.569" y="122" type="line"/>
      <point x="159.569" y="122" type="line"/>
      <point x="135.854" y="0" type="line"/>
    </contour>
  </outline>
</glyph>
<glyph name="twosuperior" format="2">
  <advance width="371"/>
  <unicode hex="00B2"/>
  <outline>
    <contour>
      <point x="37.2692" y="409.927" type="line"/>
      <point x="23.8556" y="341" type="line"/>
      <point x="329.856" y="341" type="line"/>
      <point x="341.714" y="402" type="line"/>
      <point x="126.714" y="402" type="line"/>
      <point x="127.435" y="395.344" type="line"/>
      <point x="189.546" y="431.726" type="line" smooth="yes"/>
      <point x="261.059" y="473.546"/>
      <point x="394.515" y="537.326"/>
      <point x="394.515" y="635.181" type="curve" smooth="yes"/>
      <point x="394.515" y="703.05"/>
      <point x="333.168" y="735"/>
      <point x="266.313" y="735" type="curve" smooth="yes"/>
      <point x="187.449" y="735"/>
      <point x="96.8067" y="690.542"/>
      <point x="83.2876" y="619" type="curve"/>
      <point x="190.288" y="619" type="line"/>
      <point x="196.657" y="653"/>
      <point x="221.591" y="674"/>
      <point x="251.397" y="674" type="curve" smooth="yes"/>
      <point x="278.062" y="674"/>
      <point x="290.952" y="657.196"/>
      <point x="290.952" y="636.206" type="curve" smooth="yes"/>
      <point x="290.952" y="564.701"/>
      <point x="130.42" y="472.839"/>
      <point x="85.6844" y="442.626" type="curve" smooth="yes"/>
    </contour>
  </outline>
  <guideline angle="213.93" x="177" y="442"/>
  <guideline angle="38.1572" x="29" y="420"/>
  <guideline angle="0" x="0" y="-11"/>
</glyph>
<glyph name="threesuperior" format="2">
  <advance width="366"/>
  <unicode hex="00B3"/>
  <outline>
    <contour>
      <point x="46.4532" y="447" type="line"/>
      <point x="44.6556" y="437.752"/>
      <point x="43.7705" y="429.027"/>
      <point x="43.7705" y="420.838" type="curve" smooth="yes"/>
      <point x="43.7705" y="363.105"/>
      <point x="87.7583" y="331"/>
      <point x="161.045" y="331" type="curve" smooth="yes"/>
      <point x="247.223" y="331"/>
      <point x="350.007" y="375.01"/>
      <point x="350.007" y="463.895" type="curve" smooth="yes"/>
      <point x="350.007" y="508.518"/>
      <point x="324.101" y="534.095"/>
      <point x="274.919" y="542" type="curve"/>
      <point x="274.142" y="538" type="line"/>
      <point x="330.552" y="551.904"/>
      <point x="375.7" y="580.665"/>
      <point x="375.7" y="638.711" type="curve" smooth="yes"/>
      <point x="375.7" y="698.953"/>
      <point x="327.074" y="735"/>
      <point x="248.278" y="735" type="curve" smooth="yes"/>
      <point x="160.82" y="735"/>
      <point x="94.9636" y="691.419"/>
      <point x="82.0529" y="625" type="curve"/>
      <point x="181.053" y="625" type="line"/>
      <point x="187.555" y="658.449"/>
      <point x="206.479" y="676"/>
      <point x="236.045" y="676" type="curve" smooth="yes"/>
      <point x="259.866" y="676"/>
      <point x="272.205" y="664.513"/>
      <point x="272.205" y="637.915" type="curve" smooth="yes"/>
      <point x="272.205" y="593.128"/>
      <point x="237.22" y="571.764"/>
      <point x="190.349" y="571.764" type="curve" smooth="yes"/>
      <point x="171.705" y="571.764" type="line"/>
      <point x="160.254" y="512.855" type="line"/>
      <point x="174.489" y="512.855" type="line" smooth="yes"/>
      <point x="224.681" y="512.855"/>
      <point x="246.056" y="494.856"/>
      <point x="246.056" y="459.941" type="curve" smooth="yes"/>
      <point x="246.056" y="424.896"/>
      <point x="224.523" y="390"/>
      <point x="182.553" y="390" type="curve" smooth="yes"/>
      <point x="156.893" y="390"/>
      <point x="144.282" y="402.073"/>
      <point x="144.282" y="426.91" type="curve" smooth="yes"/>
      <point x="144.282" y="432.869"/>
      <point x="145.008" y="439.562"/>
      <point x="146.453" y="447" type="curve"/>
    </contour>
  </outline>
</glyph>
<glyph name="acute" format="2">
  <advance width="297"/>
  <unicode hex="00B4"/>
  <outline>
    <contour>
      <point x="20.8199" y="600" type="line"/>
      <point x="90.8199" y="600" type="line"/>
      <point x="276.808" y="780" type="line"/>
      <point x="146.808" y="780" type="line"/>
    </contour>
  </outline>
</glyph>
<glyph name="paragraph" format="2">
  <advance width="559"/>
  <unicode hex="00B6"/>
  <outline>
    <contour>
      <point x="627.677" y="632" type="line"/>
      <point x="645.171" y="722" type="line"/>
      <point x="315.171" y="722" type="line" smooth="yes"/>
      <point x="199.24" y="722"/>
      <point x="72.5306" y="605.232"/>
      <point x="72.5306" y="486.81" type="curve" smooth="yes"/>
      <point x="72.5306" y="402.355"/>
      <point x="142.653" y="352"/>
      <point x="232.251" y="352" type="curve"/>
      <point x="132.728" y="-160" type="line"/>
      <point x="242.728" y="-160" type="line"/>
      <point x="396.677" y="632" type="line"/>
      <point x="456.677" y="632" type="line"/>
      <point x="302.728" y="-160" type="line"/>
      <point x="412.728" y="-160" type="line"/>
      <point x="566.677" y="632" type="line"/>
    </contour>
  </outline>
</glyph>
<glyph name="periodcentered" format="2">
  <advance width="232"/>
  <unicode hex="00B7"/>
  <outline>
    <contour>
      <point x="166" y="276" type="line"/>
      <point x="191.661" y="408" type="line"/>
      <point x="65.6608" y="408" type="line"/>
      <point x="40" y="276" type="line"/>
    </contour>
  </outline>
</glyph>
<glyph name="cedilla" format="2">
  <advance width="255"/>
  <unicode hex="00B8"/>
  <outline>
    <contour>
      <point x="224.473" y="-127.55" type="curve" smooth="yes"/>
      <point x="224.473" y="-80.6681"/>
      <point x="194.942" y="-49.4133"/>
      <point x="150.646" y="-49.4133" type="curve" smooth="yes"/>
      <point x="144.654" y="-49.4133"/>
      <point x="133.485" y="-49.7998"/>
      <point x="123.052" y="-52.0611" type="curve"/>
      <point x="132.238" y="-62.9145" type="line"/>
      <point x="175.359" y="0" type="line"/>
      <point x="102.881" y="0" type="line"/>
      <point x="44.3661" y="-89.8567" type="line"/>
      <point x="61.8331" y="-103.606" type="line"/>
      <point x="75.7639" y="-100.223"/>
      <point x="83.66" y="-98.8095"/>
      <point x="90.8627" y="-98.8305" type="curve" smooth="yes"/>
      <point x="118.416" y="-98.9109"/>
      <point x="136.785" y="-116.178"/>
      <point x="136.785" y="-141.999" type="curve" smooth="yes"/>
      <point x="136.785" y="-168.634"/>
      <point x="115.082" y="-189"/>
      <point x="81.7883" y="-189" type="curve" smooth="yes"/>
      <point x="64.1322" y="-189"/>
      <point x="44.3636" y="-185.214"/>
      <point x="21.0629" y="-176" type="curve"/>
      <point x="10.3317" y="-231.202" type="line"/>
      <point x="36.5209" y="-242.232"/>
      <point x="61.3702" y="-245"/>
      <point x="78.6411" y="-245" type="curve" smooth="yes"/>
      <point x="166.14" y="-245"/>
      <point x="224.473" y="-198.02"/>
    </contour>
  </outline>
  <guideline angle="0" x="0" y="-53"/>
  <guideline angle="0" x="0" y="-73"/>
</glyph>
<glyph name="onesuperior" format="2">
  <advance width="290"/>
  <unicode hex="00B9"/>
  <outline>
    <contour>
      <point x="229.147" y="336" type="line"/>
      <point x="304.186" y="722" type="line"/>
      <point x="214.186" y="722" type="line"/>
      <point x="202.436" y="713" type="line" smooth="yes"/>
      <point x="178.28" y="694.497"/>
      <point x="133.66" y="673"/>
      <point x="99.5215" y="662" type="curve"/>
      <point x="86.6911" y="596" type="line"/>
      <point x="125.04" y="609.459"/>
      <point x="155.075" y="624.464"/>
      <point x="189.411" y="646" type="curve"/>
      <point x="129.147" y="336" type="line"/>
    </contour>
  </outline>
</glyph>
<glyph name="ordmasculine" format="2">
  <advance width="411"/>
  <unicode hex="00BA"/>
  <outline>
    <contour>
      <point x="52.5449" y="472.136" type="curve" smooth="yes"/>
      <point x="52.5449" y="381.191"/>
      <point x="110.87" y="339"/>
      <point x="202.994" y="339" type="curve" smooth="yes"/>
      <point x="342.158" y="339"/>
      <point x="425.283" y="442.459"/>
      <point x="425.283" y="575.148" type="curve" smooth="yes"/>
      <point x="425.283" y="666.256"/>
      <point x="366.385" y="709"/>
      <point x="274.922" y="709" type="curve" smooth="yes"/>
      <point x="136.373" y="709"/>
      <point x="52.5449" y="604.018"/>
    </contour>
    <contour>
      <point x="263.452" y="650" type="curve" smooth="yes"/>
      <point x="311.267" y="650"/>
      <point x="329.194" y="617.743"/>
      <point x="329.194" y="572.027" type="curve" smooth="yes"/>
      <point x="329.194" y="502.916"/>
      <point x="296.981" y="399"/>
      <point x="214.658" y="399" type="curve" smooth="yes"/>
      <point x="166.915" y="399"/>
      <point x="149.082" y="431.734"/>
      <point x="149.082" y="477.618" type="curve" smooth="yes"/>
      <point x="149.082" y="546.976"/>
      <point x="180.747" y="650"/>
    </contour>
    <contour>
      <point x="8.80418" y="230" type="line"/>
      <point x="361.804" y="230" type="line"/>
      <point x="370.941" y="277" type="line"/>
      <point x="17.941" y="277" type="line"/>
    </contour>
  </outline>
</glyph>
<glyph name="guillemotright" format="2">
  <advance width="577"/>
  <unicode hex="00BB"/>
  <outline>
    <contour>
      <point x="40.6357" y="57" type="line"/>
      <point x="170.636" y="57" type="line"/>
      <point x="318.54" y="252" type="line"/>
      <point x="246.444" y="447" type="line"/>
      <point x="116.444" y="447" type="line"/>
      <point x="171.451" y="241.104" type="line"/>
      <point x="175.686" y="262.896" type="line"/>
    </contour>
    <contour>
      <point x="258.636" y="57" type="line"/>
      <point x="388.636" y="57" type="line"/>
      <point x="536.54" y="252" type="line"/>
      <point x="464.444" y="447" type="line"/>
      <point x="334.444" y="447" type="line"/>
      <point x="389.451" y="241.104" type="line"/>
      <point x="393.686" y="262.896" type="line"/>
    </contour>
  </outline>
</glyph>
<glyph name="onequarter" format="2">
  <advance width="799"/>
  <unicode hex="00BC"/>
  <outline>
    <component base="onesuperior"/>
    <contour>
      <point x="721.532" y="736" type="line"/>
      <point x="622.532" y="736" type="line"/>
      <point x="50.7468" y="-14" type="line"/>
      <point x="149.747" y="-14" type="line"/>
    </contour>
    <contour>
      <point x="477.515" y="135.82" type="line"/>
      <point x="616.143" y="305.18" type="line"/>
      <point x="610.143" y="307" type="line"/>
      <point x="550.468" y="0" type="line"/>
      <point x="646.468" y="0" type="line"/>
      <point x="721.499" y="386" type="line"/>
      <point x="606.499" y="386" type="line"/>
      <point x="402.403" y="154" type="line"/>
      <point x="388.99" y="85" type="line"/>
      <point x="706.99" y="85" type="line"/>
      <point x="718.848" y="146" type="line"/>
      <point x="473.848" y="146" type="line"/>
    </contour>
  </outline>
  <guideline angle="58.1472" x="523" y="122"/>
  <guideline angle="235.575" x="603" y="372"/>
  <guideline angle="0" x="0" y="722"/>
</glyph>
<glyph name="onehalf" format="2">
  <advance width="799"/>
  <unicode hex="00BD"/>
  <outline>
    <component base="onesuperior"/>
    <component base="twosuperior" xOffset="351.716" yOffset="-341"/>
    <contour>
      <point x="701.532" y="736" type="line"/>
      <point x="602.532" y="736" type="line"/>
      <point x="30.7468" y="-14" type="line"/>
      <point x="129.747" y="-14" type="line"/>
    </contour>
  </outline>
  <guideline angle="0" x="0" y="0"/>
</glyph>
<glyph name="threequarters" format="2">
  <advance width="799"/>
  <unicode hex="00BE"/>
  <outline>
    <contour>
      <point x="46.356" y="447" type="line"/>
      <point x="44.5584" y="437.752"/>
      <point x="43.6733" y="429.027"/>
      <point x="43.6733" y="420.838" type="curve" smooth="yes"/>
      <point x="43.6733" y="363.105"/>
      <point x="87.6611" y="329"/>
      <point x="160.948" y="329" type="curve" smooth="yes"/>
      <point x="247.126" y="329"/>
      <point x="349.91" y="375.01"/>
      <point x="349.91" y="463.895" type="curve" smooth="yes"/>
      <point x="349.91" y="508.518"/>
      <point x="324.004" y="534.095"/>
      <point x="274.822" y="542" type="curve"/>
      <point x="274.045" y="538" type="line"/>
      <point x="330.455" y="551.904"/>
      <point x="375.602" y="580.665"/>
      <point x="375.602" y="638.174" type="curve" smooth="yes"/>
      <point x="375.602" y="697.731"/>
      <point x="326.977" y="735"/>
      <point x="248.18" y="735" type="curve" smooth="yes"/>
      <point x="160.722" y="735"/>
      <point x="94.8664" y="689.942"/>
      <point x="81.9557" y="625" type="curve"/>
      <point x="180.956" y="625" type="line"/>
      <point x="187.458" y="657.137"/>
      <point x="206.382" y="674"/>
      <point x="235.948" y="674" type="curve" smooth="yes"/>
      <point x="259.769" y="674"/>
      <point x="272.108" y="662.963"/>
      <point x="272.108" y="637.408" type="curve" smooth="yes"/>
      <point x="272.108" y="593.128"/>
      <point x="237.122" y="571.764"/>
      <point x="190.252" y="571.764" type="curve" smooth="yes"/>
      <point x="171.608" y="571.764" type="line"/>
      <point x="160.157" y="512.855" type="line"/>
      <point x="174.392" y="512.855" type="line" smooth="yes"/>
      <point x="224.583" y="512.855"/>
      <point x="245.958" y="494.856"/>
      <point x="245.958" y="459.941" type="curve" smooth="yes"/>
      <point x="245.958" y="424.896"/>
      <point x="224.426" y="390"/>
      <point x="182.456" y="390" type="curve" smooth="yes"/>
      <point x="156.796" y="390"/>
      <point x="144.184" y="402.073"/>
      <point x="144.184" y="426.91" type="curve" smooth="yes"/>
      <point x="144.184" y="432.869"/>
      <point x="144.91" y="439.562"/>
      <point x="146.356" y="447" type="curve"/>
    </contour>
    <contour>
      <point x="762.532" y="736" type="line"/>
      <point x="663.532" y="736" type="line"/>
      <point x="91.7468" y="-14" type="line"/>
      <point x="190.747" y="-14" type="line"/>
    </contour>
    <contour>
      <point x="477.515" y="135.82" type="line"/>
      <point x="616.143" y="302.612" type="line"/>
      <point x="610.143" y="304.403" type="line"/>
      <point x="550.468" y="0" type="line"/>
      <point x="646.468" y="0" type="line"/>
      <point x="721.499" y="386" type="line"/>
      <point x="606.499" y="386" type="line"/>
      <point x="402.403" y="153.871" type="line"/>
      <point x="388.99" y="85" type="line"/>
      <point x="706.99" y="85" type="line"/>
      <point x="718.848" y="146" type="line"/>
      <point x="473.848" y="146" type="line"/>
    </contour>
  </outline>
</glyph>
<glyph name="AE" format="2">
  <advance width="1097"/>
  <unicode hex="00C6"/>
  <outline>
    <contour>
      <point x="10.8283" y="0" type="line"/>
      <point x="153.828" y="0" type="line"/>
      <point x="599.475" y="610.26" type="line"/>
      <point x="621.163" y="722" type="line"/>
      <point x="539.185" y="722" type="line"/>
    </contour>
    <contour>
      <point x="263.46" y="173" type="line"/>
      <point x="519.46" y="173" type="line"/>
      <point x="541.232" y="285" type="line"/>
      <point x="346.232" y="285" type="line"/>
    </contour>
    <contour>
      <point x="620.829" y="0.0045" type="line"/>
      <point x="957.829" y="0.0045" type="line"/>
      <point x="980.185" y="115.004" type="line"/>
      <point x="643.185" y="115.004" type="line"/>
    </contour>
    <contour>
      <point x="682.454" y="317.004" type="line"/>
      <point x="989.454" y="317.004" type="line"/>
      <point x="1011.23" y="429.004" type="line"/>
      <point x="704.227" y="429.004" type="line"/>
    </contour>
    <contour>
      <point x="738.83" y="607.005" type="line"/>
      <point x="1065.83" y="607.005" type="line"/>
      <point x="1088.19" y="722.005" type="line"/>
      <point x="761.186" y="722.005" type="line"/>
    </contour>
    <contour>
      <point x="480.806" y="0" type="line"/>
      <point x="630.806" y="0" type="line"/>
      <point x="771.163" y="722" type="line"/>
      <point x="621.163" y="722" type="line"/>
    </contour>
  </outline>
</glyph>
<glyph name="Eth" format="2">
  <advance width="728"/>
  <unicode hex="00D0"/>
  <outline>
    <component base="D" xOffset="50"/>
    <contour>
      <point x="8.5607" y="405" type="line"/>
      <point x="-8.9353" y="315" type="line"/>
      <point x="351.065" y="315" type="line"/>
      <point x="368.561" y="405" type="line"/>
    </contour>
  </outline>
</glyph>
<glyph name="multiply" format="2">
  <advance width="691"/>
  <unicode hex="00D7"/>
  <outline>
    <contour>
      <point x="11.9986" y="110" type="line"/>
      <point x="76.7585" y="29.9477" type="line"/>
      <point x="675.143" y="530.948" type="line"/>
      <point x="610.383" y="611" type="line"/>
    </contour>
    <contour>
      <point x="515.504" y="20" type="line"/>
      <point x="622.055" y="109.93" type="line"/>
      <point x="218.439" y="610.93" type="line"/>
      <point x="111.889" y="521" type="line"/>
    </contour>
  </outline>
  <guideline angle="135" x="660" y="110"/>
  <guideline angle="315" x="70" y="521"/>
  <guideline angle="225" x="551" y="611"/>
  <guideline angle="45" x="130" y="30"/>
  <guideline angle="225.32" x="159" y="611"/>
  <guideline angle="135" x="631" y="531"/>
  <guideline angle="45.3201" x="571" y="20"/>
  <guideline angle="315" x="50" y="110"/>
  <guideline angle="0" x="0" y="300"/>
  <guideline angle="90" x="320" y="0"/>
</glyph>
<glyph name="Oslash" format="2">
  <advance width="807"/>
  <unicode hex="00D8"/>
  <outline>
    <component base="O" xOffset="25"/>
    <contour>
      <point x="129.492" y="-14" type="line"/>
      <point x="776.89" y="736" type="line"/>
      <point x="684.146" y="736" type="line"/>
      <point x="30.6381" y="-14" type="line"/>
    </contour>
  </outline>
  <guideline angle="0" x="0" y="736"/>
  <guideline angle="0" x="0" y="-14"/>
</glyph>
<glyph name="Thorn" format="2">
  <advance width="662"/>
  <unicode hex="00DE"/>
  <outline>
    <contour>
      <point x="187.513" y="163" type="line"/>
      <point x="302.513" y="163" type="line" smooth="yes"/>
      <point x="475.071" y="163"/>
      <point x="631.13" y="240.177"/>
      <point x="631.13" y="431.835" type="curve" smooth="yes"/>
      <point x="631.13" y="551.753"/>
      <point x="531.765" y="601"/>
      <point x="387.651" y="601" type="curve" smooth="yes"/>
      <point x="272.651" y="601" type="line"/>
      <point x="250.298" y="486" type="line"/>
      <point x="365.298" y="486" type="line" smooth="yes"/>
      <point x="438.605" y="486"/>
      <point x="479" y="465.917"/>
      <point x="479" y="410.355" type="curve" smooth="yes"/>
      <point x="479" y="314.078"/>
      <point x="415.021" y="278"/>
      <point x="324.866" y="278" type="curve" smooth="yes"/>
      <point x="209.866" y="278" type="line"/>
    </contour>
    <contour>
      <point x="20.8287" y="0" type="line"/>
      <point x="170.829" y="0" type="line"/>
      <point x="311.171" y="722" type="line"/>
      <point x="161.171" y="722" type="line"/>
    </contour>
  </outline>
</glyph>
<glyph name="germandbls" format="2">
  <advance width="628"/>
  <unicode hex="00DF"/>
  <outline>
    <contour>
      <point x="20.3709" y="0" type="line"/>
      <point x="155.371" y="0" type="line"/>
      <point x="261.503" y="546" type="line" smooth="yes"/>
      <point x="275.304" y="617"/>
      <point x="309.912" y="651"/>
      <point x="376.669" y="651" type="curve" smooth="yes"/>
      <point x="433.912" y="651"/>
      <point x="457.053" y="626"/>
      <point x="448.761" y="583.343" type="curve" smooth="yes"/>
      <point x="429.456" y="484.028"/>
      <point x="294.012" y="450.872"/>
      <point x="278.292" y="370" type="curve" smooth="yes"/>
      <point x="276.736" y="361.996"/>
      <point x="276.007" y="354.511"/>
      <point x="276.007" y="347.487" type="curve" smooth="yes"/>
      <point x="276.007" y="244.007"/>
      <point x="434.098" y="240.621"/>
      <point x="434.098" y="155.037" type="curve" smooth="yes"/>
      <point x="434.098" y="115.795"/>
      <point x="413.707" y="71"/>
      <point x="369.277" y="71" type="curve" smooth="yes"/>
      <point x="341.136" y="71"/>
      <point x="326.734" y="85.1376"/>
      <point x="326.734" y="114.443" type="curve" smooth="yes"/>
      <point x="326.734" y="121.695"/>
      <point x="327.616" y="129.875"/>
      <point x="329.39" y="139" type="curve"/>
      <point x="215.39" y="139" type="line"/>
      <point x="212.15" y="122.021"/>
      <point x="210.572" y="106.667"/>
      <point x="210.572" y="92.8393" type="curve" smooth="yes"/>
      <point x="210.572" y="16.8937"/>
      <point x="258.19" y="-13"/>
      <point x="339.822" y="-13" type="curve" smooth="yes"/>
      <point x="454.401" y="-13"/>
      <point x="573.079" y="57.6355"/>
      <point x="573.079" y="182.757" type="curve" smooth="yes"/>
      <point x="573.079" y="305.115"/>
      <point x="409.132" y="317.733"/>
      <point x="422.061" y="384.248" type="curve" smooth="yes"/>
      <point x="432.133" y="436.065"/>
      <point x="561.669" y="469.69"/>
      <point x="585.086" y="590.159" type="curve" smooth="yes"/>
      <point x="586.855" y="599.261"/>
      <point x="587.697" y="607.867"/>
      <point x="587.697" y="615.996" type="curve" smooth="yes"/>
      <point x="587.697" y="705.225"/>
      <point x="486.348" y="737"/>
      <point x="398.629" y="737" type="curve" smooth="yes"/>
      <point x="241.629" y="737"/>
      <point x="151.189" y="673"/>
      <point x="126.503" y="546" type="curve" smooth="yes"/>
    </contour>
  </outline>
</glyph>
<glyph name="ae" format="2">
  <advance width="890"/>
  <unicode hex="00E6"/>
  <anchor x="514" y="580" name="top"/>
  <outline>
    <contour>
      <point x="20.3684" y="134.395" type="curve" smooth="yes"/>
      <point x="20.3684" y="46.288"/>
      <point x="103.14" y="-13"/>
      <point x="194.963" y="-13" type="curve" smooth="yes"/>
      <point x="299.987" y="-13"/>
      <point x="358.427" y="23.3959"/>
      <point x="411.804" y="97" type="curve"/>
      <point x="427.496" y="32.8724"/>
      <point x="486.876" y="-14"/>
      <point x="588.802" y="-14" type="curve" smooth="yes"/>
      <point x="697.225" y="-14"/>
      <point x="783.112" y="42"/>
      <point x="816.079" y="155" type="curve"/>
      <point x="680.079" y="155" type="line"/>
      <point x="664.553" y="106"/>
      <point x="627.749" y="71"/>
      <point x="576.749" y="71" type="curve" smooth="yes"/>
      <point x="519.696" y="71"/>
      <point x="503.472" y="130.436"/>
      <point x="503.472" y="185.442" type="curve" smooth="yes"/>
      <point x="503.472" y="205.183"/>
      <point x="505.561" y="224.353"/>
      <point x="508.603" y="240" type="curve"/>
      <point x="840.393" y="240" type="line"/>
      <point x="844.851" y="262.93" type="line" smooth="yes"/>
      <point x="850.295" y="290.934"/>
      <point x="852.97" y="316.609"/>
      <point x="852.97" y="339.948" type="curve" smooth="yes"/>
      <point x="852.97" y="455.713"/>
      <point x="787.145" y="514"/>
      <point x="666.869" y="514" type="curve" smooth="yes"/>
      <point x="587.252" y="514"/>
      <point x="535.857" y="489.399"/>
      <point x="486.876" y="431" type="curve"/>
      <point x="457.191" y="487"/>
      <point x="393.027" y="515"/>
      <point x="295.853" y="515" type="curve" smooth="yes"/>
      <point x="182.717" y="515"/>
      <point x="102.954" y="463"/>
      <point x="83.3198" y="362" type="curve"/>
      <point x="219.32" y="362" type="line"/>
      <point x="228.653" y="410.011"/>
      <point x="264.101" y="434"/>
      <point x="301.505" y="434" type="curve" smooth="yes"/>
      <point x="352.23" y="434"/>
      <point x="388.848" y="407.393"/>
      <point x="388.848" y="364.981" type="curve" smooth="yes"/>
      <point x="388.848" y="349.838"/>
      <point x="386.62" y="332.681"/>
      <point x="382.989" y="314" type="curve"/>
      <point x="354.182" y="317"/>
      <point x="293.904" y="318"/>
      <point x="252.283" y="318" type="curve" smooth="yes"/>
      <point x="113.134" y="318"/>
      <point x="20.3684" y="244.558"/>
    </contour>
    <contour>
      <point x="159.888" y="149.527" type="curve" smooth="yes"/>
      <point x="159.888" y="207.53"/>
      <point x="203.888" y="246.2"/>
      <point x="269.888" y="246.2" type="curve" smooth="yes"/>
      <point x="285.115" y="246.2"/>
      <point x="331.881" y="246.2"/>
      <point x="366.957" y="242" type="curve"/>
      <point x="365.144" y="232.671" type="line" smooth="yes"/>
      <point x="350.249" y="156.051"/>
      <point x="321.912" y="77"/>
      <point x="229.916" y="77" type="curve" smooth="yes"/>
      <point x="192.807" y="77"/>
      <point x="159.888" y="104.033"/>
    </contour>
    <contour>
      <point x="523.183" y="315" type="line"/>
      <point x="536.013" y="381"/>
      <point x="574.345" y="429"/>
      <point x="641.345" y="429" type="curve" smooth="yes"/>
      <point x="695.172" y="429"/>
      <point x="718.718" y="396.408"/>
      <point x="718.718" y="349.126" type="curve" smooth="yes"/>
      <point x="718.718" y="338.433"/>
      <point x="717.514" y="326.989"/>
      <point x="715.183" y="315" type="curve"/>
    </contour>
  </outline>
</glyph>
<glyph name="eth" format="2">
  <advance width="604"/>
  <unicode hex="00F0"/>
  <outline>
    <contour>
      <point x="12.2375" y="180.003" type="curve" smooth="yes"/>
      <point x="12.2375" y="56.4447"/>
      <point x="90.2109" y="-17"/>
      <point x="232.601" y="-17" type="curve" smooth="yes"/>
      <point x="464.297" y="-17"/>
      <point x="547.063" y="177.462"/>
      <point x="547.063" y="377.918" type="curve" smooth="yes"/>
      <point x="547.063" y="547.458"/>
      <point x="460.456" y="647.643"/>
      <point x="276.2" y="736" type="curve"/>
      <point x="201.579" y="688.909" type="line"/>
      <point x="283.768" y="649.49"/>
      <point x="369.145" y="567.779"/>
      <point x="391.678" y="495.445" type="curve"/>
      <point x="398.75" y="501.386" type="line"/>
      <point x="376.462" y="507.435"/>
      <point x="355.207" y="512"/>
      <point x="323.023" y="512" type="curve" smooth="yes"/>
      <point x="134.77" y="512"/>
      <point x="12.2375" y="359.427"/>
    </contour>
    <contour>
      <point x="313.472" y="426" type="curve" smooth="yes"/>
      <point x="374.664" y="426"/>
      <point x="405.792" y="389.86"/>
      <point x="405.792" y="310.449" type="curve" smooth="yes"/>
      <point x="405.792" y="217.635"/>
      <point x="363.27" y="68"/>
      <point x="240.426" y="68" type="curve" smooth="yes"/>
      <point x="170.676" y="68"/>
      <point x="143.276" y="116.24"/>
      <point x="143.276" y="188.293" type="curve" smooth="yes"/>
      <point x="143.276" y="284.942"/>
      <point x="192.577" y="426"/>
    </contour>
    <contour>
      <point x="142.029" y="566" type="line"/>
      <point x="156.727" y="513" type="line"/>
      <point x="592.505" y="696" type="line"/>
      <point x="579.372" y="751" type="line"/>
    </contour>
  </outline>
  <guideline angle="215.87" x="206" y="736"/>
  <guideline angle="204.766" x="506" y="751"/>
  <guideline angle="204.766" x="506" y="751"/>
  <guideline angle="295.253" x="105" y="566"/>
  <guideline angle="113.575" x="530" y="696"/>
</glyph>
<glyph name="divide" format="2">
  <advance width="1000"/>
  <unicode hex="00F7"/>
  <outline>
    <contour>
      <point x="793.877" y="250" type="line"/>
      <point x="813.315" y="350" type="line"/>
      <point x="213.315" y="350" type="line"/>
      <point x="193.877" y="250" type="line"/>
    </contour>
    <contour>
      <point x="384.795" y="38.6536" type="line"/>
      <point x="520.795" y="38.6536" type="line"/>
      <point x="548.49" y="181.13" type="line"/>
      <point x="412.49" y="181.13" type="line"/>
    </contour>
    <contour>
      <point x="459.024" y="420.527" type="line"/>
      <point x="595.024" y="420.527" type="line"/>
      <point x="622.718" y="563.003" type="line"/>
      <point x="486.718" y="563.003" type="line"/>
    </contour>
  </outline>
</glyph>
<glyph name="oslash" format="2">
  <advance width="591"/>
  <unicode hex="00F8"/>
  <outline>
    <contour>
      <point x="101.852" y="-14" type="line"/>
      <point x="599.033" y="514" type="line"/>
      <point x="468.605" y="514.186" type="line"/>
      <point x="-28.5062" y="-14" type="line"/>
    </contour>
    <contour>
      <point x="36.5333" y="189.495" type="curve" smooth="yes"/>
      <point x="36.5333" y="66.7657"/>
      <point x="117.994" y="-14"/>
      <point x="250.305" y="-14" type="curve" smooth="yes"/>
      <point x="429.579" y="-14"/>
      <point x="564.82" y="136.802"/>
      <point x="564.82" y="311.431" type="curve" smooth="yes"/>
      <point x="564.82" y="433.64"/>
      <point x="484.925" y="514"/>
      <point x="352.948" y="514" type="curve" smooth="yes"/>
      <point x="174.291" y="514"/>
      <point x="36.5333" y="364.384"/>
    </contour>
    <contour>
      <point x="335.229" y="428" type="curve" smooth="yes"/>
      <point x="397.69" y="428"/>
      <point x="430.615" y="388.618"/>
      <point x="430.615" y="315.291" type="curve" smooth="yes"/>
      <point x="430.615" y="216.119"/>
      <point x="383.644" y="72"/>
      <point x="266.023" y="72" type="curve" smooth="yes"/>
      <point x="203.563" y="72"/>
      <point x="170.637" y="111.382"/>
      <point x="170.637" y="184.709" type="curve" smooth="yes"/>
      <point x="170.637" y="283.881"/>
      <point x="217.608" y="428"/>
    </contour>
  </outline>
  <guideline angle="0" x="0" y="514"/>
  <guideline angle="0" x="0" y="-14"/>
</glyph>
<glyph name="thorn" format="2">
  <advance width="663"/>
  <unicode hex="00FE"/>
  <outline>
    <contour>
      <point x="20.9526" y="-200" type="line"/>
      <point x="155.953" y="-200" type="line"/>
      <point x="335.171" y="722" type="line"/>
      <point x="200.171" y="722" type="line"/>
    </contour>
    <contour>
      <point x="188.259" y="75.1935" type="line"/>
      <point x="221.583" y="14.8041"/>
      <point x="269.019" y="-14"/>
      <point x="341.336" y="-14" type="curve" smooth="yes"/>
      <point x="520.242" y="-14"/>
      <point x="623.501" y="162.183"/>
      <point x="623.501" y="319.088" type="curve" smooth="yes"/>
      <point x="623.501" y="443.538"/>
      <point x="558.414" y="514"/>
      <point x="440.151" y="514" type="curve" smooth="yes"/>
      <point x="375.23" y="514"/>
      <point x="328.634" y="492.766"/>
      <point x="256.61" y="429.893" type="curve"/>
    </contour>
    <contour>
      <point x="391.218" y="429" type="curve" smooth="yes"/>
      <point x="448.969" y="429"/>
      <point x="484.908" y="377.624"/>
      <point x="484.908" y="300.894" type="curve" smooth="yes"/>
      <point x="484.908" y="211.568"/>
      <point x="436.201" y="72"/>
      <point x="336.184" y="72" type="curve" smooth="yes"/>
      <point x="275.318" y="72"/>
      <point x="237.966" y="123.69"/>
      <point x="237.966" y="195.88" type="curve" smooth="yes"/>
      <point x="237.966" y="283.292"/>
      <point x="292.731" y="429"/>
    </contour>
  </outline>
</glyph>
<glyph name="dcroat" format="2">
  <advance width="561"/>
  <unicode hex="0111"/>
  <outline>
    <component base="d" xOffset="6.11778"/>
    <contour>
      <point x="353.787" y="648" type="line"/>
      <point x="337.265" y="563" type="line"/>
      <point x="639.265" y="563" type="line"/>
      <point x="655.787" y="648" type="line"/>
    </contour>
  </outline>
</glyph>
<glyph name="Hbar" format="2">
  <advance width="790"/>
  <unicode hex="0126"/>
  <outline>
    <component base="H"/>
    <contour>
      <point x="65.1851" y="506" type="line"/>
      <point x="750.185" y="506" type="line"/>
      <point x="769.623" y="606" type="line"/>
      <point x="84.6232" y="606" type="line"/>
    </contour>
  </outline>
</glyph>
<glyph name="hbar" format="2">
  <advance width="583"/>
  <unicode hex="0127"/>
  <outline>
    <component base="h" xOffset="26"/>
    <contour>
      <point x="131.288" y="630" type="line"/>
      <point x="114.766" y="545" type="line"/>
      <point x="479.766" y="545" type="line"/>
      <point x="496.288" y="630" type="line"/>
    </contour>
  </outline>
</glyph>
<glyph name="dotlessi" format="2">
  <advance width="294"/>
  <unicode hex="0131"/>
  <anchor x="216" y="580" name="top"/>
  <outline>
    <contour>
      <point x="30.4049" y="0" type="line"/>
      <point x="127.605" y="500" type="line"/>
      <point x="263.605" y="500" type="line"/>
      <point x="166.405" y="0" type="line"/>
    </contour>
  </outline>
  <guideline angle="90" x="147" y="0"/>
  <guideline angle="90" x="30" y="0"/>
  <guideline angle="90" x="264" y="0"/>
  <guideline angle="78.9106" x="166" y="0"/>
</glyph>
<glyph name="kgreenlandic" format="2">
  <advance width="551"/>
  <unicode hex="0138"/>
  <outline>
    <contour>
      <point x="155.405" y="0" type="line"/>
      <point x="252.595" y="500" type="line"/>
      <point x="108.654" y="454" type="line"/>
      <point x="20.4049" y="0" type="line"/>
    </contour>
    <contour>
      <point x="509.405" y="0" type="line"/>
      <point x="363.713" y="293.876" type="line"/>
      <point x="359.135" y="274.781" type="line"/>
      <point x="590.595" y="500" type="line"/>
      <point x="428.595" y="500" type="line"/>
      <point x="215.069" y="282.853" type="line"/>
      <point x="345.405" y="0" type="line"/>
    </contour>
  </outline>
  <guideline angle="198.816" x="204" y="500"/>
</glyph>
<glyph name="Lslash" format="2">
  <advance width="568"/>
  <unicode hex="0141"/>
  <outline>
    <component base="L" xOffset="48.6852"/>
    <contour>
      <point x="264.563" y="338.118" type="line"/>
      <point x="421.882" y="468.43" type="line"/>
      <point x="445.597" y="590.43" type="line"/>
      <point x="288.278" y="460.118" type="line"/>
    </contour>
    <contour>
      <point x="158.941" y="351.685" type="line"/>
      <point x="18.5916" y="235.43" type="line"/>
      <point x="-5.12275" y="113.43" type="line"/>
      <point x="135.226" y="229.685" type="line"/>
    </contour>
  </outline>
</glyph>
<glyph name="lslash" format="2">
  <advance width="396"/>
  <unicode hex="0142"/>
  <outline>
    <contour>
      <point x="43.4749" y="312" type="line"/>
      <point x="20.3437" y="193" type="line"/>
      <point x="392.215" y="465" type="line"/>
      <point x="415.93" y="587" type="line"/>
    </contour>
    <contour>
      <point x="62.8291" y="0.0045" type="line"/>
      <point x="212.829" y="0.0045" type="line"/>
      <point x="353.172" y="722.004" type="line"/>
      <point x="203.172" y="722.004" type="line"/>
    </contour>
  </outline>
</glyph>
<glyph name="Eng" format="2">
  <advance width="810"/>
  <unicode hex="014A"/>
  <outline>
    <contour>
      <point x="231.193" y="722" type="line"/>
      <point x="438.829" y="0" type="line"/>
      <point x="579.241" y="0" type="line"/>
      <point x="371.186" y="722" type="line"/>
    </contour>
    <contour>
      <point x="301.186" y="722" type="line"/>
      <point x="161.186" y="722" type="line"/>
      <point x="20.8287" y="0" type="line"/>
      <point x="160.829" y="0" type="line"/>
    </contour>
    <contour>
      <point x="508.829" y="0" type="line"/>
      <point x="648.829" y="0" type="line"/>
      <point x="789.186" y="722" type="line"/>
      <point x="649.186" y="722" type="line"/>
    </contour>
    <contour>
      <point x="653.331" y="20" type="line"/>
      <point x="524.331" y="20" type="line"/>
      <point x="510.336" y="-52" type="line" smooth="yes"/>
      <point x="506.65" y="-70.9615"/>
      <point x="480.158" y="-90"/>
      <point x="446.65" y="-90" type="curve" smooth="yes"/>
      <point x="421.95" y="-90"/>
      <point x="404.311" y="-79.6553"/>
      <point x="393.964" y="-64.4064" type="curve"/>
      <point x="308.647" y="-143" type="line"/>
      <point x="336.261" y="-181"/>
      <point x="398.568" y="-200"/>
      <point x="452.442" y="-200" type="curve" smooth="yes"/>
      <point x="541.568" y="-200"/>
      <point x="620.676" y="-148"/>
      <point x="635.448" y="-72" type="curve" smooth="yes"/>
    </contour>
  </outline>
</glyph>
<glyph name="eng" format="2">
  <advance width="588"/>
  <unicode hex="014B"/>
  <outline>
    <contour>
      <point x="131" y="-143" type="line"/>
      <point x="158" y="-181"/>
      <point x="231.186" y="-200"/>
      <point x="284" y="-200" type="curve" smooth="yes"/>
      <point x="374" y="-200"/>
      <point x="458.519" y="-145.905"/>
      <point x="475" y="-62" type="curve" smooth="yes"/>
      <point x="497" y="50" type="line"/>
      <point x="361" y="50" type="line"/>
      <point x="349" y="-12" type="line" smooth="yes"/>
      <point x="341.435" y="-51.0867"/>
      <point x="312.189" y="-80"/>
      <point x="271" y="-80" type="curve" smooth="yes"/>
      <point x="253" y="-80"/>
      <point x="235.734" y="-73.5467"/>
      <point x="226" y="-60" type="curve"/>
    </contour>
    <contour>
      <point x="190.351" y="279.357" type="line"/>
      <point x="210.282" y="279" type="line"/>
      <point x="229.139" y="376"/>
      <point x="278.025" y="432"/>
      <point x="346.025" y="432" type="curve" smooth="yes"/>
      <point x="392.349" y="432"/>
      <point x="415.096" y="405.772"/>
      <point x="415.096" y="352.856" type="curve" smooth="yes"/>
      <point x="415.096" y="337.234"/>
      <point x="413.113" y="319.286"/>
      <point x="409.17" y="299" type="curve" smooth="yes"/>
      <point x="351.044" y="0" type="line"/>
      <point x="487.044" y="0" type="line"/>
      <point x="552.946" y="339" type="line" smooth="yes"/>
      <point x="556.304" y="356.275"/>
      <point x="557.961" y="372.385"/>
      <point x="557.961" y="387.278" type="curve" smooth="yes"/>
      <point x="557.961" y="468.936"/>
      <point x="508.153" y="514"/>
      <point x="415.966" y="514" type="curve" smooth="yes"/>
      <point x="345.966" y="514"/>
      <point x="290.141" y="487.81"/>
      <point x="240.219" y="433" type="curve" smooth="yes"/>
      <point x="214.792" y="405.083" type="line"/>
    </contour>
    <contour>
      <point x="156.405" y="0" type="line"/>
      <point x="253.605" y="500" type="line"/>
      <point x="117.605" y="500" type="line"/>
      <point x="20.4049" y="0" type="line"/>
    </contour>
  </outline>
  <guideline angle="90" x="249" y="0"/>
  <guideline angle="90" x="229" y="0"/>
  <guideline angle="0" x="0" y="-200"/>
  <guideline angle="0" x="0" y="-80"/>
  <guideline angle="46.4144" x="-38" y="-143"/>
</glyph>
<glyph name="OE" format="2">
  <advance width="944"/>
  <unicode hex="0152"/>
  <outline>
    <component base="E" xOffset="368.343"/>
    <contour>
      <point x="30" y="257" type="curve" smooth="yes"/>
      <point x="30" y="95"/>
      <point x="119" y="-14"/>
      <point x="310" y="-14" type="curve"/>
      <point x="332" y="100" type="line"/>
      <point x="225" y="100"/>
      <point x="180.055" y="153.636"/>
      <point x="180" y="255" type="curve" smooth="yes"/>
      <point x="179.914" y="414"/>
      <point x="240.627" y="622"/>
      <point x="433" y="622" type="curve"/>
      <point x="456" y="736" type="line"/>
      <point x="187" y="736"/>
      <point x="30" y="507"/>
    </contour>
    <contour>
      <point x="433.373" y="622" type="line"/>
      <point x="469.66" y="622"/>
      <point x="496.83" y="616.709"/>
      <point x="526.246" y="595.158" type="curve"/>
      <point x="573.472" y="718.068" type="line"/>
      <point x="539.106" y="729.532"/>
      <point x="499.888" y="736"/>
      <point x="455.532" y="736" type="curve"/>
    </contour>
    <contour>
      <point x="309.747" y="-14" type="line"/>
      <point x="352.931" y="-14"/>
      <point x="394.674" y="-8.12564"/>
      <point x="436.522" y="4.02597" type="curve"/>
      <point x="435.597" y="128.388" type="line"/>
      <point x="402.306" y="109.857"/>
      <point x="368.227" y="100"/>
      <point x="331.906" y="100" type="curve"/>
    </contour>
  </outline>
</glyph>
<glyph name="oe" format="2">
  <advance width="934"/>
  <unicode hex="0153"/>
  <outline>
    <contour>
      <point x="36.5476" y="189.5" type="curve" smooth="yes"/>
      <point x="36.5476" y="66.7681"/>
      <point x="118.011" y="-14"/>
      <point x="250.323" y="-14" type="curve" smooth="yes"/>
      <point x="429.596" y="-14"/>
      <point x="564.832" y="136.798"/>
      <point x="564.832" y="311.426" type="curve" smooth="yes"/>
      <point x="564.832" y="433.638"/>
      <point x="484.935" y="514"/>
      <point x="352.956" y="514" type="curve" smooth="yes"/>
      <point x="174.301" y="514"/>
      <point x="36.5476" y="364.388"/>
    </contour>
    <contour>
      <point x="335.239" y="428" type="curve" smooth="yes"/>
      <point x="397.701" y="428"/>
      <point x="430.627" y="388.617"/>
      <point x="430.627" y="315.287" type="curve" smooth="yes"/>
      <point x="430.627" y="216.116"/>
      <point x="383.66" y="72"/>
      <point x="266.04" y="72" type="curve" smooth="yes"/>
      <point x="203.578" y="72"/>
      <point x="170.651" y="111.383"/>
      <point x="170.651" y="184.713" type="curve" smooth="yes"/>
      <point x="170.651" y="283.884"/>
      <point x="217.618" y="428"/>
    </contour>
    <contour>
      <point x="412.905" y="164.968" type="curve" smooth="yes"/>
      <point x="412.905" y="55.6695"/>
      <point x="471.665" y="-14"/>
      <point x="612.204" y="-14" type="curve" smooth="yes"/>
      <point x="739.323" y="-14"/>
      <point x="826.403" y="43"/>
      <point x="859.368" y="156" type="curve"/>
      <point x="723.368" y="156" type="line"/>
      <point x="708.037" y="108"/>
      <point x="675.04" y="72"/>
      <point x="619.04" y="72" type="curve" smooth="yes"/>
      <point x="564.028" y="72"/>
      <point x="548.794" y="107.144"/>
      <point x="548.794" y="151.518" type="curve" smooth="yes"/>
      <point x="548.794" y="174.093"/>
      <point x="552.737" y="199.058"/>
      <point x="557.391" y="223" type="curve"/>
      <point x="879.391" y="223" type="line"/>
      <point x="886.778" y="261" type="line" smooth="yes"/>
      <point x="891.701" y="286.33"/>
      <point x="894.293" y="310.777"/>
      <point x="894.293" y="333.83" type="curve" smooth="yes"/>
      <point x="894.293" y="438.191"/>
      <point x="841.188" y="514"/>
      <point x="710.956" y="514" type="curve" smooth="yes"/>
      <point x="519.448" y="514"/>
      <point x="412.905" y="339.638"/>
    </contour>
    <contour>
      <point x="573.913" y="308" type="line"/>
      <point x="586.937" y="375"/>
      <point x="621.433" y="429"/>
      <point x="688.433" y="429" type="curve" smooth="yes"/>
      <point x="740.646" y="429"/>
      <point x="760.37" y="396.206"/>
      <point x="760.37" y="350.023" type="curve" smooth="yes"/>
      <point x="760.37" y="336.942"/>
      <point x="758.788" y="322.788"/>
      <point x="755.913" y="308" type="curve"/>
    </contour>
  </outline>
</glyph>
<glyph name="Tbar" format="2">
  <advance width="622"/>
  <unicode hex="0166"/>
  <outline>
    <component base="T" xOffset="24.032"/>
    <contour>
      <point x="56.3091" y="306" type="line"/>
      <point x="478.309" y="306" type="line"/>
      <point x="497.747" y="406" type="line"/>
      <point x="75.7471" y="406" type="line"/>
    </contour>
  </outline>
</glyph>
<glyph name="tbar" format="2">
  <advance width="372"/>
  <unicode hex="0167"/>
  <outline>
    <contour>
      <point x="14.3805" y="238" type="line"/>
      <point x="253.38" y="238" type="line"/>
      <point x="269.903" y="323" type="line"/>
      <point x="30.9028" y="323" type="line"/>
    </contour>
    <contour>
      <point x="185.636" y="157" type="curve" smooth="yes"/>
      <point x="280.882" y="647" type="line"/>
      <point x="132.275" y="577" type="line"/>
      <point x="43.2492" y="119" type="line" smooth="yes"/>
      <point x="41.5868" y="110.448"/>
      <point x="40.7888" y="102.246"/>
      <point x="40.7888" y="94.4126" type="curve" smooth="yes"/>
      <point x="40.7888" y="26.2268"/>
      <point x="101.258" y="-14"/>
      <point x="178.397" y="-14" type="curve" smooth="yes"/>
      <point x="215.397" y="-14"/>
      <point x="250.563" y="-8"/>
      <point x="283.701" y="3" type="curve"/>
      <point x="300.223" y="88" type="line"/>
      <point x="284.057" y="82"/>
      <point x="266.474" y="79"/>
      <point x="248.474" y="79" type="curve" smooth="yes"/>
      <point x="207.439" y="79"/>
      <point x="183.537" y="99.4638"/>
      <point x="183.537" y="136.643" type="curve" smooth="yes"/>
      <point x="183.537" y="142.953"/>
      <point x="184.225" y="149.745"/>
    </contour>
    <contour>
      <point x="220.786" y="415" type="line"/>
      <point x="354.786" y="415" type="line"/>
      <point x="371.308" y="500" type="line"/>
      <point x="237.308" y="500" type="line"/>
    </contour>
    <contour>
      <point x="132.308" y="500" type="line"/>
      <point x="17.3081" y="500" type="line"/>
      <point x="0.785795" y="415" type="line"/>
      <point x="115.786" y="415" type="line"/>
    </contour>
  </outline>
</glyph>
<glyph name="florin" format="2">
  <advance width="527"/>
  <unicode hex="0192"/>
  <outline>
    <contour>
      <point x="36.4604" y="8.25" type="line" smooth="yes"/>
      <point x="10.5367" y="-46.463"/>
      <point x="-28.8136" y="-125"/>
      <point x="-89.4407" y="-125" type="curve" smooth="yes"/>
      <point x="-111.441" y="-125"/>
      <point x="-125.493" y="-114.981"/>
      <point x="-138.793" y="-95.9455" type="curve"/>
      <point x="-181.279" y="-189.488" type="line"/>
      <point x="-153.29" y="-204.814"/>
      <point x="-121.127" y="-211"/>
      <point x="-99.0077" y="-211" type="curve" smooth="yes"/>
      <point x="24.7553" y="-211"/>
      <point x="70.6629" y="-173.925"/>
      <point x="152.708" y="-0.766907" type="curve" smooth="yes"/>
      <point x="396.612" y="514" type="line" smooth="yes"/>
      <point x="448.849" y="624.248"/>
      <point x="472.908" y="648"/>
      <point x="524.098" y="648" type="curve" smooth="yes"/>
      <point x="540.815" y="648"/>
      <point x="561.843" y="643"/>
      <point x="580.316" y="630" type="curve"/>
      <point x="620.227" y="717" type="line"/>
      <point x="591.366" y="728"/>
      <point x="563.143" y="732"/>
      <point x="532.269" y="732" type="curve" smooth="yes"/>
      <point x="407.972" y="732"/>
      <point x="362.081" y="695.482"/>
      <point x="286.85" y="536.705" type="curve" smooth="yes"/>
    </contour>
    <contour>
      <point x="170.31" y="506.5" type="line"/>
      <point x="126.261" y="408.5" type="line"/>
      <point x="467.261" y="408.5" type="line"/>
      <point x="511.31" y="506.5" type="line"/>
    </contour>
  </outline>
  <guideline angle="74.3435" x="224" y="-1"/>
  <guideline angle="254.395" x="218" y="409"/>
  <guideline angle="74.3435" x="224" y="-1"/>
  <guideline angle="254.395" x="218" y="409"/>
  <guideline angle="74.3435" x="224" y="-1"/>
  <guideline angle="254.395" x="218" y="409"/>
  <guideline angle="255.689" x="143" y="507"/>
  <guideline angle="75.689" x="459" y="409"/>
  <guideline angle="0" x="0" y="507"/>
  <guideline angle="75.1916" x="529" y="630"/>
</glyph>
<glyph name="uni019E" format="2">
  <advance width="608"/>
  <unicode hex="019E"/>
  <outline>
    <contour>
      <point x="146.044" y="0" type="line"/>
      <point x="243.234" y="500" type="line"/>
      <point x="107.234" y="500" type="line"/>
      <point x="10.0443" y="0" type="line"/>
    </contour>
    <contour>
      <point x="180.346" y="279.357" type="line"/>
      <point x="200.276" y="279" type="line"/>
      <point x="219.131" y="376"/>
      <point x="268.017" y="432"/>
      <point x="336.017" y="432" type="curve" smooth="yes"/>
      <point x="382.342" y="432"/>
      <point x="405.089" y="405.771"/>
      <point x="405.089" y="352.852" type="curve" smooth="yes"/>
      <point x="405.089" y="337.231"/>
      <point x="403.107" y="319.284"/>
      <point x="399.164" y="299" type="curve" smooth="yes"/>
      <point x="341.044" y="0" type="line"/>
      <point x="477.044" y="0" type="line"/>
      <point x="542.939" y="339" type="line" smooth="yes"/>
      <point x="546.297" y="356.274"/>
      <point x="547.953" y="372.382"/>
      <point x="547.953" y="387.274" type="curve" smooth="yes"/>
      <point x="547.953" y="468.935"/>
      <point x="498.145" y="514"/>
      <point x="405.956" y="514" type="curve" smooth="yes"/>
      <point x="335.956" y="514"/>
      <point x="280.132" y="487.81"/>
      <point x="230.211" y="433" type="curve" smooth="yes"/>
      <point x="204.784" y="405.083" type="line"/>
    </contour>
    <contour>
      <point x="496.482" y="100" type="line"/>
      <point x="360.482" y="100" type="line"/>
      <point x="301.974" y="-201" type="line"/>
      <point x="437.974" y="-201" type="line"/>
    </contour>
  </outline>
</glyph>
<glyph name="uni01C0" format="2">
  <advance width="344"/>
  <unicode hex="01C0"/>
  <outline>
    <contour>
      <point x="119.987" y="-258" type="line"/>
      <point x="324.863" y="796" type="line"/>
      <point x="174.863" y="796" type="line"/>
      <point x="-30.0135" y="-258" type="line"/>
    </contour>
  </outline>
</glyph>
<glyph name="uni01C1" format="2">
  <advance width="688"/>
  <unicode hex="01C1"/>
  <outline>
    <contour>
      <point x="463.987" y="-258" type="line"/>
      <point x="668.863" y="796" type="line"/>
      <point x="518.863" y="796" type="line"/>
      <point x="313.987" y="-258" type="line"/>
    </contour>
    <contour>
      <point x="119.987" y="-258" type="line"/>
      <point x="324.863" y="796" type="line"/>
      <point x="174.863" y="796" type="line"/>
      <point x="-30.0135" y="-258" type="line"/>
    </contour>
  </outline>
</glyph>
<glyph name="uni01C2" format="2">
  <advance width="492"/>
  <unicode hex="01C2"/>
  <outline>
    <contour>
      <point x="97.968" y="0" type="line"/>
      <point x="247.968" y="0" type="line"/>
      <point x="391.032" y="736" type="line"/>
      <point x="241.032" y="736" type="line"/>
    </contour>
    <contour>
      <point x="49.2261" y="523.5" type="line"/>
      <point x="25.9005" y="403.5" type="line"/>
      <point x="475.901" y="403.5" type="line"/>
      <point x="499.226" y="523.5" type="line"/>
    </contour>
    <contour>
      <point x="12.0995" y="332.5" type="line"/>
      <point x="-11.2261" y="212.5" type="line"/>
      <point x="438.774" y="212.5" type="line"/>
      <point x="462.099" y="332.5" type="line"/>
    </contour>
  </outline>
</glyph>
<glyph name="uni01DD" format="2">
  <advance width="550"/>
  <unicode hex="01DD"/>
  <anchor x="205.606" y="-100" name="top"/>
  <anchor x="339.534" y="589" name="bottom"/>
  <anchor x="322.234" y="500" name="cedilla.bottom"/>
  <outline>
    <contour>
      <point x="514.381" y="335.038" type="curve" smooth="yes"/>
      <point x="514.381" y="444.333"/>
      <point x="455.621" y="514"/>
      <point x="315.085" y="514" type="curve" smooth="yes"/>
      <point x="187.966" y="514"/>
      <point x="100.885" y="457"/>
      <point x="67.9179" y="344" type="curve"/>
      <point x="203.918" y="344" type="line"/>
      <point x="219.249" y="392"/>
      <point x="252.247" y="428"/>
      <point x="308.247" y="428" type="curve" smooth="yes"/>
      <point x="363.258" y="428"/>
      <point x="378.491" y="392.858"/>
      <point x="378.491" y="348.486" type="curve" smooth="yes"/>
      <point x="378.491" y="325.909"/>
      <point x="374.548" y="300.943"/>
      <point x="369.893" y="277" type="curve"/>
      <point x="47.8931" y="277" type="line"/>
      <point x="40.5059" y="239" type="line" smooth="yes"/>
      <point x="35.5812" y="213.667"/>
      <point x="32.9894" y="189.219"/>
      <point x="32.9894" y="166.164" type="curve" smooth="yes"/>
      <point x="32.9894" y="61.8057"/>
      <point x="86.0934" y="-14"/>
      <point x="216.323" y="-14" type="curve" smooth="yes"/>
      <point x="407.832" y="-14"/>
      <point x="514.381" y="160.366"/>
    </contour>
    <contour>
      <point x="353.369" y="192" type="line"/>
      <point x="340.344" y="125"/>
      <point x="305.847" y="71"/>
      <point x="238.847" y="71" type="curve" smooth="yes"/>
      <point x="186.636" y="71"/>
      <point x="166.912" y="103.792"/>
      <point x="166.912" y="149.974" type="curve" smooth="yes"/>
      <point x="166.912" y="163.055"/>
      <point x="168.494" y="177.211"/>
      <point x="171.369" y="192" type="curve"/>
    </contour>
  </outline>
</glyph>
<glyph name="dotlessj" format="2">
  <advance width="296"/>
  <unicode hex="0237"/>
  <anchor x="219" y="580" name="top"/>
  <outline>
    <contour>
      <point x="-59.8079" y="-212" type="line"/>
      <point x="-36.8079" y="-212" type="line" smooth="yes"/>
      <point x="59.1921" y="-212"/>
      <point x="133.413" y="-180"/>
      <point x="152.853" y="-80" type="curve" smooth="yes"/>
      <point x="265.605" y="500" type="line"/>
      <point x="130.605" y="500" type="line"/>
      <point x="23.6849" y="-50" type="line" smooth="yes"/>
      <point x="18.6305" y="-76"/>
      <point x="4.38173" y="-103"/>
      <point x="-26.6183" y="-103" type="curve" smooth="yes"/>
      <point x="-38.6183" y="-103" type="line"/>
    </contour>
  </outline>
</glyph>
<glyph name="uni0251" format="2">
  <advance width="586"/>
  <unicode hex="0251"/>
  <outline>
    <contour>
      <point x="183.236" y="187.282" type="curve" smooth="yes"/>
      <point x="183.236" y="120.131"/>
      <point x="210.209" y="74"/>
      <point x="270.505" y="74" type="curve" smooth="yes"/>
      <point x="375.002" y="74"/>
      <point x="421.557" y="208.978"/>
      <point x="421.557" y="299.156" type="curve" smooth="yes"/>
      <point x="421.557" y="369.067"/>
      <point x="393.576" y="426"/>
      <point x="331.758" y="426" type="curve" smooth="yes"/>
      <point x="231.92" y="426"/>
      <point x="183.236" y="277.499"/>
    </contour>
    <contour>
      <point x="46.154" y="176.245" type="curve" smooth="yes"/>
      <point x="46.154" y="350.169"/>
      <point x="137.804" y="512"/>
      <point x="331.002" y="512" type="curve" smooth="yes"/>
      <point x="387.454" y="512"/>
      <point x="429.82" y="488.839"/>
      <point x="458.191" y="437" type="curve"/>
      <point x="470.439" y="500" type="line"/>
      <point x="605.439" y="500" type="line"/>
      <point x="508.294" y="0.285706" type="line"/>
      <point x="373.294" y="0.285706" type="line"/>
      <point x="388.204" y="76.983" type="line"/>
      <point x="345.268" y="23.6763"/>
      <point x="284.437" y="-12"/>
      <point x="221.38" y="-12" type="curve" smooth="yes"/>
      <point x="102.492" y="-12"/>
      <point x="46.154" y="67.1149"/>
    </contour>
  </outline>
</glyph>
<glyph name="uni0253" format="2">
  <advance width="623"/>
  <unicode hex="0253"/>
  <outline>
    <component base="uni0252"/>
    <contour>
      <point x="62.7213" y="380" type="line"/>
      <point x="197.721" y="380" type="line"/>
      <point x="222.16" y="505.724" type="line" smooth="yes"/>
      <point x="238.757" y="591.108"/>
      <point x="268.623" y="628"/>
      <point x="335.972" y="628" type="curve" smooth="yes"/>
      <point x="368.928" y="628"/>
      <point x="399.804" y="618.108"/>
      <point x="416.692" y="601.748" type="curve"/>
      <point x="500.675" y="673" type="line"/>
      <point x="465.009" y="710.478"/>
      <point x="425.282" y="732"/>
      <point x="326.143" y="732" type="curve" smooth="yes"/>
      <point x="212.796" y="732"/>
      <point x="115.941" y="653.789"/>
      <point x="94.7941" y="545" type="curve" smooth="yes"/>
    </contour>
  </outline>
</glyph>
<glyph name="uni0255" format="2">
  <advance width="555"/>
  <unicode hex="0255"/>
  <outline>
    <contour>
      <point x="237.928" y="-12" type="curve" smooth="yes"/>
      <point x="332.715" y="-12"/>
      <point x="483.582" y="40.7581"/>
      <point x="483.582" y="149.478" type="curve" smooth="yes"/>
      <point x="483.582" y="207.889"/>
      <point x="440.035" y="234"/>
      <point x="383.161" y="234" type="curve" smooth="yes"/>
      <point x="244.721" y="234"/>
      <point x="81.0593" y="79.2874"/>
      <point x="-14.8189" y="-133" type="curve"/>
      <point x="32.3398" y="-150" type="line"/>
      <point x="122.164" y="29.2151"/>
      <point x="261.591" y="155"/>
      <point x="340.668" y="155" type="curve" smooth="yes"/>
      <point x="362.161" y="155"/>
      <point x="372.289" y="145.708"/>
      <point x="372.289" y="130.711" type="curve" smooth="yes"/>
      <point x="372.289" y="92.6185"/>
      <point x="306.953" y="82"/>
      <point x="272.68" y="82" type="curve" smooth="yes"/>
      <point x="202.062" y="82"/>
      <point x="171.495" y="127.081"/>
      <point x="171.495" y="195.752" type="curve" smooth="yes"/>
      <point x="171.495" y="273.794"/>
      <point x="210.974" y="428"/>
      <point x="308.033" y="428" type="curve" smooth="yes"/>
      <point x="350.927" y="428"/>
      <point x="362.101" y="397.882"/>
      <point x="362.101" y="358.368" type="curve" smooth="yes"/>
      <point x="362.101" y="347.481"/>
      <point x="361.253" y="335.88"/>
      <point x="360.024" y="324" type="curve"/>
      <point x="492.024" y="324" type="line"/>
      <point x="495.987" y="344.39"/>
      <point x="497.927" y="362.918"/>
      <point x="497.927" y="379.689" type="curve" smooth="yes"/>
      <point x="497.927" y="475.602"/>
      <point x="434.459" y="514"/>
      <point x="322.956" y="514" type="curve" smooth="yes"/>
      <point x="132.425" y="514"/>
      <point x="32.275" y="332.685"/>
      <point x="32.275" y="161.094" type="curve" smooth="yes"/>
      <point x="32.275" y="49.1105"/>
      <point x="94.7006" y="-12"/>
    </contour>
  </outline>
</glyph>
<glyph name="uni0256" format="2">
  <advance width="586"/>
  <unicode hex="0256"/>
  <outline>
    <component base="d" xOffset="0.117818"/>
    <contour>
      <point x="390.876" y="134" type="line"/>
      <point x="353.166" y="-60" type="line" smooth="yes"/>
      <point x="351.722" y="-67.4289"/>
      <point x="351.019" y="-74.673"/>
      <point x="351.019" y="-81.703" type="curve" smooth="yes"/>
      <point x="351.019" y="-150.653"/>
      <point x="418.607" y="-199"/>
      <point x="514.213" y="-199" type="curve" smooth="yes"/>
      <point x="574.147" y="-199"/>
      <point x="623.84" y="-180"/>
      <point x="666.227" y="-142" type="curve"/>
      <point x="605.272" y="-66.1515" type="line"/>
      <point x="591.745" y="-78.279"/>
      <point x="573.529" y="-89"/>
      <point x="548.634" y="-89" type="curve" smooth="yes"/>
      <point x="515.26" y="-89"/>
      <point x="494.923" y="-69.732"/>
      <point x="495.039" y="-37.5756" type="curve" smooth="yes"/>
      <point x="495.058" y="-32.3781"/>
      <point x="494.611" y="-26.8439"/>
      <point x="495.747" y="-21" type="curve" smooth="yes"/>
      <point x="525.876" y="134" type="line"/>
    </contour>
  </outline>
  <guideline angle="0" x="0" y="-172"/>
</glyph>
<glyph name="uni0257" format="2">
  <advance width="603"/>
  <unicode hex="0257"/>
  <outline>
    <contour>
      <point x="261.122" y="74" type="curve" smooth="yes"/>
      <point x="200.824" y="74"/>
      <point x="173.851" y="120.133"/>
      <point x="173.851" y="187.287" type="curve" smooth="yes"/>
      <point x="173.851" y="277.502"/>
      <point x="222.531" y="426"/>
      <point x="322.368" y="426" type="curve" smooth="yes"/>
      <point x="384.187" y="426"/>
      <point x="412.169" y="369.064"/>
      <point x="412.169" y="299.15" type="curve" smooth="yes"/>
      <point x="412.169" y="208.974"/>
      <point x="365.618" y="74"/>
    </contour>
    <contour>
      <point x="498.912" y="0.2857" type="line"/>
      <point x="596.047" y="500" type="line"/>
      <point x="461.047" y="500" type="line"/>
      <point x="448.801" y="437" type="line"/>
      <point x="420.428" y="488.839"/>
      <point x="378.062" y="512"/>
      <point x="321.61" y="512" type="curve" smooth="yes"/>
      <point x="128.413" y="512"/>
      <point x="36.7687" y="350.173"/>
      <point x="36.7687" y="176.252" type="curve" smooth="yes"/>
      <point x="36.7687" y="67.1179"/>
      <point x="93.1086" y="-12"/>
      <point x="211.999" y="-12" type="curve" smooth="yes"/>
      <point x="275.055" y="-12"/>
      <point x="335.885" y="23.6763"/>
      <point x="378.821" y="76.983" type="curve"/>
      <point x="363.912" y="0.285702" type="line"/>
    </contour>
    <contour>
      <point x="437.721" y="380" type="line"/>
      <point x="572.721" y="380" type="line"/>
      <point x="597.16" y="505.724" type="line" smooth="yes"/>
      <point x="613.757" y="591.108"/>
      <point x="643.623" y="628"/>
      <point x="709.708" y="628" type="curve" smooth="yes"/>
      <point x="743.928" y="628"/>
      <point x="774.804" y="618.108"/>
      <point x="791.692" y="601.748" type="curve"/>
      <point x="875.675" y="673" type="line"/>
      <point x="840.009" y="710.478"/>
      <point x="800.282" y="732"/>
      <point x="701.143" y="732" type="curve" smooth="yes"/>
      <point x="587.796" y="732"/>
      <point x="490.941" y="653.789"/>
      <point x="469.794" y="545" type="curve" smooth="yes"/>
    </contour>
  </outline>
</glyph>
